<svg width="1193" height="241" viewBox="0 0 1193 241" fill="none" xmlns="http://www.w3.org/2000/svg">
<path fill-rule="evenodd" clip-rule="evenodd" d="M699.746 136.611C699.746 97.1825 710.853 64.4181 733.621 39.4283C756.945 13.3278 788.043 0 826.916 0C865.789 0 896.888 13.3278 920.212 39.4283C942.425 64.4181 954.087 96.6272 954.087 136.611C954.087 175.484 942.98 207.138 920.212 231.572C896.888 257.673 865.789 270.446 826.916 270.446C788.043 270.446 756.945 257.673 733.621 231.572C710.853 207.138 699.746 175.484 699.746 136.611ZM756.39 136.611C756.39 160.49 761.943 180.482 772.494 196.031C785.267 214.357 803.037 223.243 826.916 223.243C850.796 223.243 868.566 214.357 881.339 196.031C891.89 180.482 897.443 161.045 897.443 136.611C897.443 111.621 891.89 91.0739 881.339 75.5247C869.121 57.1988 850.796 47.7582 826.916 47.7582C803.037 47.7582 784.711 57.1988 772.494 75.5247C761.943 91.0739 756.39 111.621 756.39 136.611ZM57.2303 54.4232V217.135H196.618V264.893H0.58667V6.66504H193.841V54.4232H57.2303ZM476.505 6.66504V264.893V265.448H672.536V217.69H533.149V154.383H658.653V109.956H533.149V54.4232H669.76V6.66504H476.505ZM1031.28 179.371H976.302C976.302 209.359 987.408 232.127 1008.51 248.787C1028.5 263.781 1054.05 271 1085.15 271C1119.02 271 1145.68 263.226 1165.11 247.676C1183.44 232.682 1192.88 212.69 1192.88 188.256C1192.88 163.266 1182.33 143.83 1161.23 130.502C1151.79 124.393 1136.79 118.284 1116.24 113.286C1081.81 104.401 1060.71 98.2927 1053.49 94.9607C1044.05 90.5181 1039.61 83.854 1039.61 74.4134C1039.61 64.4175 1044.05 57.1984 1052.38 51.6451C1059.6 47.2024 1068.49 44.981 1079.04 44.981C1111.8 44.981 1128.46 57.7536 1130.13 83.8541H1185.11C1185.11 56.0876 1174.55 34.9851 1153.45 19.9912C1135.13 7.21864 1110.69 0.554688 1081.26 0.554688C1055.71 0.554688 1033.5 7.21864 1015.17 19.9912C994.627 34.4298 984.631 53.8665 984.631 78.8563C984.631 106.623 997.959 126.614 1024.62 139.387C1028.5 141.053 1052.94 148.828 1099.03 161.6C1125.69 169.375 1139.01 179.926 1139.01 194.92C1139.01 206.582 1132.9 215.467 1121.24 221.021C1112.36 224.908 1101.25 227.129 1088.48 227.129C1071.82 227.129 1058.49 223.242 1048.49 216.022C1036.83 207.693 1031.28 195.475 1031.28 179.371ZM266.95 109.275H82.545V154.156H266.95L281.586 131.715L266.95 109.275ZM227.198 7.8038H293.018L373.771 131.7L284.168 264.999H220.008L310.164 130.04L227.198 7.8038ZM393.12 111.788L463.918 7.8038H398.098L361.593 63.1145L393.12 111.788ZM463.918 264.856L393.12 160.872L361.593 209.545L398.098 264.856H463.918Z" fill="url(#paint0_radial_1_279)" fill-opacity="0.67"/>
<defs>
<radialGradient id="paint0_radial_1_279" cx="0" cy="0" r="1" gradientUnits="userSpaceOnUse" gradientTransform="translate(582.5 -204.5) rotate(90) scale(426.5 1473.93)">
<stop offset="0.4" stop-color="#A4A3A9"/>
<stop offset="1" stop-color="#05040D"/>
</radialGradient>
</defs>
</svg>
