<svg width="380" height="197" viewBox="0 0 380 197" fill="none" xmlns="http://www.w3.org/2000/svg">
<path d="M181.646 25.558V28.414H185.006V29.716H181.646V32.698H185.426V34H180.05V24.256H185.426V25.558H181.646ZM190.08 29.114C190.08 28.162 190.299 27.308 190.738 26.552C191.186 25.796 191.788 25.208 192.544 24.788C193.309 24.3587 194.144 24.144 195.05 24.144C196.086 24.144 197.005 24.4007 197.808 24.914C198.62 25.418 199.208 26.1367 199.572 27.07H197.654C197.402 26.5567 197.052 26.174 196.604 25.922C196.156 25.67 195.638 25.544 195.05 25.544C194.406 25.544 193.832 25.6887 193.328 25.978C192.824 26.2673 192.427 26.6827 192.138 27.224C191.858 27.7653 191.718 28.3953 191.718 29.114C191.718 29.8327 191.858 30.4627 192.138 31.004C192.427 31.5453 192.824 31.9653 193.328 32.264C193.832 32.5533 194.406 32.698 195.05 32.698C195.638 32.698 196.156 32.572 196.604 32.32C197.052 32.068 197.402 31.6853 197.654 31.172H199.572C199.208 32.1053 198.62 32.824 197.808 33.328C197.005 33.832 196.086 34.084 195.05 34.084C194.135 34.084 193.3 33.874 192.544 33.454C191.788 33.0247 191.186 32.432 190.738 31.676C190.299 30.92 190.08 30.066 190.08 29.114ZM206.172 28.666C205.201 28.1807 204.716 27.4153 204.716 26.37C204.716 25.866 204.842 25.404 205.094 24.984C205.346 24.564 205.724 24.2327 206.228 23.99C206.732 23.738 207.348 23.612 208.076 23.612C208.795 23.612 209.406 23.738 209.91 23.99C210.423 24.2327 210.806 24.564 211.058 24.984C211.31 25.404 211.436 25.866 211.436 26.37C211.436 26.8927 211.301 27.3547 211.03 27.756C210.769 28.148 210.419 28.4513 209.98 28.666C210.512 28.862 210.932 29.184 211.24 29.632C211.548 30.0707 211.702 30.5887 211.702 31.186C211.702 31.7927 211.548 32.3293 211.24 32.796C210.932 33.2627 210.503 33.622 209.952 33.874C209.401 34.126 208.776 34.252 208.076 34.252C207.376 34.252 206.751 34.126 206.2 33.874C205.659 33.622 205.234 33.2627 204.926 32.796C204.618 32.3293 204.464 31.7927 204.464 31.186C204.464 30.5793 204.618 30.0567 204.926 29.618C205.234 29.1793 205.649 28.862 206.172 28.666ZM209.91 26.566C209.91 26.0433 209.747 25.642 209.42 25.362C209.093 25.082 208.645 24.942 208.076 24.942C207.516 24.942 207.073 25.082 206.746 25.362C206.419 25.642 206.256 26.048 206.256 26.58C206.256 27.0467 206.424 27.4293 206.76 27.728C207.105 28.0173 207.544 28.162 208.076 28.162C208.608 28.162 209.047 28.0127 209.392 27.714C209.737 27.4153 209.91 27.0327 209.91 26.566ZM208.076 29.366C207.46 29.366 206.956 29.52 206.564 29.828C206.181 30.1267 205.99 30.5607 205.99 31.13C205.99 31.662 206.177 32.096 206.55 32.432C206.923 32.7587 207.432 32.922 208.076 32.922C208.711 32.922 209.21 32.754 209.574 32.418C209.947 32.082 210.134 31.6527 210.134 31.13C210.134 30.57 209.943 30.136 209.56 29.828C209.187 29.52 208.692 29.366 208.076 29.366ZM216.402 31.872V30.668L221.106 23.92H223.038V30.486H224.34V31.872H223.038V34H221.47V31.872H216.402ZM221.54 25.544L218.236 30.486H221.54V25.544ZM234.818 24.27V25.572H230.688V28.442H233.908V29.744H230.688V34H229.092V24.27H234.818ZM251.382 25.25V23.794H254.294V34H252.684V25.25H251.382ZM266.286 25.166H261.596V27.952C261.792 27.6907 262.082 27.4713 262.464 27.294C262.856 27.1167 263.272 27.028 263.71 27.028C264.494 27.028 265.129 27.196 265.614 27.532C266.109 27.868 266.459 28.2927 266.664 28.806C266.879 29.3193 266.986 29.8607 266.986 30.43C266.986 31.1207 266.851 31.7367 266.58 32.278C266.319 32.81 265.922 33.23 265.39 33.538C264.868 33.846 264.224 34 263.458 34C262.441 34 261.624 33.748 261.008 33.244C260.392 32.74 260.024 32.0727 259.902 31.242H261.456C261.559 31.6807 261.788 32.0307 262.142 32.292C262.497 32.544 262.94 32.67 263.472 32.67C264.135 32.67 264.63 32.4693 264.956 32.068C265.292 31.6667 265.46 31.1347 265.46 30.472C265.46 29.8 265.292 29.2867 264.956 28.932C264.62 28.568 264.126 28.386 263.472 28.386C263.015 28.386 262.628 28.5027 262.31 28.736C262.002 28.96 261.778 29.268 261.638 29.66H260.126V23.766H266.286V25.166ZM278.336 25.026L274.444 34H272.834L276.768 25.194H271.588V23.836H278.336V25.026ZM282.712 25.25V23.794H285.624V34H284.014V25.25H282.712ZM297.504 25.026L293.612 34H292.002L295.936 25.194H290.756V23.836H297.504V25.026ZM301.88 25.25V23.794H304.792V34H303.182V25.25H301.88ZM320.444 29.114C320.444 28.162 320.664 27.308 321.102 26.552C321.55 25.796 322.152 25.208 322.908 24.788C323.674 24.3587 324.509 24.144 325.414 24.144C326.45 24.144 327.37 24.4007 328.172 24.914C328.984 25.418 329.572 26.1367 329.936 27.07H328.018C327.766 26.5567 327.416 26.174 326.968 25.922C326.52 25.67 326.002 25.544 325.414 25.544C324.77 25.544 324.196 25.6887 323.692 25.978C323.188 26.2673 322.792 26.6827 322.502 27.224C322.222 27.7653 322.082 28.3953 322.082 29.114C322.082 29.8327 322.222 30.4627 322.502 31.004C322.792 31.5453 323.188 31.9653 323.692 32.264C324.196 32.5533 324.77 32.698 325.414 32.698C326.002 32.698 326.52 32.572 326.968 32.32C327.416 32.068 327.766 31.6853 328.018 31.172H329.936C329.572 32.1053 328.984 32.824 328.172 33.328C327.37 33.832 326.45 34.084 325.414 34.084C324.5 34.084 323.664 33.874 322.908 33.454C322.152 33.0247 321.55 32.432 321.102 31.676C320.664 30.92 320.444 30.066 320.444 29.114ZM334.493 29.114C334.493 28.162 334.712 27.308 335.151 26.552C335.599 25.796 336.201 25.208 336.957 24.788C337.722 24.3587 338.557 24.144 339.463 24.144C340.499 24.144 341.418 24.4007 342.221 24.914C343.033 25.418 343.621 26.1367 343.985 27.07H342.067C341.815 26.5567 341.465 26.174 341.017 25.922C340.569 25.67 340.051 25.544 339.463 25.544C338.819 25.544 338.245 25.6887 337.741 25.978C337.237 26.2673 336.84 26.6827 336.551 27.224C336.271 27.7653 336.131 28.3953 336.131 29.114C336.131 29.8327 336.271 30.4627 336.551 31.004C336.84 31.5453 337.237 31.9653 337.741 32.264C338.245 32.5533 338.819 32.698 339.463 32.698C340.051 32.698 340.569 32.572 341.017 32.32C341.465 32.068 341.815 31.6853 342.067 31.172H343.985C343.621 32.1053 343.033 32.824 342.221 33.328C341.418 33.832 340.499 34.084 339.463 34.084C338.548 34.084 337.713 33.874 336.957 33.454C336.201 33.0247 335.599 32.432 335.151 31.676C334.712 30.92 334.493 30.066 334.493 29.114ZM362.773 28.666C361.803 28.1807 361.317 27.4153 361.317 26.37C361.317 25.866 361.443 25.404 361.695 24.984C361.947 24.564 362.325 24.2327 362.829 23.99C363.333 23.738 363.949 23.612 364.677 23.612C365.396 23.612 366.007 23.738 366.511 23.99C367.025 24.2327 367.407 24.564 367.659 24.984C367.911 25.404 368.037 25.866 368.037 26.37C368.037 26.8927 367.902 27.3547 367.631 27.756C367.37 28.148 367.02 28.4513 366.581 28.666C367.113 28.862 367.533 29.184 367.841 29.632C368.149 30.0707 368.303 30.5887 368.303 31.186C368.303 31.7927 368.149 32.3293 367.841 32.796C367.533 33.2627 367.104 33.622 366.553 33.874C366.003 34.126 365.377 34.252 364.677 34.252C363.977 34.252 363.352 34.126 362.801 33.874C362.26 33.622 361.835 33.2627 361.527 32.796C361.219 32.3293 361.065 31.7927 361.065 31.186C361.065 30.5793 361.219 30.0567 361.527 29.618C361.835 29.1793 362.251 28.862 362.773 28.666ZM366.511 26.566C366.511 26.0433 366.348 25.642 366.021 25.362C365.695 25.082 365.247 24.942 364.677 24.942C364.117 24.942 363.674 25.082 363.347 25.362C363.021 25.642 362.857 26.048 362.857 26.58C362.857 27.0467 363.025 27.4293 363.361 27.728C363.707 28.0173 364.145 28.162 364.677 28.162C365.209 28.162 365.648 28.0127 365.993 27.714C366.339 27.4153 366.511 27.0327 366.511 26.566ZM364.677 29.366C364.061 29.366 363.557 29.52 363.165 29.828C362.783 30.1267 362.591 30.5607 362.591 31.13C362.591 31.662 362.778 32.096 363.151 32.432C363.525 32.7587 364.033 32.922 364.677 32.922C365.312 32.922 365.811 32.754 366.175 32.418C366.549 32.082 366.735 31.6527 366.735 31.13C366.735 30.57 366.544 30.136 366.161 29.828C365.788 29.52 365.293 29.366 364.677 29.366ZM179.518 50.114C179.518 49.162 179.737 48.308 180.176 47.552C180.624 46.796 181.226 46.208 181.982 45.788C182.747 45.3587 183.583 45.144 184.488 45.144C185.524 45.144 186.443 45.4007 187.246 45.914C188.058 46.418 188.646 47.1367 189.01 48.07H187.092C186.84 47.5567 186.49 47.174 186.042 46.922C185.594 46.67 185.076 46.544 184.488 46.544C183.844 46.544 183.27 46.6887 182.766 46.978C182.262 47.2673 181.865 47.6827 181.576 48.224C181.296 48.7653 181.156 49.3953 181.156 50.114C181.156 50.8327 181.296 51.4627 181.576 52.004C181.865 52.5453 182.262 52.9653 182.766 53.264C183.27 53.5533 183.844 53.698 184.488 53.698C185.076 53.698 185.594 53.572 186.042 53.32C186.49 53.068 186.84 52.6853 187.092 52.172H189.01C188.646 53.1053 188.058 53.824 187.246 54.328C186.443 54.832 185.524 55.084 184.488 55.084C183.573 55.084 182.738 54.874 181.982 54.454C181.226 54.0247 180.624 53.432 180.176 52.676C179.737 51.92 179.518 51.066 179.518 50.114ZM194.77 52.83C195.666 52.0553 196.371 51.4207 196.884 50.926C197.407 50.422 197.841 49.8993 198.186 49.358C198.531 48.8167 198.704 48.2753 198.704 47.734C198.704 47.174 198.569 46.7353 198.298 46.418C198.037 46.1007 197.621 45.942 197.052 45.942C196.501 45.942 196.072 46.1193 195.764 46.474C195.465 46.8193 195.307 47.286 195.288 47.874H193.748C193.776 46.81 194.093 45.998 194.7 45.438C195.316 44.8687 196.095 44.584 197.038 44.584C198.055 44.584 198.849 44.864 199.418 45.424C199.997 45.984 200.286 46.7307 200.286 47.664C200.286 48.336 200.113 48.9847 199.768 49.61C199.432 50.226 199.026 50.7813 198.55 51.276C198.083 51.7613 197.486 52.326 196.758 52.97L196.128 53.53H200.566V54.86H193.762V53.698L194.77 52.83ZM210.676 47.16C210.574 46.7307 210.387 46.4087 210.116 46.194C209.846 45.9793 209.468 45.872 208.982 45.872C208.245 45.872 207.694 46.1567 207.33 46.726C206.966 47.286 206.775 48.2193 206.756 49.526C206.999 49.1153 207.354 48.798 207.82 48.574C208.287 48.35 208.791 48.238 209.332 48.238C209.948 48.238 210.49 48.3733 210.956 48.644C211.432 48.9053 211.801 49.288 212.062 49.792C212.333 50.296 212.468 50.898 212.468 51.598C212.468 52.2513 212.338 52.8347 212.076 53.348C211.824 53.8613 211.446 54.2673 210.942 54.566C210.438 54.8553 209.832 55 209.122 55C208.161 55 207.405 54.79 206.854 54.37C206.313 53.9407 205.93 53.3387 205.706 52.564C205.492 51.7893 205.384 50.8233 205.384 49.666C205.384 46.25 206.588 44.542 208.996 44.542C209.93 44.542 210.662 44.794 211.194 45.298C211.736 45.802 212.053 46.4227 212.146 47.16H210.676ZM208.982 49.582C208.413 49.582 207.928 49.7547 207.526 50.1C207.134 50.436 206.938 50.926 206.938 51.57C206.938 52.214 207.12 52.7273 207.484 53.11C207.858 53.4833 208.376 53.67 209.038 53.67C209.626 53.67 210.088 53.488 210.424 53.124C210.77 52.76 210.942 52.2747 210.942 51.668C210.942 51.0333 210.774 50.5293 210.438 50.156C210.112 49.7733 209.626 49.582 208.982 49.582ZM217.069 50.114C217.069 49.162 217.288 48.308 217.727 47.552C218.175 46.796 218.777 46.208 219.533 45.788C220.298 45.3587 221.133 45.144 222.039 45.144C223.075 45.144 223.994 45.4007 224.797 45.914C225.609 46.418 226.197 47.1367 226.561 48.07H224.643C224.391 47.5567 224.041 47.174 223.593 46.922C223.145 46.67 222.627 46.544 222.039 46.544C221.395 46.544 220.821 46.6887 220.317 46.978C219.813 47.2673 219.416 47.6827 219.127 48.224C218.847 48.7653 218.707 49.3953 218.707 50.114C218.707 50.8327 218.847 51.4627 219.127 52.004C219.416 52.5453 219.813 52.9653 220.317 53.264C220.821 53.5533 221.395 53.698 222.039 53.698C222.627 53.698 223.145 53.572 223.593 53.32C224.041 53.068 224.391 52.6853 224.643 52.172H226.561C226.197 53.1053 225.609 53.824 224.797 54.328C223.994 54.832 223.075 55.084 222.039 55.084C221.124 55.084 220.289 54.874 219.533 54.454C218.777 54.0247 218.175 53.432 217.727 52.676C217.288 51.92 217.069 51.066 217.069 50.114ZM231.229 46.25V44.794H234.141V55H232.531V46.25H231.229ZM241.359 46.558V49.414H244.719V50.716H241.359V53.698H245.139V55H239.763V45.256H245.139V46.558H241.359ZM256.583 46.026L252.691 55H251.081L255.015 46.194H249.835V44.836H256.583V46.026ZM271.409 50.114C271.409 49.162 271.628 48.308 272.067 47.552C272.515 46.796 273.117 46.208 273.873 45.788C274.638 45.3587 275.474 45.144 276.379 45.144C277.415 45.144 278.334 45.4007 279.137 45.914C279.949 46.418 280.537 47.1367 280.901 48.07H278.983C278.731 47.5567 278.381 47.174 277.933 46.922C277.485 46.67 276.967 46.544 276.379 46.544C275.735 46.544 275.161 46.6887 274.657 46.978C274.153 47.2673 273.756 47.6827 273.467 48.224C273.187 48.7653 273.047 49.3953 273.047 50.114C273.047 50.8327 273.187 51.4627 273.467 52.004C273.756 52.5453 274.153 52.9653 274.657 53.264C275.161 53.5533 275.735 53.698 276.379 53.698C276.967 53.698 277.485 53.572 277.933 53.32C278.381 53.068 278.731 52.6853 278.983 52.172H280.901C280.537 53.1053 279.949 53.824 279.137 54.328C278.334 54.832 277.415 55.084 276.379 55.084C275.464 55.084 274.629 54.874 273.873 54.454C273.117 54.0247 272.515 53.432 272.067 52.676C271.628 51.92 271.409 51.066 271.409 50.114ZM291.715 45.27V46.572H287.585V49.442H290.805V50.744H287.585V55H285.989V45.27H291.715ZM301.622 50.002C302.145 50.0953 302.588 50.3707 302.952 50.828C303.316 51.2853 303.498 51.8033 303.498 52.382C303.498 52.8767 303.367 53.3247 303.106 53.726C302.854 54.118 302.485 54.4307 302 54.664C301.515 54.888 300.95 55 300.306 55H296.414V45.27H300.124C300.787 45.27 301.356 45.382 301.832 45.606C302.308 45.83 302.667 46.1333 302.91 46.516C303.153 46.8893 303.274 47.3093 303.274 47.776C303.274 48.336 303.125 48.8027 302.826 49.176C302.527 49.5493 302.126 49.8247 301.622 50.002ZM298.01 49.358H299.984C300.507 49.358 300.913 49.2413 301.202 49.008C301.501 48.7653 301.65 48.42 301.65 47.972C301.65 47.5333 301.501 47.1927 301.202 46.95C300.913 46.698 300.507 46.572 299.984 46.572H298.01V49.358ZM300.166 53.698C300.707 53.698 301.132 53.5673 301.44 53.306C301.748 53.0447 301.902 52.6807 301.902 52.214C301.902 51.738 301.739 51.36 301.412 51.08C301.085 50.8 300.651 50.66 300.11 50.66H298.01V53.698H300.166ZM313.73 47.16C313.628 46.7307 313.441 46.4087 313.17 46.194C312.9 45.9793 312.522 45.872 312.036 45.872C311.299 45.872 310.748 46.1567 310.384 46.726C310.02 47.286 309.829 48.2193 309.81 49.526C310.053 49.1153 310.408 48.798 310.874 48.574C311.341 48.35 311.845 48.238 312.386 48.238C313.002 48.238 313.544 48.3733 314.01 48.644C314.486 48.9053 314.855 49.288 315.116 49.792C315.387 50.296 315.522 50.898 315.522 51.598C315.522 52.2513 315.392 52.8347 315.13 53.348C314.878 53.8613 314.5 54.2673 313.996 54.566C313.492 54.8553 312.886 55 312.176 55C311.215 55 310.459 54.79 309.908 54.37C309.367 53.9407 308.984 53.3387 308.76 52.564C308.546 51.7893 308.438 50.8233 308.438 49.666C308.438 46.25 309.642 44.542 312.05 44.542C312.984 44.542 313.716 44.794 314.248 45.298C314.79 45.802 315.107 46.4227 315.2 47.16H313.73ZM312.036 49.582C311.467 49.582 310.982 49.7547 310.58 50.1C310.188 50.436 309.992 50.926 309.992 51.57C309.992 52.214 310.174 52.7273 310.538 53.11C310.912 53.4833 311.43 53.67 312.092 53.67C312.68 53.67 313.142 53.488 313.478 53.124C313.824 52.76 313.996 52.2747 313.996 51.668C313.996 51.0333 313.828 50.5293 313.492 50.156C313.166 49.7733 312.68 49.582 312.036 49.582ZM323.833 45.27C324.869 45.27 325.774 45.4707 326.549 45.872C327.333 46.264 327.935 46.8333 328.355 47.58C328.784 48.3173 328.999 49.1807 328.999 50.17C328.999 51.1593 328.784 52.018 328.355 52.746C327.935 53.474 327.333 54.034 326.549 54.426C325.774 54.8087 324.869 55 323.833 55H320.655V45.27H323.833ZM323.833 53.698C324.972 53.698 325.844 53.39 326.451 52.774C327.058 52.158 327.361 51.29 327.361 50.17C327.361 49.0407 327.058 48.1587 326.451 47.524C325.844 46.8893 324.972 46.572 323.833 46.572H322.251V53.698H323.833ZM336.979 45.27C338.015 45.27 338.92 45.4707 339.695 45.872C340.479 46.264 341.081 46.8333 341.501 47.58C341.93 48.3173 342.145 49.1807 342.145 50.17C342.145 51.1593 341.93 52.018 341.501 52.746C341.081 53.474 340.479 54.034 339.695 54.426C338.92 54.8087 338.015 55 336.979 55H333.801V45.27H336.979ZM336.979 53.698C338.117 53.698 338.99 53.39 339.597 52.774C340.203 52.158 340.507 51.29 340.507 50.17C340.507 49.0407 340.203 48.1587 339.597 47.524C338.99 46.8893 338.117 46.572 336.979 46.572H335.397V53.698H336.979ZM348.724 52.228C348.818 52.6947 349.018 53.0493 349.326 53.292C349.634 53.5347 350.05 53.656 350.572 53.656C351.235 53.656 351.72 53.3947 352.028 52.872C352.336 52.3493 352.49 51.458 352.49 50.198C352.266 50.5153 351.949 50.7627 351.538 50.94C351.137 51.108 350.698 51.192 350.222 51.192C349.616 51.192 349.065 51.0707 348.57 50.828C348.076 50.576 347.684 50.2073 347.394 49.722C347.114 49.2273 346.974 48.63 346.974 47.93C346.974 46.9033 347.273 46.0867 347.87 45.48C348.477 44.864 349.308 44.556 350.362 44.556C351.632 44.556 352.532 44.9807 353.064 45.83C353.606 46.67 353.876 47.9627 353.876 49.708C353.876 50.912 353.774 51.8967 353.568 52.662C353.372 53.4273 353.027 54.006 352.532 54.398C352.038 54.79 351.352 54.986 350.474 54.986C349.476 54.986 348.706 54.7247 348.164 54.202C347.623 53.6793 347.32 53.0213 347.254 52.228H348.724ZM350.502 49.848C351.062 49.848 351.501 49.6753 351.818 49.33C352.145 48.9753 352.308 48.5087 352.308 47.93C352.308 47.286 352.136 46.7867 351.79 46.432C351.454 46.068 350.992 45.886 350.404 45.886C349.816 45.886 349.35 46.0727 349.004 46.446C348.668 46.81 348.5 47.2907 348.5 47.888C348.5 48.4573 348.664 48.9287 348.99 49.302C349.326 49.666 349.83 49.848 350.502 49.848ZM358.633 46.25V44.794H361.545V55H359.935V46.25H358.633ZM367.84 52.83C368.736 52.0553 369.44 51.4207 369.954 50.926C370.476 50.422 370.91 49.8993 371.256 49.358C371.601 48.8167 371.774 48.2753 371.774 47.734C371.774 47.174 371.638 46.7353 371.368 46.418C371.106 46.1007 370.691 45.942 370.122 45.942C369.571 45.942 369.142 46.1193 368.834 46.474C368.535 46.8193 368.376 47.286 368.358 47.874H366.818C366.846 46.81 367.163 45.998 367.77 45.438C368.386 44.8687 369.165 44.584 370.108 44.584C371.125 44.584 371.918 44.864 372.488 45.424C373.066 45.984 373.356 46.7307 373.356 47.664C373.356 48.336 373.183 48.9847 372.838 49.61C372.502 50.226 372.096 50.7813 371.62 51.276C371.153 51.7613 370.556 52.326 369.828 52.97L369.198 53.53H373.636V54.86H366.832V53.698L367.84 52.83ZM196.338 66.27V67.572H192.208V70.442H195.428V71.744H192.208V76H190.612V66.27H196.338ZM200.631 73.872V72.668L205.335 65.92H207.267V72.486H208.569V73.872H207.267V76H205.699V73.872H200.631ZM205.769 67.544L202.465 72.486H205.769V67.544ZM213.083 68.314C213.139 67.446 213.471 66.7693 214.077 66.284C214.693 65.7987 215.477 65.556 216.429 65.556C217.083 65.556 217.647 65.6727 218.123 65.906C218.599 66.1393 218.959 66.4567 219.201 66.858C219.444 67.2593 219.565 67.712 219.565 68.216C219.565 68.7947 219.411 69.2893 219.103 69.7C218.795 70.1107 218.427 70.386 217.997 70.526V70.582C218.548 70.75 218.977 71.058 219.285 71.506C219.593 71.9447 219.747 72.5093 219.747 73.2C219.747 73.7507 219.621 74.2407 219.369 74.67C219.117 75.0993 218.744 75.44 218.249 75.692C217.755 75.9347 217.162 76.056 216.471 76.056C215.463 76.056 214.633 75.7993 213.979 75.286C213.335 74.7633 212.99 74.0167 212.943 73.046H214.483C214.521 73.5407 214.712 73.9467 215.057 74.264C215.403 74.572 215.869 74.726 216.457 74.726C217.027 74.726 217.465 74.572 217.773 74.264C218.081 73.9467 218.235 73.5407 218.235 73.046C218.235 72.3927 218.025 71.9307 217.605 71.66C217.195 71.38 216.56 71.24 215.701 71.24H215.337V69.924H215.715C216.471 69.9147 217.045 69.7887 217.437 69.546C217.839 69.3033 218.039 68.9207 218.039 68.398C218.039 67.95 217.895 67.5953 217.605 67.334C217.316 67.0633 216.905 66.928 216.373 66.928C215.851 66.928 215.445 67.0633 215.155 67.334C214.866 67.5953 214.693 67.922 214.637 68.314H213.083ZM230.132 68.16C230.029 67.7307 229.842 67.4087 229.572 67.194C229.301 66.9793 228.923 66.872 228.438 66.872C227.7 66.872 227.15 67.1567 226.786 67.726C226.422 68.286 226.23 69.2193 226.212 70.526C226.454 70.1153 226.809 69.798 227.276 69.574C227.742 69.35 228.246 69.238 228.788 69.238C229.404 69.238 229.945 69.3733 230.412 69.644C230.888 69.9053 231.256 70.288 231.518 70.792C231.788 71.296 231.924 71.898 231.924 72.598C231.924 73.2513 231.793 73.8347 231.532 74.348C231.28 74.8613 230.902 75.2673 230.398 75.566C229.894 75.8553 229.287 76 228.578 76C227.616 76 226.86 75.79 226.31 75.37C225.768 74.9407 225.386 74.3387 225.162 73.564C224.947 72.7893 224.84 71.8233 224.84 70.666C224.84 67.25 226.044 65.542 228.452 65.542C229.385 65.542 230.118 65.794 230.65 66.298C231.191 66.802 231.508 67.4227 231.602 68.16H230.132ZM228.438 70.582C227.868 70.582 227.383 70.7547 226.982 71.1C226.59 71.436 226.394 71.926 226.394 72.57C226.394 73.214 226.576 73.7273 226.94 74.11C227.313 74.4833 227.831 74.67 228.494 74.67C229.082 74.67 229.544 74.488 229.88 74.124C230.225 73.76 230.398 73.2747 230.398 72.668C230.398 72.0333 230.23 71.5293 229.894 71.156C229.567 70.7733 229.082 70.582 228.438 70.582ZM236.65 73.872V72.668L241.354 65.92H243.286V72.486H244.588V73.872H243.286V76H241.718V73.872H236.65ZM241.788 67.544L238.484 72.486H241.788V67.544ZM255.711 67.166H251.021V69.952C251.217 69.6907 251.506 69.4713 251.889 69.294C252.281 69.1167 252.696 69.028 253.135 69.028C253.919 69.028 254.553 69.196 255.039 69.532C255.533 69.868 255.883 70.2927 256.089 70.806C256.303 71.3193 256.411 71.8607 256.411 72.43C256.411 73.1207 256.275 73.7367 256.005 74.278C255.743 74.81 255.347 75.23 254.815 75.538C254.292 75.846 253.648 76 252.883 76C251.865 76 251.049 75.748 250.433 75.244C249.817 74.74 249.448 74.0727 249.327 73.242H250.881C250.983 73.6807 251.212 74.0307 251.567 74.292C251.921 74.544 252.365 74.67 252.897 74.67C253.559 74.67 254.054 74.4693 254.381 74.068C254.717 73.6667 254.885 73.1347 254.885 72.472C254.885 71.8 254.717 71.2867 254.381 70.932C254.045 70.568 253.55 70.386 252.897 70.386C252.439 70.386 252.052 70.5027 251.735 70.736C251.427 70.96 251.203 71.268 251.063 71.66H249.551V65.766H255.711V67.166ZM263.014 70.666C262.043 70.1807 261.558 69.4153 261.558 68.37C261.558 67.866 261.684 67.404 261.936 66.984C262.188 66.564 262.566 66.2327 263.07 65.99C263.574 65.738 264.19 65.612 264.918 65.612C265.637 65.612 266.248 65.738 266.752 65.99C267.265 66.2327 267.648 66.564 267.9 66.984C268.152 67.404 268.278 67.866 268.278 68.37C268.278 68.8927 268.143 69.3547 267.872 69.756C267.611 70.148 267.261 70.4513 266.822 70.666C267.354 70.862 267.774 71.184 268.082 71.632C268.39 72.0707 268.544 72.5887 268.544 73.186C268.544 73.7927 268.39 74.3293 268.082 74.796C267.774 75.2627 267.345 75.622 266.794 75.874C266.243 76.126 265.618 76.252 264.918 76.252C264.218 76.252 263.593 76.126 263.042 75.874C262.501 75.622 262.076 75.2627 261.768 74.796C261.46 74.3293 261.306 73.7927 261.306 73.186C261.306 72.5793 261.46 72.0567 261.768 71.618C262.076 71.1793 262.491 70.862 263.014 70.666ZM266.752 68.566C266.752 68.0433 266.589 67.642 266.262 67.362C265.935 67.082 265.487 66.942 264.918 66.942C264.358 66.942 263.915 67.082 263.588 67.362C263.261 67.642 263.098 68.048 263.098 68.58C263.098 69.0467 263.266 69.4293 263.602 69.728C263.947 70.0173 264.386 70.162 264.918 70.162C265.45 70.162 265.889 70.0127 266.234 69.714C266.579 69.4153 266.752 69.0327 266.752 68.566ZM264.918 71.366C264.302 71.366 263.798 71.52 263.406 71.828C263.023 72.1267 262.832 72.5607 262.832 73.13C262.832 73.662 263.019 74.096 263.392 74.432C263.765 74.7587 264.274 74.922 264.918 74.922C265.553 74.922 266.052 74.754 266.416 74.418C266.789 74.082 266.976 73.6527 266.976 73.13C266.976 72.57 266.785 72.136 266.402 71.828C266.029 71.52 265.534 71.366 264.918 71.366ZM279.516 74.012H275.442L274.742 76H273.076L276.562 66.256H278.41L281.896 76H280.216L279.516 74.012ZM279.068 72.71L277.486 68.188L275.89 72.71H279.068ZM288.144 70.666C287.173 70.1807 286.688 69.4153 286.688 68.37C286.688 67.866 286.814 67.404 287.066 66.984C287.318 66.564 287.696 66.2327 288.2 65.99C288.704 65.738 289.32 65.612 290.048 65.612C290.766 65.612 291.378 65.738 291.882 65.99C292.395 66.2327 292.778 66.564 293.03 66.984C293.282 67.404 293.408 67.866 293.408 68.37C293.408 68.8927 293.272 69.3547 293.002 69.756C292.74 70.148 292.39 70.4513 291.952 70.666C292.484 70.862 292.904 71.184 293.212 71.632C293.52 72.0707 293.674 72.5887 293.674 73.186C293.674 73.7927 293.52 74.3293 293.212 74.796C292.904 75.2627 292.474 75.622 291.924 75.874C291.373 76.126 290.748 76.252 290.048 76.252C289.348 76.252 288.722 76.126 288.172 75.874C287.63 75.622 287.206 75.2627 286.898 74.796C286.59 74.3293 286.436 73.7927 286.436 73.186C286.436 72.5793 286.59 72.0567 286.898 71.618C287.206 71.1793 287.621 70.862 288.144 70.666ZM291.882 68.566C291.882 68.0433 291.718 67.642 291.392 67.362C291.065 67.082 290.617 66.942 290.048 66.942C289.488 66.942 289.044 67.082 288.718 67.362C288.391 67.642 288.228 68.048 288.228 68.58C288.228 69.0467 288.396 69.4293 288.732 69.728C289.077 70.0173 289.516 70.162 290.048 70.162C290.58 70.162 291.018 70.0127 291.364 69.714C291.709 69.4153 291.882 69.0327 291.882 68.566ZM290.048 71.366C289.432 71.366 288.928 71.52 288.536 71.828C288.153 72.1267 287.962 72.5607 287.962 73.13C287.962 73.662 288.148 74.096 288.522 74.432C288.895 74.7587 289.404 74.922 290.048 74.922C290.682 74.922 291.182 74.754 291.546 74.418C291.919 74.082 292.106 73.6527 292.106 73.13C292.106 72.57 291.914 72.136 291.532 71.828C291.158 71.52 290.664 71.366 290.048 71.366ZM310.395 71.114C310.395 70.162 310.614 69.308 311.053 68.552C311.501 67.796 312.103 67.208 312.859 66.788C313.624 66.3587 314.46 66.144 315.365 66.144C316.401 66.144 317.32 66.4007 318.123 66.914C318.935 67.418 319.523 68.1367 319.887 69.07H317.969C317.717 68.5567 317.367 68.174 316.919 67.922C316.471 67.67 315.953 67.544 315.365 67.544C314.721 67.544 314.147 67.6887 313.643 67.978C313.139 68.2673 312.742 68.6827 312.453 69.224C312.173 69.7653 312.033 70.3953 312.033 71.114C312.033 71.8327 312.173 72.4627 312.453 73.004C312.742 73.5453 313.139 73.9653 313.643 74.264C314.147 74.5533 314.721 74.698 315.365 74.698C315.953 74.698 316.471 74.572 316.919 74.32C317.367 74.068 317.717 73.6853 317.969 73.172H319.887C319.523 74.1053 318.935 74.824 318.123 75.328C317.32 75.832 316.401 76.084 315.365 76.084C314.45 76.084 313.615 75.874 312.859 75.454C312.103 75.0247 311.501 74.432 311.053 73.676C310.614 72.92 310.395 72.066 310.395 71.114ZM326.487 70.666C325.516 70.1807 325.031 69.4153 325.031 68.37C325.031 67.866 325.157 67.404 325.409 66.984C325.661 66.564 326.039 66.2327 326.543 65.99C327.047 65.738 327.663 65.612 328.391 65.612C329.11 65.612 329.721 65.738 330.225 65.99C330.738 66.2327 331.121 66.564 331.373 66.984C331.625 67.404 331.751 67.866 331.751 68.37C331.751 68.8927 331.616 69.3547 331.345 69.756C331.084 70.148 330.734 70.4513 330.295 70.666C330.827 70.862 331.247 71.184 331.555 71.632C331.863 72.0707 332.017 72.5887 332.017 73.186C332.017 73.7927 331.863 74.3293 331.555 74.796C331.247 75.2627 330.818 75.622 330.267 75.874C329.716 76.126 329.091 76.252 328.391 76.252C327.691 76.252 327.066 76.126 326.515 75.874C325.974 75.622 325.549 75.2627 325.241 74.796C324.933 74.3293 324.779 73.7927 324.779 73.186C324.779 72.5793 324.933 72.0567 325.241 71.618C325.549 71.1793 325.964 70.862 326.487 70.666ZM330.225 68.566C330.225 68.0433 330.062 67.642 329.735 67.362C329.408 67.082 328.96 66.942 328.391 66.942C327.831 66.942 327.388 67.082 327.061 67.362C326.734 67.642 326.571 68.048 326.571 68.58C326.571 69.0467 326.739 69.4293 327.075 69.728C327.42 70.0173 327.859 70.162 328.391 70.162C328.923 70.162 329.362 70.0127 329.707 69.714C330.052 69.4153 330.225 69.0327 330.225 68.566ZM328.391 71.366C327.775 71.366 327.271 71.52 326.879 71.828C326.496 72.1267 326.305 72.5607 326.305 73.13C326.305 73.662 326.492 74.096 326.865 74.432C327.238 74.7587 327.747 74.922 328.391 74.922C329.026 74.922 329.525 74.754 329.889 74.418C330.262 74.082 330.449 73.6527 330.449 73.13C330.449 72.57 330.258 72.136 329.875 71.828C329.502 71.52 329.007 71.366 328.391 71.366ZM336.703 67.25V65.794H339.615V76H338.005V67.25H336.703ZM345.027 70.764C345.027 69.1493 345.298 67.8893 345.839 66.984C346.39 66.0693 347.333 65.612 348.667 65.612C350.002 65.612 350.94 66.0693 351.481 66.984C352.032 67.8893 352.307 69.1493 352.307 70.764C352.307 72.3973 352.032 73.676 351.481 74.6C350.94 75.5147 350.002 75.972 348.667 75.972C347.333 75.972 346.39 75.5147 345.839 74.6C345.298 73.676 345.027 72.3973 345.027 70.764ZM350.739 70.764C350.739 70.008 350.688 69.3687 350.585 68.846C350.492 68.3233 350.296 67.8987 349.997 67.572C349.699 67.236 349.255 67.068 348.667 67.068C348.079 67.068 347.636 67.236 347.337 67.572C347.039 67.8987 346.838 68.3233 346.735 68.846C346.642 69.3687 346.595 70.008 346.595 70.764C346.595 71.548 346.642 72.206 346.735 72.738C346.829 73.27 347.025 73.6993 347.323 74.026C347.631 74.3527 348.079 74.516 348.667 74.516C349.255 74.516 349.699 74.3527 349.997 74.026C350.305 73.6993 350.506 73.27 350.599 72.738C350.693 72.206 350.739 71.548 350.739 70.764ZM363.796 67.166H359.106V69.952C359.302 69.6907 359.592 69.4713 359.974 69.294C360.366 69.1167 360.782 69.028 361.22 69.028C362.004 69.028 362.639 69.196 363.124 69.532C363.619 69.868 363.969 70.2927 364.174 70.806C364.389 71.3193 364.496 71.8607 364.496 72.43C364.496 73.1207 364.361 73.7367 364.09 74.278C363.829 74.81 363.432 75.23 362.9 75.538C362.378 75.846 361.734 76 360.968 76C359.951 76 359.134 75.748 358.518 75.244C357.902 74.74 357.534 74.0727 357.412 73.242H358.966C359.069 73.6807 359.298 74.0307 359.652 74.292C360.007 74.544 360.45 74.67 360.982 74.67C361.645 74.67 362.14 74.4693 362.466 74.068C362.802 73.6667 362.97 73.1347 362.97 72.472C362.97 71.8 362.802 71.2867 362.466 70.932C362.13 70.568 361.636 70.386 360.982 70.386C360.525 70.386 360.138 70.5027 359.82 70.736C359.512 70.96 359.288 71.268 359.148 71.66H357.636V65.766H363.796V67.166ZM374.866 68.16C374.763 67.7307 374.576 67.4087 374.306 67.194C374.035 66.9793 373.657 66.872 373.172 66.872C372.434 66.872 371.884 67.1567 371.52 67.726C371.156 68.286 370.964 69.2193 370.946 70.526C371.188 70.1153 371.543 69.798 372.01 69.574C372.476 69.35 372.98 69.238 373.522 69.238C374.138 69.238 374.679 69.3733 375.146 69.644C375.622 69.9053 375.99 70.288 376.252 70.792C376.522 71.296 376.658 71.898 376.658 72.598C376.658 73.2513 376.527 73.8347 376.266 74.348C376.014 74.8613 375.636 75.2673 375.132 75.566C374.628 75.8553 374.021 76 373.312 76C372.35 76 371.594 75.79 371.044 75.37C370.502 74.9407 370.12 74.3387 369.896 73.564C369.681 72.7893 369.574 71.8233 369.574 70.666C369.574 67.25 370.778 65.542 373.186 65.542C374.119 65.542 374.852 65.794 375.384 66.298C375.925 66.802 376.242 67.4227 376.336 68.16H374.866ZM373.172 70.582C372.602 70.582 372.117 70.7547 371.716 71.1C371.324 71.436 371.128 71.926 371.128 72.57C371.128 73.214 371.31 73.7273 371.674 74.11C372.047 74.4833 372.565 74.67 373.228 74.67C373.816 74.67 374.278 74.488 374.614 74.124C374.959 73.76 375.132 73.2747 375.132 72.668C375.132 72.0333 374.964 71.5293 374.628 71.156C374.301 70.7733 373.816 70.582 373.172 70.582ZM185.328 89.16C185.225 88.7307 185.039 88.4087 184.768 88.194C184.497 87.9793 184.119 87.872 183.634 87.872C182.897 87.872 182.346 88.1567 181.982 88.726C181.618 89.286 181.427 90.2193 181.408 91.526C181.651 91.1153 182.005 90.798 182.472 90.574C182.939 90.35 183.443 90.238 183.984 90.238C184.6 90.238 185.141 90.3733 185.608 90.644C186.084 90.9053 186.453 91.288 186.714 91.792C186.985 92.296 187.12 92.898 187.12 93.598C187.12 94.2513 186.989 94.8347 186.728 95.348C186.476 95.8613 186.098 96.2673 185.594 96.566C185.09 96.8553 184.483 97 183.774 97C182.813 97 182.057 96.79 181.506 96.37C180.965 95.9407 180.582 95.3387 180.358 94.564C180.143 93.7893 180.036 92.8233 180.036 91.666C180.036 88.25 181.24 86.542 183.648 86.542C184.581 86.542 185.314 86.794 185.846 87.298C186.387 87.802 186.705 88.4227 186.798 89.16H185.328ZM183.634 91.582C183.065 91.582 182.579 91.7547 182.178 92.1C181.786 92.436 181.59 92.926 181.59 93.57C181.59 94.214 181.772 94.7273 182.136 95.11C182.509 95.4833 183.027 95.67 183.69 95.67C184.278 95.67 184.74 95.488 185.076 95.124C185.421 94.76 185.594 94.2747 185.594 93.668C185.594 93.0333 185.426 92.5293 185.09 92.156C184.763 91.7733 184.278 91.582 183.634 91.582ZM197.978 87.27V88.572H193.848V91.442H197.068V92.744H193.848V97H192.252V87.27H197.978ZM208.544 95.012H204.47L203.77 97H202.104L205.59 87.256H207.438L210.924 97H209.244L208.544 95.012ZM208.096 93.71L206.514 89.188L204.918 93.71H208.096ZM234.068 88.166H229.378V90.952C229.574 90.6907 229.863 90.4713 230.246 90.294C230.638 90.1167 231.053 90.028 231.492 90.028C232.276 90.028 232.91 90.196 233.396 90.532C233.89 90.868 234.24 91.2927 234.446 91.806C234.66 92.3193 234.768 92.8607 234.768 93.43C234.768 94.1207 234.632 94.7367 234.362 95.278C234.1 95.81 233.704 96.23 233.172 96.538C232.649 96.846 232.005 97 231.24 97C230.222 97 229.406 96.748 228.79 96.244C228.174 95.74 227.805 95.0727 227.684 94.242H229.238C229.34 94.6807 229.569 95.0307 229.924 95.292C230.278 95.544 230.722 95.67 231.254 95.67C231.916 95.67 232.411 95.4693 232.738 95.068C233.074 94.6667 233.242 94.1347 233.242 93.472C233.242 92.8 233.074 92.2867 232.738 91.932C232.402 91.568 231.907 91.386 231.254 91.386C230.796 91.386 230.409 91.5027 230.092 91.736C229.784 91.96 229.56 92.268 229.42 92.66H227.908V86.766H234.068V88.166ZM245.725 95.012H241.651L240.951 97H239.285L242.771 87.256H244.619L248.105 97H246.425L245.725 95.012ZM245.277 93.71L243.695 89.188L242.099 93.71H245.277ZM259.211 88.166H254.521V90.952C254.717 90.6907 255.006 90.4713 255.389 90.294C255.781 90.1167 256.196 90.028 256.635 90.028C257.419 90.028 258.053 90.196 258.539 90.532C259.033 90.868 259.383 91.2927 259.589 91.806C259.803 92.3193 259.911 92.8607 259.911 93.43C259.911 94.1207 259.775 94.7367 259.505 95.278C259.243 95.81 258.847 96.23 258.315 96.538C257.792 96.846 257.148 97 256.383 97C255.365 97 254.549 96.748 253.933 96.244C253.317 95.74 252.948 95.0727 252.827 94.242H254.381C254.483 94.6807 254.712 95.0307 255.067 95.292C255.421 95.544 255.865 95.67 256.397 95.67C257.059 95.67 257.554 95.4693 257.881 95.068C258.217 94.6667 258.385 94.1347 258.385 93.472C258.385 92.8 258.217 92.2867 257.881 91.932C257.545 91.568 257.05 91.386 256.397 91.386C255.939 91.386 255.552 91.5027 255.235 91.736C254.927 91.96 254.703 92.268 254.563 92.66H253.051V86.766H259.211V88.166ZM266.514 91.666C265.543 91.1807 265.058 90.4153 265.058 89.37C265.058 88.866 265.184 88.404 265.436 87.984C265.688 87.564 266.066 87.2327 266.57 86.99C267.074 86.738 267.69 86.612 268.418 86.612C269.137 86.612 269.748 86.738 270.252 86.99C270.765 87.2327 271.148 87.564 271.4 87.984C271.652 88.404 271.778 88.866 271.778 89.37C271.778 89.8927 271.643 90.3547 271.372 90.756C271.111 91.148 270.761 91.4513 270.322 91.666C270.854 91.862 271.274 92.184 271.582 92.632C271.89 93.0707 272.044 93.5887 272.044 94.186C272.044 94.7927 271.89 95.3293 271.582 95.796C271.274 96.2627 270.845 96.622 270.294 96.874C269.743 97.126 269.118 97.252 268.418 97.252C267.718 97.252 267.093 97.126 266.542 96.874C266.001 96.622 265.576 96.2627 265.268 95.796C264.96 95.3293 264.806 94.7927 264.806 94.186C264.806 93.5793 264.96 93.0567 265.268 92.618C265.576 92.1793 265.991 91.862 266.514 91.666ZM270.252 89.566C270.252 89.0433 270.089 88.642 269.762 88.362C269.435 88.082 268.987 87.942 268.418 87.942C267.858 87.942 267.415 88.082 267.088 88.362C266.761 88.642 266.598 89.048 266.598 89.58C266.598 90.0467 266.766 90.4293 267.102 90.728C267.447 91.0173 267.886 91.162 268.418 91.162C268.95 91.162 269.389 91.0127 269.734 90.714C270.079 90.4153 270.252 90.0327 270.252 89.566ZM268.418 92.366C267.802 92.366 267.298 92.52 266.906 92.828C266.523 93.1267 266.332 93.5607 266.332 94.13C266.332 94.662 266.519 95.096 266.892 95.432C267.265 95.7587 267.774 95.922 268.418 95.922C269.053 95.922 269.552 95.754 269.916 95.418C270.289 95.082 270.476 94.6527 270.476 94.13C270.476 93.57 270.285 93.136 269.902 92.828C269.529 92.52 269.034 92.366 268.418 92.366ZM276.912 89.314C276.968 88.446 277.299 87.7693 277.906 87.284C278.522 86.7987 279.306 86.556 280.258 86.556C280.911 86.556 281.476 86.6727 281.952 86.906C282.428 87.1393 282.787 87.4567 283.03 87.858C283.273 88.2593 283.394 88.712 283.394 89.216C283.394 89.7947 283.24 90.2893 282.932 90.7C282.624 91.1107 282.255 91.386 281.826 91.526V91.582C282.377 91.75 282.806 92.058 283.114 92.506C283.422 92.9447 283.576 93.5093 283.576 94.2C283.576 94.7507 283.45 95.2407 283.198 95.67C282.946 96.0993 282.573 96.44 282.078 96.692C281.583 96.9347 280.991 97.056 280.3 97.056C279.292 97.056 278.461 96.7993 277.808 96.286C277.164 95.7633 276.819 95.0167 276.772 94.046H278.312C278.349 94.5407 278.541 94.9467 278.886 95.264C279.231 95.572 279.698 95.726 280.286 95.726C280.855 95.726 281.294 95.572 281.602 95.264C281.91 94.9467 282.064 94.5407 282.064 94.046C282.064 93.3927 281.854 92.9307 281.434 92.66C281.023 92.38 280.389 92.24 279.53 92.24H279.166V90.924H279.544C280.3 90.9147 280.874 90.7887 281.266 90.546C281.667 90.3033 281.868 89.9207 281.868 89.398C281.868 88.95 281.723 88.5953 281.434 88.334C281.145 88.0633 280.734 87.928 280.202 87.928C279.679 87.928 279.273 88.0633 278.984 88.334C278.695 88.5953 278.522 88.922 278.466 89.314H276.912ZM299.562 88.25V86.794H302.474V97H300.864V88.25H299.562ZM309.875 94.228C309.968 94.6947 310.169 95.0493 310.477 95.292C310.785 95.5347 311.2 95.656 311.723 95.656C312.386 95.656 312.871 95.3947 313.179 94.872C313.487 94.3493 313.641 93.458 313.641 92.198C313.417 92.5153 313.1 92.7627 312.689 92.94C312.288 93.108 311.849 93.192 311.373 93.192C310.766 93.192 310.216 93.0707 309.721 92.828C309.226 92.576 308.834 92.2073 308.545 91.722C308.265 91.2273 308.125 90.63 308.125 89.93C308.125 88.9033 308.424 88.0867 309.021 87.48C309.628 86.864 310.458 86.556 311.513 86.556C312.782 86.556 313.683 86.9807 314.215 87.83C314.756 88.67 315.027 89.9627 315.027 91.708C315.027 92.912 314.924 93.8967 314.719 94.662C314.523 95.4273 314.178 96.006 313.683 96.398C313.188 96.79 312.502 96.986 311.625 96.986C310.626 96.986 309.856 96.7247 309.315 96.202C308.774 95.6793 308.47 95.0213 308.405 94.228H309.875ZM311.653 91.848C312.213 91.848 312.652 91.6753 312.969 91.33C313.296 90.9753 313.459 90.5087 313.459 89.93C313.459 89.286 313.286 88.7867 312.941 88.432C312.605 88.068 312.143 87.886 311.555 87.886C310.967 87.886 310.5 88.0727 310.155 88.446C309.819 88.81 309.651 89.2907 309.651 89.888C309.651 90.4573 309.814 90.9287 310.141 91.302C310.477 91.666 310.981 91.848 311.653 91.848ZM319.994 91.764C319.994 90.1493 320.264 88.8893 320.806 87.984C321.356 87.0693 322.299 86.612 323.634 86.612C324.968 86.612 325.906 87.0693 326.448 87.984C326.998 88.8893 327.274 90.1493 327.274 91.764C327.274 93.3973 326.998 94.676 326.448 95.6C325.906 96.5147 324.968 96.972 323.634 96.972C322.299 96.972 321.356 96.5147 320.806 95.6C320.264 94.676 319.994 93.3973 319.994 91.764ZM325.706 91.764C325.706 91.008 325.654 90.3687 325.552 89.846C325.458 89.3233 325.262 88.8987 324.964 88.572C324.665 88.236 324.222 88.068 323.634 88.068C323.046 88.068 322.602 88.236 322.304 88.572C322.005 88.8987 321.804 89.3233 321.702 89.846C321.608 90.3687 321.562 91.008 321.562 91.764C321.562 92.548 321.608 93.206 321.702 93.738C321.795 94.27 321.991 94.6993 322.29 95.026C322.598 95.3527 323.046 95.516 323.634 95.516C324.222 95.516 324.665 95.3527 324.964 95.026C325.272 94.6993 325.472 94.27 325.566 93.738C325.659 93.206 325.706 92.548 325.706 91.764ZM338.762 88.166H334.072V90.952C334.268 90.6907 334.558 90.4713 334.94 90.294C335.332 90.1167 335.748 90.028 336.186 90.028C336.97 90.028 337.605 90.196 338.09 90.532C338.585 90.868 338.935 91.2927 339.14 91.806C339.355 92.3193 339.462 92.8607 339.462 93.43C339.462 94.1207 339.327 94.7367 339.056 95.278C338.795 95.81 338.398 96.23 337.866 96.538C337.344 96.846 336.7 97 335.934 97C334.917 97 334.1 96.748 333.484 96.244C332.868 95.74 332.5 95.0727 332.378 94.242H333.932C334.035 94.6807 334.264 95.0307 334.618 95.292C334.973 95.544 335.416 95.67 335.948 95.67C336.611 95.67 337.106 95.4693 337.432 95.068C337.768 94.6667 337.936 94.1347 337.936 93.472C337.936 92.8 337.768 92.2867 337.432 91.932C337.096 91.568 336.602 91.386 335.948 91.386C335.491 91.386 335.104 91.5027 334.786 91.736C334.478 91.96 334.254 92.268 334.114 92.66H332.602V86.766H338.762V88.166ZM344.148 94.872V93.668L348.852 86.92H350.784V93.486H352.086V94.872H350.784V97H349.216V94.872H344.148ZM349.286 88.544L345.982 93.486H349.286V88.544ZM370.637 88.558V91.414H373.997V92.716H370.637V95.698H374.417V97H369.041V87.256H374.417V88.558H370.637ZM179.644 115.872V114.668L184.348 107.92H186.28V114.486H187.582V115.872H186.28V118H184.712V115.872H179.644ZM184.782 109.544L181.478 114.486H184.782V109.544ZM197.542 113.002C198.065 113.095 198.508 113.371 198.872 113.828C199.236 114.285 199.418 114.803 199.418 115.382C199.418 115.877 199.288 116.325 199.026 116.726C198.774 117.118 198.406 117.431 197.92 117.664C197.435 117.888 196.87 118 196.226 118H192.334V108.27H196.044C196.707 108.27 197.276 108.382 197.752 108.606C198.228 108.83 198.588 109.133 198.83 109.516C199.073 109.889 199.194 110.309 199.194 110.776C199.194 111.336 199.045 111.803 198.746 112.176C198.448 112.549 198.046 112.825 197.542 113.002ZM193.93 112.358H195.904C196.427 112.358 196.833 112.241 197.122 112.008C197.421 111.765 197.57 111.42 197.57 110.972C197.57 110.533 197.421 110.193 197.122 109.95C196.833 109.698 196.427 109.572 195.904 109.572H193.93V112.358ZM196.086 116.698C196.628 116.698 197.052 116.567 197.36 116.306C197.668 116.045 197.822 115.681 197.822 115.214C197.822 114.738 197.659 114.36 197.332 114.08C197.006 113.8 196.572 113.66 196.03 113.66H193.93V116.698H196.086ZM203.967 115.872V114.668L208.671 107.92H210.603V114.486H211.905V115.872H210.603V118H209.035V115.872H203.967ZM209.105 109.544L205.801 114.486H209.105V109.544ZM218.435 115.228C218.529 115.695 218.729 116.049 219.037 116.292C219.345 116.535 219.761 116.656 220.283 116.656C220.946 116.656 221.431 116.395 221.739 115.872C222.047 115.349 222.201 114.458 222.201 113.198C221.977 113.515 221.66 113.763 221.249 113.94C220.848 114.108 220.409 114.192 219.933 114.192C219.327 114.192 218.776 114.071 218.281 113.828C217.787 113.576 217.395 113.207 217.105 112.722C216.825 112.227 216.685 111.63 216.685 110.93C216.685 109.903 216.984 109.087 217.581 108.48C218.188 107.864 219.019 107.556 220.073 107.556C221.343 107.556 222.243 107.981 222.775 108.83C223.317 109.67 223.587 110.963 223.587 112.708C223.587 113.912 223.485 114.897 223.279 115.662C223.083 116.427 222.738 117.006 222.243 117.398C221.749 117.79 221.063 117.986 220.185 117.986C219.187 117.986 218.417 117.725 217.875 117.202C217.334 116.679 217.031 116.021 216.965 115.228H218.435ZM220.213 112.848C220.773 112.848 221.212 112.675 221.529 112.33C221.856 111.975 222.019 111.509 222.019 110.93C222.019 110.286 221.847 109.787 221.501 109.432C221.165 109.068 220.703 108.886 220.115 108.886C219.527 108.886 219.061 109.073 218.715 109.446C218.379 109.81 218.211 110.291 218.211 110.888C218.211 111.457 218.375 111.929 218.701 112.302C219.037 112.666 219.541 112.848 220.213 112.848ZM235.022 109.026L231.13 118H229.52L233.454 109.194H228.274V107.836H235.022V109.026ZM239.58 110.314C239.636 109.446 239.967 108.769 240.574 108.284C241.19 107.799 241.974 107.556 242.926 107.556C243.579 107.556 244.144 107.673 244.62 107.906C245.096 108.139 245.455 108.457 245.698 108.858C245.941 109.259 246.062 109.712 246.062 110.216C246.062 110.795 245.908 111.289 245.6 111.7C245.292 112.111 244.923 112.386 244.494 112.526V112.582C245.045 112.75 245.474 113.058 245.782 113.506C246.09 113.945 246.244 114.509 246.244 115.2C246.244 115.751 246.118 116.241 245.866 116.67C245.614 117.099 245.241 117.44 244.746 117.692C244.251 117.935 243.659 118.056 242.968 118.056C241.96 118.056 241.129 117.799 240.476 117.286C239.832 116.763 239.487 116.017 239.44 115.046H240.98C241.017 115.541 241.209 115.947 241.554 116.264C241.899 116.572 242.366 116.726 242.954 116.726C243.523 116.726 243.962 116.572 244.27 116.264C244.578 115.947 244.732 115.541 244.732 115.046C244.732 114.393 244.522 113.931 244.102 113.66C243.691 113.38 243.057 113.24 242.198 113.24H241.834V111.924H242.212C242.968 111.915 243.542 111.789 243.934 111.546C244.335 111.303 244.536 110.921 244.536 110.398C244.536 109.95 244.391 109.595 244.102 109.334C243.813 109.063 243.402 108.928 242.87 108.928C242.347 108.928 241.941 109.063 241.652 109.334C241.363 109.595 241.19 109.922 241.134 110.314H239.58ZM250.944 115.872V114.668L255.648 107.92H257.58V114.486H258.882V115.872H257.58V118H256.012V115.872H250.944ZM256.082 109.544L252.778 114.486H256.082V109.544ZM265.413 115.228C265.506 115.695 265.707 116.049 266.015 116.292C266.323 116.535 266.738 116.656 267.261 116.656C267.924 116.656 268.409 116.395 268.717 115.872C269.025 115.349 269.179 114.458 269.179 113.198C268.955 113.515 268.638 113.763 268.227 113.94C267.826 114.108 267.387 114.192 266.911 114.192C266.304 114.192 265.754 114.071 265.259 113.828C264.764 113.576 264.372 113.207 264.083 112.722C263.803 112.227 263.663 111.63 263.663 110.93C263.663 109.903 263.962 109.087 264.559 108.48C265.166 107.864 265.996 107.556 267.051 107.556C268.32 107.556 269.221 107.981 269.753 108.83C270.294 109.67 270.565 110.963 270.565 112.708C270.565 113.912 270.462 114.897 270.257 115.662C270.061 116.427 269.716 117.006 269.221 117.398C268.726 117.79 268.04 117.986 267.163 117.986C266.164 117.986 265.394 117.725 264.853 117.202C264.312 116.679 264.008 116.021 263.943 115.228H265.413ZM267.191 112.848C267.751 112.848 268.19 112.675 268.507 112.33C268.834 111.975 268.997 111.509 268.997 110.93C268.997 110.286 268.824 109.787 268.479 109.432C268.143 109.068 267.681 108.886 267.093 108.886C266.505 108.886 266.038 109.073 265.693 109.446C265.357 109.81 265.189 110.291 265.189 110.888C265.189 111.457 265.352 111.929 265.679 112.302C266.015 112.666 266.519 112.848 267.191 112.848ZM275.322 109.25V107.794H278.234V118H276.624V109.25H275.322ZM289.064 113.002C289.587 113.095 290.03 113.371 290.394 113.828C290.758 114.285 290.94 114.803 290.94 115.382C290.94 115.877 290.81 116.325 290.548 116.726C290.296 117.118 289.928 117.431 289.442 117.664C288.957 117.888 288.392 118 287.748 118H283.856V108.27H287.566C288.229 108.27 288.798 108.382 289.274 108.606C289.75 108.83 290.11 109.133 290.352 109.516C290.595 109.889 290.716 110.309 290.716 110.776C290.716 111.336 290.567 111.803 290.268 112.176C289.97 112.549 289.568 112.825 289.064 113.002ZM285.452 112.358H287.426C287.949 112.358 288.355 112.241 288.644 112.008C288.943 111.765 289.092 111.42 289.092 110.972C289.092 110.533 288.943 110.193 288.644 109.95C288.355 109.698 287.949 109.572 287.426 109.572H285.452V112.358ZM287.608 116.698C288.15 116.698 288.574 116.567 288.882 116.306C289.19 116.045 289.344 115.681 289.344 115.214C289.344 114.738 289.181 114.36 288.854 114.08C288.528 113.8 288.094 113.66 287.552 113.66H285.452V116.698H287.608ZM301.103 113.002C301.625 113.095 302.069 113.371 302.433 113.828C302.797 114.285 302.979 114.803 302.979 115.382C302.979 115.877 302.848 116.325 302.587 116.726C302.335 117.118 301.966 117.431 301.481 117.664C300.995 117.888 300.431 118 299.787 118H295.895V108.27H299.605C300.267 108.27 300.837 108.382 301.313 108.606C301.789 108.83 302.148 109.133 302.391 109.516C302.633 109.889 302.755 110.309 302.755 110.776C302.755 111.336 302.605 111.803 302.307 112.176C302.008 112.549 301.607 112.825 301.103 113.002ZM297.491 112.358H299.465C299.987 112.358 300.393 112.241 300.683 112.008C300.981 111.765 301.131 111.42 301.131 110.972C301.131 110.533 300.981 110.193 300.683 109.95C300.393 109.698 299.987 109.572 299.465 109.572H297.491V112.358ZM299.647 116.698C300.188 116.698 300.613 116.567 300.921 116.306C301.229 116.045 301.383 115.681 301.383 115.214C301.383 114.738 301.219 114.36 300.893 114.08C300.566 113.8 300.132 113.66 299.591 113.66H297.491V116.698H299.647ZM316.719 115.83C317.615 115.055 318.32 114.421 318.833 113.926C319.356 113.422 319.79 112.899 320.135 112.358C320.481 111.817 320.653 111.275 320.653 110.734C320.653 110.174 320.518 109.735 320.247 109.418C319.986 109.101 319.571 108.942 319.001 108.942C318.451 108.942 318.021 109.119 317.713 109.474C317.415 109.819 317.256 110.286 317.237 110.874H315.697C315.725 109.81 316.043 108.998 316.649 108.438C317.265 107.869 318.045 107.584 318.987 107.584C320.005 107.584 320.798 107.864 321.367 108.424C321.946 108.984 322.235 109.731 322.235 110.664C322.235 111.336 322.063 111.985 321.717 112.61C321.381 113.226 320.975 113.781 320.499 114.276C320.033 114.761 319.435 115.326 318.707 115.97L318.077 116.53H322.515V117.86H315.711V116.698L316.719 115.83ZM326.816 113.114C326.816 112.162 327.035 111.308 327.474 110.552C327.922 109.796 328.524 109.208 329.28 108.788C330.045 108.359 330.88 108.144 331.786 108.144C332.822 108.144 333.741 108.401 334.544 108.914C335.356 109.418 335.944 110.137 336.308 111.07H334.39C334.138 110.557 333.788 110.174 333.34 109.922C332.892 109.67 332.374 109.544 331.786 109.544C331.142 109.544 330.568 109.689 330.064 109.978C329.56 110.267 329.163 110.683 328.874 111.224C328.594 111.765 328.454 112.395 328.454 113.114C328.454 113.833 328.594 114.463 328.874 115.004C329.163 115.545 329.56 115.965 330.064 116.264C330.568 116.553 331.142 116.698 331.786 116.698C332.374 116.698 332.892 116.572 333.34 116.32C333.788 116.068 334.138 115.685 334.39 115.172H336.308C335.944 116.105 335.356 116.824 334.544 117.328C333.741 117.832 332.822 118.084 331.786 118.084C330.871 118.084 330.036 117.874 329.28 117.454C328.524 117.025 327.922 116.432 327.474 115.676C327.035 114.92 326.816 114.066 326.816 113.114ZM341.186 112.764C341.186 111.149 341.456 109.889 341.998 108.984C342.548 108.069 343.491 107.612 344.826 107.612C346.16 107.612 347.098 108.069 347.64 108.984C348.19 109.889 348.466 111.149 348.466 112.764C348.466 114.397 348.19 115.676 347.64 116.6C347.098 117.515 346.16 117.972 344.826 117.972C343.491 117.972 342.548 117.515 341.998 116.6C341.456 115.676 341.186 114.397 341.186 112.764ZM346.898 112.764C346.898 112.008 346.846 111.369 346.744 110.846C346.65 110.323 346.454 109.899 346.156 109.572C345.857 109.236 345.414 109.068 344.826 109.068C344.238 109.068 343.794 109.236 343.496 109.572C343.197 109.899 342.996 110.323 342.894 110.846C342.8 111.369 342.754 112.008 342.754 112.764C342.754 113.548 342.8 114.206 342.894 114.738C342.987 115.27 343.183 115.699 343.482 116.026C343.79 116.353 344.238 116.516 344.826 116.516C345.414 116.516 345.857 116.353 346.156 116.026C346.464 115.699 346.664 115.27 346.758 114.738C346.851 114.206 346.898 113.548 346.898 112.764ZM353.052 113.114C353.052 112.162 353.272 111.308 353.71 110.552C354.158 109.796 354.76 109.208 355.516 108.788C356.282 108.359 357.117 108.144 358.022 108.144C359.058 108.144 359.978 108.401 360.78 108.914C361.592 109.418 362.18 110.137 362.544 111.07H360.626C360.374 110.557 360.024 110.174 359.576 109.922C359.128 109.67 358.61 109.544 358.022 109.544C357.378 109.544 356.804 109.689 356.3 109.978C355.796 110.267 355.4 110.683 355.11 111.224C354.83 111.765 354.69 112.395 354.69 113.114C354.69 113.833 354.83 114.463 355.11 115.004C355.4 115.545 355.796 115.965 356.3 116.264C356.804 116.553 357.378 116.698 358.022 116.698C358.61 116.698 359.128 116.572 359.576 116.32C360.024 116.068 360.374 115.685 360.626 115.172H362.544C362.18 116.105 361.592 116.824 360.78 117.328C359.978 117.832 359.058 118.084 358.022 118.084C357.108 118.084 356.272 117.874 355.516 117.454C354.76 117.025 354.158 116.432 353.71 115.676C353.272 114.92 353.052 114.066 353.052 113.114ZM374.003 109.166H369.313V111.952C369.509 111.691 369.798 111.471 370.181 111.294C370.573 111.117 370.988 111.028 371.427 111.028C372.211 111.028 372.845 111.196 373.331 111.532C373.825 111.868 374.175 112.293 374.381 112.806C374.595 113.319 374.703 113.861 374.703 114.43C374.703 115.121 374.567 115.737 374.297 116.278C374.035 116.81 373.639 117.23 373.107 117.538C372.584 117.846 371.94 118 371.175 118C370.157 118 369.341 117.748 368.725 117.244C368.109 116.74 367.74 116.073 367.619 115.242H369.173C369.275 115.681 369.504 116.031 369.859 116.292C370.213 116.544 370.657 116.67 371.189 116.67C371.851 116.67 372.346 116.469 372.673 116.068C373.009 115.667 373.177 115.135 373.177 114.472C373.177 113.8 373.009 113.287 372.673 112.932C372.337 112.568 371.842 112.386 371.189 112.386C370.731 112.386 370.344 112.503 370.027 112.736C369.719 112.96 369.495 113.268 369.355 113.66H367.843V107.766H374.003V109.166ZM183.228 129.27C184.264 129.27 185.169 129.471 185.944 129.872C186.728 130.264 187.33 130.833 187.75 131.58C188.179 132.317 188.394 133.181 188.394 134.17C188.394 135.159 188.179 136.018 187.75 136.746C187.33 137.474 186.728 138.034 185.944 138.426C185.169 138.809 184.264 139 183.228 139H180.05V129.27H183.228ZM183.228 137.698C184.367 137.698 185.239 137.39 185.846 136.774C186.453 136.158 186.756 135.29 186.756 134.17C186.756 133.041 186.453 132.159 185.846 131.524C185.239 130.889 184.367 130.572 183.228 130.572H181.646V137.698H183.228ZM192.79 136.872V135.668L197.494 128.92H199.426V135.486H200.728V136.872H199.426V139H197.858V136.872H192.79ZM197.928 130.544L194.624 135.486H197.928V130.544ZM207.258 136.228C207.352 136.695 207.552 137.049 207.86 137.292C208.168 137.535 208.584 137.656 209.106 137.656C209.769 137.656 210.254 137.395 210.562 136.872C210.87 136.349 211.024 135.458 211.024 134.198C210.8 134.515 210.483 134.763 210.072 134.94C209.671 135.108 209.232 135.192 208.756 135.192C208.15 135.192 207.599 135.071 207.104 134.828C206.61 134.576 206.218 134.207 205.928 133.722C205.648 133.227 205.508 132.63 205.508 131.93C205.508 130.903 205.807 130.087 206.404 129.48C207.011 128.864 207.842 128.556 208.896 128.556C210.166 128.556 211.066 128.981 211.598 129.83C212.14 130.67 212.41 131.963 212.41 133.708C212.41 134.912 212.308 135.897 212.102 136.662C211.906 137.427 211.561 138.006 211.066 138.398C210.572 138.79 209.886 138.986 209.008 138.986C208.01 138.986 207.24 138.725 206.698 138.202C206.157 137.679 205.854 137.021 205.788 136.228H207.258ZM209.036 133.848C209.596 133.848 210.035 133.675 210.352 133.33C210.679 132.975 210.842 132.509 210.842 131.93C210.842 131.286 210.67 130.787 210.324 130.432C209.988 130.068 209.526 129.886 208.938 129.886C208.35 129.886 207.884 130.073 207.538 130.446C207.202 130.81 207.034 131.291 207.034 131.888C207.034 132.457 207.198 132.929 207.524 133.302C207.86 133.666 208.364 133.848 209.036 133.848ZM217.349 131.314C217.405 130.446 217.736 129.769 218.343 129.284C218.959 128.799 219.743 128.556 220.695 128.556C221.348 128.556 221.913 128.673 222.389 128.906C222.865 129.139 223.224 129.457 223.467 129.858C223.71 130.259 223.831 130.712 223.831 131.216C223.831 131.795 223.677 132.289 223.369 132.7C223.061 133.111 222.692 133.386 222.263 133.526V133.582C222.814 133.75 223.243 134.058 223.551 134.506C223.859 134.945 224.013 135.509 224.013 136.2C224.013 136.751 223.887 137.241 223.635 137.67C223.383 138.099 223.01 138.44 222.515 138.692C222.02 138.935 221.428 139.056 220.737 139.056C219.729 139.056 218.898 138.799 218.245 138.286C217.601 137.763 217.256 137.017 217.209 136.046H218.749C218.786 136.541 218.978 136.947 219.323 137.264C219.668 137.572 220.135 137.726 220.723 137.726C221.292 137.726 221.731 137.572 222.039 137.264C222.347 136.947 222.501 136.541 222.501 136.046C222.501 135.393 222.291 134.931 221.871 134.66C221.46 134.38 220.826 134.24 219.967 134.24H219.603V132.924H219.981C220.737 132.915 221.311 132.789 221.703 132.546C222.104 132.303 222.305 131.921 222.305 131.398C222.305 130.95 222.16 130.595 221.871 130.334C221.582 130.063 221.171 129.928 220.639 129.928C220.116 129.928 219.71 130.063 219.421 130.334C219.132 130.595 218.959 130.922 218.903 131.314H217.349ZM234.985 137.012H230.911L230.211 139H228.545L232.031 129.256H233.879L237.365 139H235.685L234.985 137.012ZM234.537 135.71L232.955 131.188L231.359 135.71H234.537ZM247.827 129.27V130.572H243.697V133.442H246.917V134.744H243.697V139H242.101V129.27H247.827ZM265.387 136.83C266.283 136.055 266.988 135.421 267.501 134.926C268.024 134.422 268.458 133.899 268.803 133.358C269.148 132.817 269.321 132.275 269.321 131.734C269.321 131.174 269.186 130.735 268.915 130.418C268.654 130.101 268.238 129.942 267.669 129.942C267.118 129.942 266.689 130.119 266.381 130.474C266.082 130.819 265.924 131.286 265.905 131.874H264.365C264.393 130.81 264.71 129.998 265.317 129.438C265.933 128.869 266.712 128.584 267.655 128.584C268.672 128.584 269.466 128.864 270.035 129.424C270.614 129.984 270.903 130.731 270.903 131.664C270.903 132.336 270.73 132.985 270.385 133.61C270.049 134.226 269.643 134.781 269.167 135.276C268.7 135.761 268.103 136.326 267.375 136.97L266.745 137.53H271.183V138.86H264.379V137.698L265.387 136.83ZM282.385 130.166H277.695V132.952C277.891 132.691 278.18 132.471 278.563 132.294C278.955 132.117 279.37 132.028 279.809 132.028C280.593 132.028 281.228 132.196 281.713 132.532C282.208 132.868 282.558 133.293 282.763 133.806C282.978 134.319 283.085 134.861 283.085 135.43C283.085 136.121 282.95 136.737 282.679 137.278C282.418 137.81 282.021 138.23 281.489 138.538C280.966 138.846 280.322 139 279.557 139C278.54 139 277.723 138.748 277.107 138.244C276.491 137.74 276.122 137.073 276.001 136.242H277.555C277.658 136.681 277.886 137.031 278.241 137.292C278.596 137.544 279.039 137.67 279.571 137.67C280.234 137.67 280.728 137.469 281.055 137.068C281.391 136.667 281.559 136.135 281.559 135.472C281.559 134.8 281.391 134.287 281.055 133.932C280.719 133.568 280.224 133.386 279.571 133.386C279.114 133.386 278.726 133.503 278.409 133.736C278.101 133.96 277.877 134.268 277.737 134.66H276.225V128.766H282.385V130.166ZM288.848 136.83C289.744 136.055 290.449 135.421 290.962 134.926C291.485 134.422 291.919 133.899 292.264 133.358C292.61 132.817 292.782 132.275 292.782 131.734C292.782 131.174 292.647 130.735 292.376 130.418C292.115 130.101 291.7 129.942 291.13 129.942C290.58 129.942 290.15 130.119 289.842 130.474C289.544 130.819 289.385 131.286 289.366 131.874H287.826C287.854 130.81 288.172 129.998 288.778 129.438C289.394 128.869 290.174 128.584 291.116 128.584C292.134 128.584 292.927 128.864 293.496 129.424C294.075 129.984 294.364 130.731 294.364 131.664C294.364 132.336 294.192 132.985 293.846 133.61C293.51 134.226 293.104 134.781 292.628 135.276C292.162 135.761 291.564 136.326 290.836 136.97L290.206 137.53H294.644V138.86H287.84V137.698L288.848 136.83ZM304.685 134.002C305.207 134.095 305.651 134.371 306.015 134.828C306.379 135.285 306.561 135.803 306.561 136.382C306.561 136.877 306.43 137.325 306.169 137.726C305.917 138.118 305.548 138.431 305.063 138.664C304.577 138.888 304.013 139 303.369 139H299.477V129.27H303.187C303.849 129.27 304.419 129.382 304.895 129.606C305.371 129.83 305.73 130.133 305.973 130.516C306.215 130.889 306.337 131.309 306.337 131.776C306.337 132.336 306.187 132.803 305.889 133.176C305.59 133.549 305.189 133.825 304.685 134.002ZM301.073 133.358H303.047C303.569 133.358 303.975 133.241 304.265 133.008C304.563 132.765 304.713 132.42 304.713 131.972C304.713 131.533 304.563 131.193 304.265 130.95C303.975 130.698 303.569 130.572 303.047 130.572H301.073V133.358ZM303.229 137.698C303.77 137.698 304.195 137.567 304.503 137.306C304.811 137.045 304.965 136.681 304.965 136.214C304.965 135.738 304.801 135.36 304.475 135.08C304.148 134.8 303.714 134.66 303.173 134.66H301.073V137.698H303.229ZM312.187 136.83C313.083 136.055 313.788 135.421 314.301 134.926C314.824 134.422 315.258 133.899 315.603 133.358C315.948 132.817 316.121 132.275 316.121 131.734C316.121 131.174 315.986 130.735 315.715 130.418C315.454 130.101 315.038 129.942 314.469 129.942C313.918 129.942 313.489 130.119 313.181 130.474C312.882 130.819 312.724 131.286 312.705 131.874H311.165C311.193 130.81 311.51 129.998 312.117 129.438C312.733 128.869 313.512 128.584 314.455 128.584C315.472 128.584 316.266 128.864 316.835 129.424C317.414 129.984 317.703 130.731 317.703 131.664C317.703 132.336 317.53 132.985 317.185 133.61C316.849 134.226 316.443 134.781 315.967 135.276C315.5 135.761 314.903 136.326 314.175 136.97L313.545 137.53H317.983V138.86H311.179V137.698L312.187 136.83ZM324.593 136.228C324.686 136.695 324.887 137.049 325.195 137.292C325.503 137.535 325.918 137.656 326.441 137.656C327.104 137.656 327.589 137.395 327.897 136.872C328.205 136.349 328.359 135.458 328.359 134.198C328.135 134.515 327.818 134.763 327.407 134.94C327.006 135.108 326.567 135.192 326.091 135.192C325.484 135.192 324.934 135.071 324.439 134.828C323.944 134.576 323.552 134.207 323.263 133.722C322.983 133.227 322.843 132.63 322.843 131.93C322.843 130.903 323.142 130.087 323.739 129.48C324.346 128.864 325.176 128.556 326.231 128.556C327.5 128.556 328.401 128.981 328.933 129.83C329.474 130.67 329.745 131.963 329.745 133.708C329.745 134.912 329.642 135.897 329.437 136.662C329.241 137.427 328.896 138.006 328.401 138.398C327.906 138.79 327.22 138.986 326.343 138.986C325.344 138.986 324.574 138.725 324.033 138.202C323.492 137.679 323.188 137.021 323.123 136.228H324.593ZM326.371 133.848C326.931 133.848 327.37 133.675 327.687 133.33C328.014 132.975 328.177 132.509 328.177 131.93C328.177 131.286 328.004 130.787 327.659 130.432C327.323 130.068 326.861 129.886 326.273 129.886C325.685 129.886 325.218 130.073 324.873 130.446C324.537 130.81 324.369 131.291 324.369 131.888C324.369 132.457 324.532 132.929 324.859 133.302C325.195 133.666 325.699 133.848 326.371 133.848ZM335.594 136.83C336.49 136.055 337.194 135.421 337.708 134.926C338.23 134.422 338.664 133.899 339.01 133.358C339.355 132.817 339.528 132.275 339.528 131.734C339.528 131.174 339.392 130.735 339.122 130.418C338.86 130.101 338.445 129.942 337.876 129.942C337.325 129.942 336.896 130.119 336.588 130.474C336.289 130.819 336.13 131.286 336.112 131.874H334.572C334.6 130.81 334.917 129.998 335.524 129.438C336.14 128.869 336.919 128.584 337.862 128.584C338.879 128.584 339.672 128.864 340.242 129.424C340.82 129.984 341.11 130.731 341.11 131.664C341.11 132.336 340.937 132.985 340.592 133.61C340.256 134.226 339.85 134.781 339.374 135.276C338.907 135.761 338.31 136.326 337.582 136.97L336.952 137.53H341.39V138.86H334.586V137.698L335.594 136.83ZM362.65 137.012H358.576L357.876 139H356.21L359.696 129.256H361.544L365.03 139H363.35L362.65 137.012ZM362.202 135.71L360.62 131.188L359.024 135.71H362.202ZM369.527 131.314C369.583 130.446 369.915 129.769 370.521 129.284C371.137 128.799 371.921 128.556 372.873 128.556C373.527 128.556 374.091 128.673 374.567 128.906C375.043 129.139 375.403 129.457 375.645 129.858C375.888 130.259 376.009 130.712 376.009 131.216C376.009 131.795 375.855 132.289 375.547 132.7C375.239 133.111 374.871 133.386 374.441 133.526V133.582C374.992 133.75 375.421 134.058 375.729 134.506C376.037 134.945 376.191 135.509 376.191 136.2C376.191 136.751 376.065 137.241 375.813 137.67C375.561 138.099 375.188 138.44 374.693 138.692C374.199 138.935 373.606 139.056 372.915 139.056C371.907 139.056 371.077 138.799 370.423 138.286C369.779 137.763 369.434 137.017 369.387 136.046H370.927C370.965 136.541 371.156 136.947 371.501 137.264C371.847 137.572 372.313 137.726 372.901 137.726C373.471 137.726 373.909 137.572 374.217 137.264C374.525 136.947 374.679 136.541 374.679 136.046C374.679 135.393 374.469 134.931 374.049 134.66C373.639 134.38 373.004 134.24 372.145 134.24H371.781V132.924H372.159C372.915 132.915 373.489 132.789 373.881 132.546C374.283 132.303 374.483 131.921 374.483 131.398C374.483 130.95 374.339 130.595 374.049 130.334C373.76 130.063 373.349 129.928 372.817 129.928C372.295 129.928 371.889 130.063 371.599 130.334C371.31 130.595 371.137 130.922 371.081 131.314H369.527ZM179.84 154.764C179.84 153.149 180.111 151.889 180.652 150.984C181.203 150.069 182.145 149.612 183.48 149.612C184.815 149.612 185.753 150.069 186.294 150.984C186.845 151.889 187.12 153.149 187.12 154.764C187.12 156.397 186.845 157.676 186.294 158.6C185.753 159.515 184.815 159.972 183.48 159.972C182.145 159.972 181.203 159.515 180.652 158.6C180.111 157.676 179.84 156.397 179.84 154.764ZM185.552 154.764C185.552 154.008 185.501 153.369 185.398 152.846C185.305 152.323 185.109 151.899 184.81 151.572C184.511 151.236 184.068 151.068 183.48 151.068C182.892 151.068 182.449 151.236 182.15 151.572C181.851 151.899 181.651 152.323 181.548 152.846C181.455 153.369 181.408 154.008 181.408 154.764C181.408 155.548 181.455 156.206 181.548 156.738C181.641 157.27 181.837 157.699 182.136 158.026C182.444 158.353 182.892 158.516 183.48 158.516C184.068 158.516 184.511 158.353 184.81 158.026C185.118 157.699 185.319 157.27 185.412 156.738C185.505 156.206 185.552 155.548 185.552 154.764ZM197.447 155.002C197.969 155.095 198.413 155.371 198.777 155.828C199.141 156.285 199.323 156.803 199.323 157.382C199.323 157.877 199.192 158.325 198.931 158.726C198.679 159.118 198.31 159.431 197.825 159.664C197.339 159.888 196.775 160 196.131 160H192.239V150.27H195.949C196.611 150.27 197.181 150.382 197.657 150.606C198.133 150.83 198.492 151.133 198.735 151.516C198.977 151.889 199.099 152.309 199.099 152.776C199.099 153.336 198.949 153.803 198.651 154.176C198.352 154.549 197.951 154.825 197.447 155.002ZM193.835 154.358H195.809C196.331 154.358 196.737 154.241 197.027 154.008C197.325 153.765 197.475 153.42 197.475 152.972C197.475 152.533 197.325 152.193 197.027 151.95C196.737 151.698 196.331 151.572 195.809 151.572H193.835V154.358ZM195.991 158.698C196.532 158.698 196.957 158.567 197.265 158.306C197.573 158.045 197.727 157.681 197.727 157.214C197.727 156.738 197.563 156.36 197.237 156.08C196.91 155.8 196.476 155.66 195.935 155.66H193.835V158.698H195.991ZM205.873 151.558V154.414H209.233V155.716H205.873V158.698H209.653V160H204.277V150.256H209.653V151.558H205.873ZM214.629 154.764C214.629 153.149 214.9 151.889 215.441 150.984C215.992 150.069 216.934 149.612 218.269 149.612C219.604 149.612 220.542 150.069 221.083 150.984C221.634 151.889 221.909 153.149 221.909 154.764C221.909 156.397 221.634 157.676 221.083 158.6C220.542 159.515 219.604 159.972 218.269 159.972C216.934 159.972 215.992 159.515 215.441 158.6C214.9 157.676 214.629 156.397 214.629 154.764ZM220.341 154.764C220.341 154.008 220.29 153.369 220.187 152.846C220.094 152.323 219.898 151.899 219.599 151.572C219.3 151.236 218.857 151.068 218.269 151.068C217.681 151.068 217.238 151.236 216.939 151.572C216.64 151.899 216.44 152.323 216.337 152.846C216.244 153.369 216.197 154.008 216.197 154.764C216.197 155.548 216.244 156.206 216.337 156.738C216.43 157.27 216.626 157.699 216.925 158.026C217.233 158.353 217.681 158.516 218.269 158.516C218.857 158.516 219.3 158.353 219.599 158.026C219.907 157.699 220.108 157.27 220.201 156.738C220.294 156.206 220.341 155.548 220.341 154.764ZM238.979 154.764C238.979 153.149 239.25 151.889 239.791 150.984C240.342 150.069 241.284 149.612 242.619 149.612C243.954 149.612 244.892 150.069 245.433 150.984C245.984 151.889 246.259 153.149 246.259 154.764C246.259 156.397 245.984 157.676 245.433 158.6C244.892 159.515 243.954 159.972 242.619 159.972C241.284 159.972 240.342 159.515 239.791 158.6C239.25 157.676 238.979 156.397 238.979 154.764ZM244.691 154.764C244.691 154.008 244.64 153.369 244.537 152.846C244.444 152.323 244.248 151.899 243.949 151.572C243.65 151.236 243.207 151.068 242.619 151.068C242.031 151.068 241.588 151.236 241.289 151.572C240.99 151.899 240.79 152.323 240.687 152.846C240.594 153.369 240.547 154.008 240.547 154.764C240.547 155.548 240.594 156.206 240.687 156.738C240.78 157.27 240.976 157.699 241.275 158.026C241.583 158.353 242.031 158.516 242.619 158.516C243.207 158.516 243.65 158.353 243.949 158.026C244.257 157.699 244.458 157.27 244.551 156.738C244.644 156.206 244.691 155.548 244.691 154.764ZM257.104 150.27V151.572H252.974V154.442H256.194V155.744H252.974V160H251.378V150.27H257.104ZM261.397 157.872V156.668L266.101 149.92H268.033V156.486H269.335V157.872H268.033V160H266.465V157.872H261.397ZM266.535 151.544L263.231 156.486H266.535V151.544ZM273.667 151.25V149.794H276.579V160H274.969V151.25H273.667ZM283.798 151.558V154.414H287.158V155.716H283.798V158.698H287.578V160H282.202V150.256H287.578V151.558H283.798ZM299.134 151.166H294.444V153.952C294.64 153.691 294.929 153.471 295.312 153.294C295.704 153.117 296.119 153.028 296.558 153.028C297.342 153.028 297.976 153.196 298.462 153.532C298.956 153.868 299.306 154.293 299.512 154.806C299.726 155.319 299.834 155.861 299.834 156.43C299.834 157.121 299.698 157.737 299.428 158.278C299.166 158.81 298.77 159.23 298.238 159.538C297.715 159.846 297.071 160 296.306 160C295.288 160 294.472 159.748 293.856 159.244C293.24 158.74 292.871 158.073 292.75 157.242H294.304C294.406 157.681 294.635 158.031 294.99 158.292C295.344 158.544 295.788 158.67 296.32 158.67C296.982 158.67 297.477 158.469 297.804 158.068C298.14 157.667 298.308 157.135 298.308 156.472C298.308 155.8 298.14 155.287 297.804 154.932C297.468 154.568 296.973 154.386 296.32 154.386C295.862 154.386 295.475 154.503 295.158 154.736C294.85 154.96 294.626 155.268 294.486 155.66H292.974V149.766H299.134V151.166ZM311.295 151.166H306.605V153.952C306.801 153.691 307.09 153.471 307.473 153.294C307.865 153.117 308.28 153.028 308.719 153.028C309.503 153.028 310.138 153.196 310.623 153.532C311.118 153.868 311.468 154.293 311.673 154.806C311.888 155.319 311.995 155.861 311.995 156.43C311.995 157.121 311.86 157.737 311.589 158.278C311.328 158.81 310.931 159.23 310.399 159.538C309.876 159.846 309.232 160 308.467 160C307.45 160 306.633 159.748 306.017 159.244C305.401 158.74 305.032 158.073 304.911 157.242H306.465C306.568 157.681 306.796 158.031 307.151 158.292C307.506 158.544 307.949 158.67 308.481 158.67C309.144 158.67 309.638 158.469 309.965 158.068C310.301 157.667 310.469 157.135 310.469 156.472C310.469 155.8 310.301 155.287 309.965 154.932C309.629 154.568 309.134 154.386 308.481 154.386C308.024 154.386 307.636 154.503 307.319 154.736C307.011 154.96 306.787 155.268 306.647 155.66H305.135V149.766H311.295V151.166ZM322.812 150.27V151.572H318.682V154.442H321.902V155.744H318.682V160H317.086V150.27H322.812ZM333.238 150.27V151.572H329.108V154.442H332.328V155.744H329.108V160H327.512V150.27H333.238ZM351.68 151.558V154.414H355.04V155.716H351.68V158.698H355.46V160H350.084V150.256H355.46V151.558H351.68ZM365.854 155.002C366.377 155.095 366.82 155.371 367.184 155.828C367.548 156.285 367.73 156.803 367.73 157.382C367.73 157.877 367.6 158.325 367.338 158.726C367.086 159.118 366.718 159.431 366.232 159.664C365.747 159.888 365.182 160 364.538 160H360.646V150.27H364.356C365.019 150.27 365.588 150.382 366.064 150.606C366.54 150.83 366.9 151.133 367.142 151.516C367.385 151.889 367.506 152.309 367.506 152.776C367.506 153.336 367.357 153.803 367.058 154.176C366.76 154.549 366.358 154.825 365.854 155.002ZM362.242 154.358H364.216C364.739 154.358 365.145 154.241 365.434 154.008C365.733 153.765 365.882 153.42 365.882 152.972C365.882 152.533 365.733 152.193 365.434 151.95C365.145 151.698 364.739 151.572 364.216 151.572H362.242V154.358ZM364.398 158.698C364.94 158.698 365.364 158.567 365.672 158.306C365.98 158.045 366.134 157.681 366.134 157.214C366.134 156.738 365.971 156.36 365.644 156.08C365.318 155.8 364.884 155.66 364.342 155.66H362.242V158.698H364.398ZM185.328 173.16C185.225 172.731 185.039 172.409 184.768 172.194C184.497 171.979 184.119 171.872 183.634 171.872C182.897 171.872 182.346 172.157 181.982 172.726C181.618 173.286 181.427 174.219 181.408 175.526C181.651 175.115 182.005 174.798 182.472 174.574C182.939 174.35 183.443 174.238 183.984 174.238C184.6 174.238 185.141 174.373 185.608 174.644C186.084 174.905 186.453 175.288 186.714 175.792C186.985 176.296 187.12 176.898 187.12 177.598C187.12 178.251 186.989 178.835 186.728 179.348C186.476 179.861 186.098 180.267 185.594 180.566C185.09 180.855 184.483 181 183.774 181C182.813 181 182.057 180.79 181.506 180.37C180.965 179.941 180.582 179.339 180.358 178.564C180.143 177.789 180.036 176.823 180.036 175.666C180.036 172.25 181.24 170.542 183.648 170.542C184.581 170.542 185.314 170.794 185.846 171.298C186.387 171.802 186.705 172.423 186.798 173.16H185.328ZM183.634 175.582C183.065 175.582 182.579 175.755 182.178 176.1C181.786 176.436 181.59 176.926 181.59 177.57C181.59 178.214 181.772 178.727 182.136 179.11C182.509 179.483 183.027 179.67 183.69 179.67C184.278 179.67 184.74 179.488 185.076 179.124C185.421 178.76 185.594 178.275 185.594 177.668C185.594 177.033 185.426 176.529 185.09 176.156C184.763 175.773 184.278 175.582 183.634 175.582ZM207.633 171.27C208.669 171.27 209.574 171.471 210.349 171.872C211.133 172.264 211.735 172.833 212.155 173.58C212.584 174.317 212.799 175.181 212.799 176.17C212.799 177.159 212.584 178.018 212.155 178.746C211.735 179.474 211.133 180.034 210.349 180.426C209.574 180.809 208.669 181 207.633 181H204.455V171.27H207.633ZM207.633 179.698C208.772 179.698 209.644 179.39 210.251 178.774C210.858 178.158 211.161 177.29 211.161 176.17C211.161 175.041 210.858 174.159 210.251 173.524C209.644 172.889 208.772 172.572 207.633 172.572H206.051V179.698H207.633ZM223.859 172.026L219.967 181H218.357L222.291 172.194H217.111V170.836H223.859V172.026ZM228.417 173.314C228.473 172.446 228.804 171.769 229.411 171.284C230.027 170.799 230.811 170.556 231.763 170.556C232.416 170.556 232.981 170.673 233.457 170.906C233.933 171.139 234.292 171.457 234.535 171.858C234.777 172.259 234.899 172.712 234.899 173.216C234.899 173.795 234.745 174.289 234.437 174.7C234.129 175.111 233.76 175.386 233.331 175.526V175.582C233.881 175.75 234.311 176.058 234.619 176.506C234.927 176.945 235.081 177.509 235.081 178.2C235.081 178.751 234.955 179.241 234.703 179.67C234.451 180.099 234.077 180.44 233.583 180.692C233.088 180.935 232.495 181.056 231.805 181.056C230.797 181.056 229.966 180.799 229.313 180.286C228.669 179.763 228.323 179.017 228.277 178.046H229.817C229.854 178.541 230.045 178.947 230.391 179.264C230.736 179.572 231.203 179.726 231.791 179.726C232.36 179.726 232.799 179.572 233.107 179.264C233.415 178.947 233.569 178.541 233.569 178.046C233.569 177.393 233.359 176.931 232.939 176.66C232.528 176.38 231.893 176.24 231.035 176.24H230.671V174.924H231.049C231.805 174.915 232.379 174.789 232.771 174.546C233.172 174.303 233.373 173.921 233.373 173.398C233.373 172.95 233.228 172.595 232.939 172.334C232.649 172.063 232.239 171.928 231.707 171.928C231.184 171.928 230.778 172.063 230.489 172.334C230.199 172.595 230.027 172.922 229.971 173.314H228.417ZM246.445 172.026L242.553 181H240.943L244.877 172.194H239.697V170.836H246.445V172.026ZM257.499 172.026L253.607 181H251.997L255.931 172.194H250.751V170.836H257.499V172.026ZM267.503 176.002C268.026 176.095 268.469 176.371 268.833 176.828C269.197 177.285 269.379 177.803 269.379 178.382C269.379 178.877 269.248 179.325 268.987 179.726C268.735 180.118 268.366 180.431 267.881 180.664C267.396 180.888 266.831 181 266.187 181H262.295V171.27H266.005C266.668 171.27 267.237 171.382 267.713 171.606C268.189 171.83 268.548 172.133 268.791 172.516C269.034 172.889 269.155 173.309 269.155 173.776C269.155 174.336 269.006 174.803 268.707 175.176C268.408 175.549 268.007 175.825 267.503 176.002ZM263.891 175.358H265.865C266.388 175.358 266.794 175.241 267.083 175.008C267.382 174.765 267.531 174.42 267.531 173.972C267.531 173.533 267.382 173.193 267.083 172.95C266.794 172.698 266.388 172.572 265.865 172.572H263.891V175.358ZM266.047 179.698C266.588 179.698 267.013 179.567 267.321 179.306C267.629 179.045 267.783 178.681 267.783 178.214C267.783 177.738 267.62 177.36 267.293 177.08C266.966 176.8 266.532 176.66 265.991 176.66H263.891V179.698H266.047ZM280.199 179.012H276.125L275.425 181H273.759L277.245 171.256H279.093L282.579 181H280.899L280.199 179.012ZM279.751 177.71L278.169 173.188L276.573 177.71H279.751Z" fill="#736F8E"/>
<path d="M239.111 31.872V30.668L243.815 23.92H245.747V30.486H247.049V31.872H245.747V34H244.179V31.872H239.111ZM244.249 25.544L240.945 30.486H244.249V25.544ZM312.011 25.558V28.414H315.371V29.716H312.011V32.698H315.791V34H310.415V24.256H315.791V25.558H312.011ZM348.863 28.764C348.863 27.1493 349.133 25.8893 349.675 24.984C350.225 24.0693 351.168 23.612 352.503 23.612C353.837 23.612 354.775 24.0693 355.317 24.984C355.867 25.8893 356.143 27.1493 356.143 28.764C356.143 30.3973 355.867 31.676 355.317 32.6C354.775 33.5147 353.837 33.972 352.503 33.972C351.168 33.972 350.225 33.5147 349.675 32.6C349.133 31.676 348.863 30.3973 348.863 28.764ZM354.575 28.764C354.575 28.008 354.523 27.3687 354.421 26.846C354.327 26.3233 354.131 25.8987 353.833 25.572C353.534 25.236 353.091 25.068 352.503 25.068C351.915 25.068 351.471 25.236 351.173 25.572C350.874 25.8987 350.673 26.3233 350.571 26.846C350.477 27.3687 350.431 28.008 350.431 28.764C350.431 29.548 350.477 30.206 350.571 30.738C350.664 31.27 350.86 31.6993 351.159 32.026C351.467 32.3527 351.915 32.516 352.503 32.516C353.091 32.516 353.534 32.3527 353.833 32.026C354.141 31.6993 354.341 31.27 354.435 30.738C354.528 30.206 354.575 29.548 354.575 28.764ZM262.975 46.558V49.414H266.335V50.716H262.975V53.698H266.755V55H261.379V45.256H266.755V46.558H262.975ZM181.646 67.558V70.414H185.006V71.716H181.646V74.698H185.426V76H180.05V66.256H185.426V67.558H181.646ZM300.291 70.666C299.321 70.1807 298.835 69.4153 298.835 68.37C298.835 67.866 298.961 67.404 299.213 66.984C299.465 66.564 299.843 66.2327 300.347 65.99C300.851 65.738 301.467 65.612 302.195 65.612C302.914 65.612 303.525 65.738 304.029 65.99C304.543 66.2327 304.925 66.564 305.177 66.984C305.429 67.404 305.555 67.866 305.555 68.37C305.555 68.8927 305.42 69.3547 305.149 69.756C304.888 70.148 304.538 70.4513 304.099 70.666C304.631 70.862 305.051 71.184 305.359 71.632C305.667 72.0707 305.821 72.5887 305.821 73.186C305.821 73.7927 305.667 74.3293 305.359 74.796C305.051 75.2627 304.622 75.622 304.071 75.874C303.521 76.126 302.895 76.252 302.195 76.252C301.495 76.252 300.87 76.126 300.319 75.874C299.778 75.622 299.353 75.2627 299.045 74.796C298.737 74.3293 298.583 73.7927 298.583 73.186C298.583 72.5793 298.737 72.0567 299.045 71.618C299.353 71.1793 299.769 70.862 300.291 70.666ZM304.029 68.566C304.029 68.0433 303.866 67.642 303.539 67.362C303.213 67.082 302.765 66.942 302.195 66.942C301.635 66.942 301.192 67.082 300.865 67.362C300.539 67.642 300.375 68.048 300.375 68.58C300.375 69.0467 300.543 69.4293 300.879 69.728C301.225 70.0173 301.663 70.162 302.195 70.162C302.727 70.162 303.166 70.0127 303.511 69.714C303.857 69.4153 304.029 69.0327 304.029 68.566ZM302.195 71.366C301.579 71.366 301.075 71.52 300.683 71.828C300.301 72.1267 300.109 72.5607 300.109 73.13C300.109 73.662 300.296 74.096 300.669 74.432C301.043 74.7587 301.551 74.922 302.195 74.922C302.83 74.922 303.329 74.754 303.693 74.418C304.067 74.082 304.253 73.6527 304.253 73.13C304.253 72.57 304.062 72.136 303.679 71.828C303.306 71.52 302.811 71.366 302.195 71.366ZM220.867 92.002C221.39 92.0953 221.833 92.3707 222.197 92.828C222.561 93.2853 222.743 93.8033 222.743 94.382C222.743 94.8767 222.613 95.3247 222.351 95.726C222.099 96.118 221.731 96.4307 221.245 96.664C220.76 96.888 220.195 97 219.551 97H215.659V87.27H219.369C220.032 87.27 220.601 87.382 221.077 87.606C221.553 87.83 221.913 88.1333 222.155 88.516C222.398 88.8893 222.519 89.3093 222.519 89.776C222.519 90.336 222.37 90.8027 222.071 91.176C221.773 91.5493 221.371 91.8247 220.867 92.002ZM217.255 91.358H219.229C219.752 91.358 220.158 91.2413 220.447 91.008C220.746 90.7653 220.895 90.42 220.895 89.972C220.895 89.5333 220.746 89.1927 220.447 88.95C220.158 88.698 219.752 88.572 219.229 88.572H217.255V91.358ZM219.411 95.698C219.953 95.698 220.377 95.5673 220.685 95.306C220.993 95.0447 221.147 94.6807 221.147 94.214C221.147 93.738 220.984 93.36 220.657 93.08C220.331 92.8 219.897 92.66 219.355 92.66H217.255V95.698H219.411ZM289.354 94.83C290.25 94.0553 290.955 93.4207 291.468 92.926C291.991 92.422 292.425 91.8993 292.77 91.358C293.116 90.8167 293.288 90.2753 293.288 89.734C293.288 89.174 293.153 88.7353 292.882 88.418C292.621 88.1007 292.206 87.942 291.636 87.942C291.086 87.942 290.656 88.1193 290.348 88.474C290.05 88.8193 289.891 89.286 289.872 89.874H288.332C288.36 88.81 288.678 87.998 289.284 87.438C289.9 86.8687 290.68 86.584 291.622 86.584C292.64 86.584 293.433 86.864 294.002 87.424C294.581 87.984 294.87 88.7307 294.87 89.664C294.87 90.336 294.698 90.9847 294.352 91.61C294.016 92.226 293.61 92.7813 293.134 93.276C292.668 93.7613 292.07 94.326 291.342 94.97L290.712 95.53H295.15V96.86H288.346V95.698L289.354 94.83ZM362.116 89.16C362.014 88.7307 361.827 88.4087 361.556 88.194C361.286 87.9793 360.908 87.872 360.422 87.872C359.685 87.872 359.134 88.1567 358.77 88.726C358.406 89.286 358.215 90.2193 358.196 91.526C358.439 91.1153 358.794 90.798 359.26 90.574C359.727 90.35 360.231 90.238 360.772 90.238C361.388 90.238 361.93 90.3733 362.396 90.644C362.872 90.9053 363.241 91.288 363.502 91.792C363.773 92.296 363.908 92.898 363.908 93.598C363.908 94.2513 363.778 94.8347 363.516 95.348C363.264 95.8613 362.886 96.2673 362.382 96.566C361.878 96.8553 361.272 97 360.562 97C359.601 97 358.845 96.79 358.294 96.37C357.753 95.9407 357.37 95.3387 357.146 94.564C356.932 93.7893 356.824 92.8233 356.824 91.666C356.824 88.25 358.028 86.542 360.436 86.542C361.37 86.542 362.102 86.794 362.634 87.298C363.176 87.802 363.493 88.4227 363.586 89.16H362.116ZM360.422 91.582C359.853 91.582 359.368 91.7547 358.966 92.1C358.574 92.436 358.378 92.926 358.378 93.57C358.378 94.214 358.56 94.7273 358.924 95.11C359.298 95.4833 359.816 95.67 360.478 95.67C361.066 95.67 361.528 95.488 361.864 95.124C362.21 94.76 362.382 94.2747 362.382 93.668C362.382 93.0333 362.214 92.5293 361.878 92.156C361.552 91.7733 361.066 91.582 360.422 91.582ZM307.513 109.25V107.794H310.425V118H308.815V109.25H307.513ZM252.316 133.764C252.316 132.149 252.587 130.889 253.128 129.984C253.679 129.069 254.622 128.612 255.956 128.612C257.291 128.612 258.229 129.069 258.77 129.984C259.321 130.889 259.596 132.149 259.596 133.764C259.596 135.397 259.321 136.676 258.77 137.6C258.229 138.515 257.291 138.972 255.956 138.972C254.622 138.972 253.679 138.515 253.128 137.6C252.587 136.676 252.316 135.397 252.316 133.764ZM258.028 133.764C258.028 133.008 257.977 132.369 257.874 131.846C257.781 131.323 257.585 130.899 257.286 130.572C256.988 130.236 256.544 130.068 255.956 130.068C255.368 130.068 254.925 130.236 254.626 130.572C254.328 130.899 254.127 131.323 254.024 131.846C253.931 132.369 253.884 133.008 253.884 133.764C253.884 134.548 253.931 135.206 254.024 135.738C254.118 136.27 254.314 136.699 254.612 137.026C254.92 137.353 255.368 137.516 255.956 137.516C256.544 137.516 256.988 137.353 257.286 137.026C257.594 136.699 257.795 136.27 257.888 135.738C257.982 135.206 258.028 134.548 258.028 133.764ZM347.818 130.558V133.414H351.178V134.716H347.818V137.698H351.598V139H346.222V129.256H351.598V130.558H347.818ZM233.398 151.166H228.708V153.952C228.904 153.691 229.193 153.471 229.576 153.294C229.968 153.117 230.383 153.028 230.822 153.028C231.606 153.028 232.24 153.196 232.726 153.532C233.22 153.868 233.57 154.293 233.776 154.806C233.99 155.319 234.098 155.861 234.098 156.43C234.098 157.121 233.962 157.737 233.692 158.278C233.43 158.81 233.034 159.23 232.502 159.538C231.979 159.846 231.335 160 230.57 160C229.552 160 228.736 159.748 228.12 159.244C227.504 158.74 227.135 158.073 227.014 157.242H228.568C228.67 157.681 228.899 158.031 229.254 158.292C229.608 158.544 230.052 158.67 230.584 158.67C231.246 158.67 231.741 158.469 232.068 158.068C232.404 157.667 232.572 157.135 232.572 156.472C232.572 155.8 232.404 155.287 232.068 154.932C231.732 154.568 231.237 154.386 230.584 154.386C230.126 154.386 229.739 154.503 229.422 154.736C229.114 154.96 228.89 155.268 228.75 155.66H227.238V149.766H233.398V151.166ZM339.449 154.666C338.478 154.181 337.993 153.415 337.993 152.37C337.993 151.866 338.119 151.404 338.371 150.984C338.623 150.564 339.001 150.233 339.505 149.99C340.009 149.738 340.625 149.612 341.353 149.612C342.071 149.612 342.683 149.738 343.187 149.99C343.7 150.233 344.083 150.564 344.335 150.984C344.587 151.404 344.713 151.866 344.713 152.37C344.713 152.893 344.577 153.355 344.307 153.756C344.045 154.148 343.695 154.451 343.257 154.666C343.789 154.862 344.209 155.184 344.517 155.632C344.825 156.071 344.979 156.589 344.979 157.186C344.979 157.793 344.825 158.329 344.517 158.796C344.209 159.263 343.779 159.622 343.229 159.874C342.678 160.126 342.053 160.252 341.353 160.252C340.653 160.252 340.027 160.126 339.477 159.874C338.935 159.622 338.511 159.263 338.203 158.796C337.895 158.329 337.741 157.793 337.741 157.186C337.741 156.579 337.895 156.057 338.203 155.618C338.511 155.179 338.926 154.862 339.449 154.666ZM343.187 152.566C343.187 152.043 343.023 151.642 342.697 151.362C342.37 151.082 341.922 150.942 341.353 150.942C340.793 150.942 340.349 151.082 340.023 151.362C339.696 151.642 339.533 152.048 339.533 152.58C339.533 153.047 339.701 153.429 340.037 153.728C340.382 154.017 340.821 154.162 341.353 154.162C341.885 154.162 342.323 154.013 342.669 153.714C343.014 153.415 343.187 153.033 343.187 152.566ZM341.353 155.366C340.737 155.366 340.233 155.52 339.841 155.828C339.458 156.127 339.267 156.561 339.267 157.13C339.267 157.662 339.453 158.096 339.827 158.432C340.2 158.759 340.709 158.922 341.353 158.922C341.987 158.922 342.487 158.754 342.851 158.418C343.224 158.082 343.411 157.653 343.411 157.13C343.411 156.57 343.219 156.136 342.837 155.828C342.463 155.52 341.969 155.366 341.353 155.366ZM197.53 173.16C197.428 172.731 197.241 172.409 196.97 172.194C196.7 171.979 196.322 171.872 195.836 171.872C195.099 171.872 194.548 172.157 194.184 172.726C193.82 173.286 193.629 174.219 193.61 175.526C193.853 175.115 194.208 174.798 194.674 174.574C195.141 174.35 195.645 174.238 196.186 174.238C196.802 174.238 197.344 174.373 197.81 174.644C198.286 174.905 198.655 175.288 198.916 175.792C199.187 176.296 199.322 176.898 199.322 177.598C199.322 178.251 199.192 178.835 198.93 179.348C198.678 179.861 198.3 180.267 197.796 180.566C197.292 180.855 196.686 181 195.976 181C195.015 181 194.259 180.79 193.708 180.37C193.167 179.941 192.784 179.339 192.56 178.564C192.346 177.789 192.238 176.823 192.238 175.666C192.238 172.25 193.442 170.542 195.85 170.542C196.784 170.542 197.516 170.794 198.048 171.298C198.59 171.802 198.907 172.423 199 173.16H197.53ZM195.836 175.582C195.267 175.582 194.782 175.755 194.38 176.1C193.988 176.436 193.792 176.926 193.792 177.57C193.792 178.214 193.974 178.727 194.338 179.11C194.712 179.483 195.23 179.67 195.892 179.67C196.48 179.67 196.942 179.488 197.278 179.124C197.624 178.76 197.796 178.275 197.796 177.668C197.796 177.033 197.628 176.529 197.292 176.156C196.966 175.773 196.48 175.582 195.836 175.582Z" fill="white"/>
<path d="M2.25433 39.6421H127.252C128.356 39.6421 129.252 40.5375 129.252 41.6421V138.217C129.252 139.322 128.356 140.217 127.252 140.217H2.25433" stroke="url(#paint0_linear_19_50)" stroke-width="3" stroke-linecap="round"/>
<path d="M6.20099 91.0681L41.0353 91.0681" stroke="url(#paint1_linear_19_50)" stroke-width="3" stroke-linecap="round"/>
<path d="M4.81128 112.091H30.3813" stroke="url(#paint2_linear_19_50)" stroke-width="3" stroke-linecap="round"/>
<path d="M48.3941 91.0681H126.753" stroke="url(#paint3_linear_19_50)" stroke-width="3" stroke-linecap="round"/>
<path d="M10.7216 58.0469L61.9564 58.0469" stroke="url(#paint4_linear_19_50)" stroke-width="3" stroke-linecap="round"/>
<path d="M70.998 58.0469L128.26 58.0469" stroke="url(#paint5_linear_19_50)" stroke-width="3" stroke-linecap="round"/>
<path d="M39.7571 111.739L76.4074 111.739" stroke="url(#paint6_linear_19_50)" stroke-width="3" stroke-linecap="round"/>
<path d="M84.7487 111.739L126.133 111.739" stroke="url(#paint7_linear_19_50)" stroke-width="3" stroke-linecap="round"/>
<rect x="173" width="133" height="197" fill="url(#paint8_linear_19_50)"/>
<path d="M172.926 28.2245L219.24 55.2005C220.624 56.0066 221.475 57.4875 221.475 59.089V113.133C221.475 114.734 220.624 116.215 219.24 117.021L172.926 143.997C171.527 144.813 169.797 144.813 168.397 143.997L122.083 117.021C120.699 116.215 119.848 114.734 119.848 113.133V59.089C119.848 57.4874 120.699 56.0066 122.083 55.2005L168.397 28.2245C169.797 27.4092 171.527 27.4092 172.926 28.2245Z" fill="#0D0C15" stroke="url(#paint9_radial_19_50)" stroke-width="3"/>
<path d="M166.459 96.0526V96.1538L166.53 96.2266L168.887 98.6595L166.53 101.093L166.361 101.266L166.53 101.44L168.885 103.871L166.526 106.306L166.455 106.379L166.455 106.481L166.457 109.09L166.457 109.191L166.528 109.264L170.317 113.174L170.496 113.359L170.676 113.174L174.465 109.264L174.535 109.191L174.535 109.09L174.537 86.3691C176.356 85.7415 178.071 84.6908 179.519 83.1963C184.494 78.0617 184.494 69.7389 179.519 64.6043C174.539 59.4652 166.462 59.4652 161.482 64.6043C156.507 69.7389 156.505 78.0639 161.48 83.1986C162.928 84.6927 164.641 85.7458 166.459 86.3695L166.459 96.0526ZM168.152 71.1171C166.852 69.775 166.85 67.5954 168.152 66.2512C169.448 64.9137 171.544 64.9134 172.843 66.2534C174.145 67.5979 174.145 69.7752 172.845 71.1171C171.546 72.457 169.45 72.457 168.152 71.1171Z" fill="url(#paint10_radial_19_50)" stroke="url(#paint11_radial_19_50)" stroke-width="0.5"/>
<defs>
<linearGradient id="paint0_linear_19_50" x1="-4.54911" y1="55.6213" x2="130.764" y2="55.6213" gradientUnits="userSpaceOnUse">
<stop offset="0.0730854" stop-color="#B3C0FF" stop-opacity="0"/>
<stop offset="0.53087" stop-color="#B3C0FF"/>
<stop offset="0.8" stop-color="#9466FF"/>
<stop offset="1" stop-color="#334ED5"/>
</linearGradient>
<linearGradient id="paint1_linear_19_50" x1="-0.337905" y1="5.82296e+10" x2="136.252" y2="5.82296e+10" gradientUnits="userSpaceOnUse">
<stop offset="0.0730854" stop-color="#B3C0FF" stop-opacity="0"/>
<stop offset="0.53087" stop-color="#B3C0FF"/>
<stop offset="0.8" stop-color="#9466FF"/>
<stop offset="1" stop-color="#334ED5"/>
</linearGradient>
<linearGradient id="paint2_linear_19_50" x1="-0.878742" y1="112.249" x2="117.979" y2="112.249" gradientUnits="userSpaceOnUse">
<stop offset="0.0730854" stop-color="#B3C0FF" stop-opacity="0"/>
<stop offset="0.261582" stop-color="#B3C0FF"/>
<stop offset="0.35" stop-color="#9466FF"/>
<stop offset="1" stop-color="#334ED5"/>
</linearGradient>
<linearGradient id="paint3_linear_19_50" x1="30.9571" y1="91.227" x2="113.285" y2="91.2263" gradientUnits="userSpaceOnUse">
<stop offset="0.0730854" stop-color="#B3C0FF" stop-opacity="0"/>
<stop offset="0.53087" stop-color="#B3C0FF"/>
<stop offset="0.8" stop-color="#9466FF"/>
<stop offset="1" stop-color="#334ED5"/>
</linearGradient>
<linearGradient id="paint4_linear_19_50" x1="-0.67953" y1="58.2058" x2="237.478" y2="58.2045" gradientUnits="userSpaceOnUse">
<stop offset="0.0730854" stop-color="#B3C0FF" stop-opacity="0"/>
<stop offset="0.25" stop-color="#B3C0FF"/>
<stop offset="0.8" stop-color="#9466FF"/>
<stop offset="1" stop-color="#334ED5"/>
</linearGradient>
<linearGradient id="paint5_linear_19_50" x1="58.2555" y1="58.2058" x2="118.418" y2="58.2054" gradientUnits="userSpaceOnUse">
<stop offset="0.0730854" stop-color="#B3C0FF" stop-opacity="0"/>
<stop offset="0.53087" stop-color="#B3C0FF"/>
<stop offset="0.8" stop-color="#9466FF"/>
<stop offset="1" stop-color="#334ED5"/>
</linearGradient>
<linearGradient id="paint6_linear_19_50" x1="-34.8541" y1="329552" x2="110.115" y2="329552" gradientUnits="userSpaceOnUse">
<stop offset="0.0730854" stop-color="#B3C0FF" stop-opacity="0"/>
<stop offset="0.53087" stop-color="#B3C0FF"/>
<stop offset="0.8" stop-color="#9466FF"/>
<stop offset="1" stop-color="#334ED5"/>
</linearGradient>
<linearGradient id="paint7_linear_19_50" x1="29.2562" y1="111.898" x2="119.02" y2="111.897" gradientUnits="userSpaceOnUse">
<stop offset="0.0730854" stop-color="#B3C0FF" stop-opacity="0"/>
<stop offset="0.53087" stop-color="#B3C0FF"/>
<stop offset="0.8" stop-color="#9466FF"/>
<stop offset="1" stop-color="#334ED5"/>
</linearGradient>
<linearGradient id="paint8_linear_19_50" x1="164.187" y1="107.572" x2="342.855" y2="107.572" gradientUnits="userSpaceOnUse">
<stop offset="0.4" stop-color="#0D0C15"/>
<stop offset="0.822007" stop-color="#0D0C15" stop-opacity="0"/>
</linearGradient>
<radialGradient id="paint9_radial_19_50" cx="0" cy="0" r="1" gradientUnits="userSpaceOnUse" gradientTransform="translate(128.172 31.8833) rotate(60.0077) scale(141.324 140.706)">
<stop offset="0.00868034" stop-color="#B3C0FF"/>
<stop offset="0.47743" stop-color="#9466FF"/>
<stop offset="1" stop-color="#334ED5"/>
</radialGradient>
<radialGradient id="paint10_radial_19_50" cx="0" cy="0" r="1" gradientUnits="userSpaceOnUse" gradientTransform="translate(161.708 63.8644) rotate(74.3609) scale(54.2279 32.3735)">
<stop offset="0.00868034" stop-color="#B3C0FF"/>
<stop offset="0.47743" stop-color="#9466FF"/>
<stop offset="1" stop-color="#334ED5"/>
</radialGradient>
<radialGradient id="paint11_radial_19_50" cx="0" cy="0" r="1" gradientUnits="userSpaceOnUse" gradientTransform="translate(156.661 61) rotate(78.9418) scale(58.1875 34.6362)">
<stop offset="0.00868034" stop-color="#B3C0FF"/>
<stop offset="0.350441" stop-color="#9466FF"/>
<stop offset="0.800038" stop-color="#350F8C" stop-opacity="0.83"/>
<stop offset="1" stop-color="#334ED5"/>
</radialGradient>
</defs>
</svg>
