<svg width="288" height="277" viewBox="0 0 288 277" fill="none" xmlns="http://www.w3.org/2000/svg">
<path fill-rule="evenodd" clip-rule="evenodd" d="M191.547 197.764C203.083 203.152 208.834 215.613 204.945 230.124C199.736 249.567 179.194 265.329 159.065 265.329C147.332 265.329 138.329 259.973 133.891 251.655L14.4651 122.298L74.5751 67.8994L192.075 197.095L191.547 197.764Z" fill="url(#paint0_radial_1_193)" fill-opacity="0.5"/>
<circle cx="36.4468" cy="36.4468" r="35.9468" transform="matrix(1 0 -0.258819 0.965926 22.3528 65.4514)" fill="#0D0C15" stroke="url(#paint1_radial_1_193)"/>
<path d="M23.6735 101.856L24.8941 97.3008H45.9405L46.8681 99.5786L44.7199 101.856H23.6735Z" fill="white" stroke="#CACACA" stroke-width="0.5"/>
<path d="M50.7105 99.525L50.8402 99.3898L50.7818 99.2553L44.9802 85.9099H52.0225L57.5819 99.5751L43.3892 114.3H36.5332L50.7105 99.525Z" fill="white" stroke="#CACACA" stroke-width="0.5"/>
<path d="M64.5049 85.9099H71.5473L60.8508 96.9054L58.827 91.8789L64.5049 85.9099Z" fill="white" stroke="#CACACA" stroke-width="0.5"/>
<path d="M56.9022 114.283L63.9447 114.283L59.1405 103.288L54.4231 108.314L56.9022 114.283Z" fill="white" stroke="#CACACA" stroke-width="0.5"/>
<circle cx="36.4468" cy="36.4468" r="35.9468" transform="matrix(1 0 -0.258819 0.965926 19.089 61.6438)" fill="#0D0C15" stroke="url(#paint2_radial_1_193)"/>
<path d="M20.4098 98.0485L21.6305 93.4929H42.6769L43.6045 95.7707L41.4562 98.0485H20.4098Z" fill="white" stroke="#CACACA" stroke-width="0.5"/>
<path d="M47.4468 95.7169L47.5765 95.5817L47.518 95.4472L41.7164 82.1018H48.7588L54.3182 95.767L40.1255 110.492H33.2695L47.4468 95.7169Z" fill="white" stroke="#CACACA" stroke-width="0.5"/>
<path d="M61.2411 82.1018H68.2836L57.587 93.0973L55.5632 88.0708L61.2411 82.1018Z" fill="white" stroke="#CACACA" stroke-width="0.5"/>
<path d="M53.6386 110.475L60.681 110.475L55.8769 99.4799L51.1594 104.506L53.6386 110.475Z" fill="white" stroke="#CACACA" stroke-width="0.5"/>
<path fill-rule="evenodd" clip-rule="evenodd" d="M258.361 136.442C269.897 141.83 275.647 154.291 271.759 168.802C266.549 188.245 246.008 204.007 225.879 204.007C214.146 204.007 205.142 198.651 200.705 190.333L81.2788 60.9758L141.389 6.57764L258.889 135.773L258.361 136.442Z" fill="url(#paint3_radial_1_193)" fill-opacity="0.5"/>
<circle cx="36.4468" cy="36.4468" r="35.9468" transform="matrix(1 0 -0.258819 0.965926 89.1665 4.12964)" fill="#0D0C15" stroke="url(#paint4_radial_1_193)"/>
<path d="M90.4872 40.5345L91.7079 35.979H112.754L113.682 38.2568L111.534 40.5345H90.4872Z" fill="white" stroke="#CACACA" stroke-width="0.5"/>
<path d="M117.524 38.2027L117.654 38.0675L117.596 37.933L111.794 24.5877H118.836L124.396 38.2528L110.203 52.9777H103.347L117.524 38.2027Z" fill="white" stroke="#CACACA" stroke-width="0.5"/>
<path d="M131.319 24.5877H138.361L127.665 35.5831L125.641 30.5567L131.319 24.5877Z" fill="white" stroke="#CACACA" stroke-width="0.5"/>
<path d="M123.716 52.9614L130.758 52.9614L125.954 41.9659L121.237 46.9924L123.716 52.9614Z" fill="white" stroke="#CACACA" stroke-width="0.5"/>
<circle cx="36.4468" cy="36.4468" r="35.9468" transform="matrix(1 0 -0.258819 0.965926 85.9027 0.321777)" fill="#0D0C15" stroke="url(#paint5_radial_1_193)"/>
<path d="M87.2235 36.7267L88.4441 32.1712H109.491L110.418 34.4489L108.27 36.7267H87.2235Z" fill="white" stroke="#CACACA" stroke-width="0.5"/>
<path d="M114.26 34.3951L114.39 34.2599L114.332 34.1254L108.53 20.7801H115.572L121.132 34.4452L106.939 49.1701H100.083L114.26 34.3951Z" fill="white" stroke="#CACACA" stroke-width="0.5"/>
<path d="M128.055 20.7801H135.097L124.401 31.7755L122.377 26.7491L128.055 20.7801Z" fill="white" stroke="#CACACA" stroke-width="0.5"/>
<path d="M120.452 49.1533L127.495 49.1533L122.69 38.1578L117.973 43.1843L120.452 49.1533Z" fill="white" stroke="#CACACA" stroke-width="0.5"/>
<path fill-rule="evenodd" clip-rule="evenodd" d="M273.005 208.748C284.541 214.135 290.291 226.596 286.403 241.107C281.193 260.55 260.652 276.312 240.523 276.312C228.79 276.312 219.786 270.957 215.349 262.638L95.9231 133.281L156.033 78.8828L273.533 208.079L273.005 208.748Z" fill="url(#paint6_radial_1_193)" fill-opacity="0.5"/>
<circle cx="36.4468" cy="36.4468" r="35.9468" transform="matrix(1 0 -0.258819 0.965926 103.811 76.4348)" fill="#0D0C15" stroke="url(#paint7_radial_1_193)"/>
<path d="M105.131 112.84L106.352 108.284H127.399L128.326 110.562L126.178 112.84H105.131Z" fill="white" stroke="#CACACA" stroke-width="0.5"/>
<path d="M132.169 110.508L132.298 110.373L132.24 110.238L126.438 96.8931H133.481L139.04 110.558L124.847 125.283H117.991L132.169 110.508Z" fill="white" stroke="#CACACA" stroke-width="0.5"/>
<path d="M145.963 96.8931H153.005L142.309 107.889L140.285 102.862L145.963 96.8931Z" fill="white" stroke="#CACACA" stroke-width="0.5"/>
<path d="M138.36 125.267L145.403 125.267L140.599 114.271L135.881 119.298L138.36 125.267Z" fill="white" stroke="#CACACA" stroke-width="0.5"/>
<circle cx="36.4468" cy="36.4468" r="35.9468" transform="matrix(1 0 -0.258819 0.965926 100.547 72.627)" fill="#0D0C15" stroke="url(#paint8_radial_1_193)"/>
<path d="M101.868 109.032L103.088 104.476H124.135L125.062 106.754L122.914 109.032H101.868Z" fill="white" stroke="#CACACA" stroke-width="0.5"/>
<path d="M128.905 106.7L129.034 106.565L128.976 106.431L123.174 93.0852H130.217L135.776 106.75L121.583 121.475H114.727L128.905 106.7Z" fill="white" stroke="#CACACA" stroke-width="0.5"/>
<path d="M142.699 93.0852H149.741L139.045 104.081L137.021 99.0542L142.699 93.0852Z" fill="white" stroke="#CACACA" stroke-width="0.5"/>
<path d="M135.096 121.458L142.139 121.458L137.335 110.463L132.617 115.489L135.096 121.458Z" fill="white" stroke="#CACACA" stroke-width="0.5"/>
<defs>
<radialGradient id="paint0_radial_1_193" cx="0" cy="0" r="1" gradientUnits="userSpaceOnUse" gradientTransform="translate(55.5958 124.796) rotate(45) scale(133.32 238.794)">
<stop stop-color="#B3C0FF"/>
<stop offset="0.29838" stop-color="#9466FF"/>
<stop offset="0.523537" stop-color="#334ED5"/>
<stop offset="0.964352" stop-color="#334ED5" stop-opacity="0"/>
</radialGradient>
<radialGradient id="paint1_radial_1_193" cx="0" cy="0" r="1" gradientUnits="userSpaceOnUse" gradientTransform="translate(10.8105 4.01532) rotate(59.7887) scale(84.7078)">
<stop offset="0.00868034" stop-color="#B3C0FF"/>
<stop offset="0.47743" stop-color="#9466FF"/>
<stop offset="1" stop-color="#334ED5"/>
</radialGradient>
<radialGradient id="paint2_radial_1_193" cx="0" cy="0" r="1" gradientUnits="userSpaceOnUse" gradientTransform="translate(10.8105 4.01532) rotate(59.7887) scale(84.7078)">
<stop offset="0.00868034" stop-color="#B3C0FF"/>
<stop offset="0.47743" stop-color="#9466FF"/>
<stop offset="1" stop-color="#334ED5"/>
</radialGradient>
<radialGradient id="paint3_radial_1_193" cx="0" cy="0" r="1" gradientUnits="userSpaceOnUse" gradientTransform="translate(114.427 64.8475) rotate(44.5043) scale(150.309 274.802)">
<stop offset="0.00868034" stop-color="#B3C0FF"/>
<stop offset="0.29838" stop-color="#9466FF"/>
<stop offset="0.523537" stop-color="#334ED5"/>
<stop offset="0.898606" stop-color="#334ED5" stop-opacity="0"/>
</radialGradient>
<radialGradient id="paint4_radial_1_193" cx="0" cy="0" r="1" gradientUnits="userSpaceOnUse" gradientTransform="translate(10.8105 4.01532) rotate(59.7887) scale(84.7078)">
<stop offset="0.00868034" stop-color="#B3C0FF"/>
<stop offset="0.47743" stop-color="#9466FF"/>
<stop offset="1" stop-color="#334ED5"/>
</radialGradient>
<radialGradient id="paint5_radial_1_193" cx="0" cy="0" r="1" gradientUnits="userSpaceOnUse" gradientTransform="translate(10.8105 4.01532) rotate(59.7887) scale(84.7078)">
<stop offset="0.00868034" stop-color="#B3C0FF"/>
<stop offset="0.47743" stop-color="#9466FF"/>
<stop offset="1" stop-color="#334ED5"/>
</radialGradient>
<radialGradient id="paint6_radial_1_193" cx="0" cy="0" r="1" gradientUnits="userSpaceOnUse" gradientTransform="translate(115.088 115.186) rotate(46.8398) scale(175.82 222.909)">
<stop stop-color="#B3C0FF"/>
<stop offset="0.29838" stop-color="#9466FF"/>
<stop offset="0.523537" stop-color="#334ED5"/>
<stop offset="0.907035" stop-color="#334ED5" stop-opacity="0"/>
</radialGradient>
<radialGradient id="paint7_radial_1_193" cx="0" cy="0" r="1" gradientUnits="userSpaceOnUse" gradientTransform="translate(10.8105 4.01532) rotate(59.7887) scale(84.7078)">
<stop offset="0.00868034" stop-color="#B3C0FF"/>
<stop offset="0.47743" stop-color="#9466FF"/>
<stop offset="1" stop-color="#334ED5"/>
</radialGradient>
<radialGradient id="paint8_radial_1_193" cx="0" cy="0" r="1" gradientUnits="userSpaceOnUse" gradientTransform="translate(10.8105 4.01532) rotate(59.7887) scale(84.7078)">
<stop offset="0.00868034" stop-color="#B3C0FF"/>
<stop offset="0.47743" stop-color="#9466FF"/>
<stop offset="1" stop-color="#334ED5"/>
</radialGradient>
</defs>
</svg>
