<svg width="319" height="319" viewBox="0 0 319 319" fill="none" xmlns="http://www.w3.org/2000/svg">
<path d="M196.308 207.687C206.824 209.981 232.489 213.192 251.023 207.687" stroke="url(#paint0_linear_1_159)"/>
<g filter="url(#filter0_i_1_159)">
<circle cx="158.312" cy="159.558" r="118.042" fill="#0D0C15"/>
</g>
<path d="M264.582 209.771L264.647 209.658L268.517 198.246L273.89 181.962L273.956 181.848L275.883 164.38L275.905 164.343L275.721 153.41L274.064 136.743L274.033 136.624L270.925 126.219L266.139 111.572L266.085 111.49L261.182 102.365L253.948 90.7359L253.91 90.7141L248.409 83.409L248.333 83.3654L241.345 76.1078L241.307 76.086L233.149 69.1099L228.934 65.77L222.566 61.1872L215.72 57.0837L208.623 53.5903L204.201 51.7424L194.104 47.7759L194.066 47.7541L184.25 44.9572L184.213 44.9354L175.024 43.407L174.964 43.4229L161.759 42.7475L151.201 42.5436L151.082 42.5755L142.02 44.1417L125.438 47.3078L125.319 47.3398L110.259 53.8014L100.172 58.4516L100.128 58.5271C100.09 58.5053 100.09 58.5053 100.09 58.5053L85.9337 68.4598L85.8901 68.5353L77.7635 76.3314L65.6705 89.3404L65.605 89.4537L56.6902 104.197C56.6684 104.235 51.3169 115.597 51.3169 115.597L51.2951 115.635L45.7388 131.713L45.6734 131.826L43.7126 148.217L42.4314 161.426L42.4633 161.545L44.18 176.887L46.6991 190.578L46.7529 190.659L51.5968 203.376L57.1221 216.134L57.1977 216.177L65.8218 229.062L65.8596 229.084L71.3695 235.588L80.7848 245.707L80.8604 245.751L92.1298 254.926L92.2053 254.97L104.85 262.723L104.887 262.745L118.264 268.706L118.34 268.749L131.824 272.607L139.638 274.248L155.304 276.243L155.38 276.287C155.402 276.249 155.402 276.249 155.402 276.249L169.631 275.501L182.864 273.775L182.945 273.721L196.733 269.899L196.793 269.883L210.99 264.132L211.072 264.078L222.727 257.06L236.232 247.535L236.298 247.422L247.784 234.767L255.952 224.981L255.995 224.905L264.695 209.837L264.582 209.771ZM58.8434 217.077L57.7311 215.428L56.4537 211.971L55.3955 209.094L62.5908 219.744L64.1902 224.998L58.8434 217.077ZM155.029 274.976L142.698 273.396L143.57 273.194L148.183 272.182L161.968 273.947L161.356 274.047L154.969 274.992L155.029 274.976ZM46.4042 131.694L50.377 120.19L49.5693 129.09L45.5209 140.55L46.2979 132.489L46.3824 131.732L46.4042 131.694ZM57.2248 104.405L60.4561 99.0697L60.5433 98.9186L60.0243 100.079L56.6839 105.603L57.2248 104.405ZM247.438 83.9564L248.815 85.7583L243.267 80.541L243.122 80.3564L242.777 79.9059L244.318 81.2488L247.438 83.9564ZM210.238 262.992L198.28 266.26L208.06 258.915L220.608 255.585L220.445 255.692L210.238 262.992ZM66.377 228.275L65.5295 225.469L64.4048 221.748L75.3436 233.502L75.8388 234.04L76.5244 239.219L69.5155 231.648L66.4148 228.297L66.377 228.275ZM44.6233 148.995L45.7227 154.766L46.8699 160.716L45.2115 172.397L43.0925 161.153L44.526 148.989L44.6233 148.995ZM108.048 55.7983L113.804 53.3304L112.869 54.2512L109.816 57.2721L95.4744 63.7964L100.266 59.1606L108.026 55.8361L108.048 55.7983ZM141.914 44.9363L142.46 44.9496L157.036 45.2579L153.876 46.807L137.29 47.101L141.914 44.9363ZM265.822 114.562L266.132 115.596L262.525 109.284L259.696 104.327L258.998 101.961L265.029 111.837L265.844 114.524L265.822 114.562ZM62.5784 217.672L53.7335 204.559L53.0614 193.949L57.6399 200.671L62.7936 208.229L62.7686 208.97L62.5784 217.672ZM242.398 81.3485L243.803 83.9727L230.888 75.2066L230.571 74.621L238.049 78.9383C238.071 78.9005 242.36 81.3267 242.36 81.3267L242.398 81.3485ZM272.948 141.99L271.04 135.702L268.695 127.902L268.658 123.953L270.457 129.473L272.831 136.786L272.911 141.968L272.948 141.99ZM272.381 170.969L271.189 154.369L273.286 148.731L274.721 164.213L272.381 170.969ZM166.109 273.316L154.999 271.888L149.902 271.21L153.286 269.186L157.928 266.378L169.789 267.989L175.681 268.772L172.683 270.214L166.146 273.338L166.109 273.316ZM148.102 270.927L130.415 265.801L136.942 260.253L156.373 265.933L155.662 266.379L148.102 270.927ZM82.5136 91.9144L88.1156 87.4444L88.371 88.3975L91.4649 99.3484L76.331 112.566L76.0974 111.575L73.0518 99.4936L82.5295 91.9739L82.5136 91.9144ZM60.1361 113.84L72.1174 100.414L75.3806 113.427L64.3263 126.381L63.2552 127.626L63.1435 127.209L60.1361 113.84ZM149.562 52.2726L148.409 56.189L143.483 56.8702L128.156 58.9981L130.052 53.446L149.574 52.0779L149.465 52.2667L149.562 52.2726ZM154.233 48.0202L157.714 48.6199L172.918 51.1541L171.482 52.9435L168.762 52.6826L151.65 51.0108L154.227 48.1176L154.233 48.0202ZM155.908 47.1244L159.513 45.3284L175.919 49.0093L173.902 50.0605L169.394 49.321L155.87 47.1026L155.908 47.1244ZM93.5959 245.148L96.1607 238.874L114.949 250.376L110.144 256.867L93.1088 246.428L93.6337 245.17L93.5959 245.148ZM185.152 50.1106L196.215 55.8934L195.641 56.0153L179.57 49.0526L182.217 48.5668L185.19 50.1324L185.152 50.1106ZM258.537 104.766L258.492 108.768L247.413 94.4661L247.031 93.9938L247.128 91.7332L250.636 95.7732L258.477 104.782L258.537 104.766ZM253.712 187.432L250.251 206.684L249.439 206.87L236.439 209.586L240.952 189.734L249.013 188.244L253.674 187.41L253.712 187.432ZM218.589 244.952L200.742 245.425L209.692 230.097L227.364 229.927L218.589 244.952ZM67.5182 194.289L73.7641 180.07L77.8829 184.361L89.3084 196.144L82.5179 209.999L74.6521 201.732L67.54 194.252L67.5182 194.289ZM228.774 73.634L229.176 74.4201L223.367 71.9223L228.737 73.6122L228.774 73.634ZM81.8741 214.864L82.8877 211.975L100.971 226.444L95.66 237.125L78.758 223.489L81.8364 214.843L81.8741 214.864ZM174.193 51.387L179.054 53.0854L192.89 57.9016L192.51 58.3867L172.72 53.1546L173.584 52.0929L174.156 51.3652L174.193 51.387ZM258.387 110.52L256.743 114.153L248.049 101.127L245.502 97.3406L246.566 95.2358L258.349 110.498L258.387 110.52ZM71.0145 146.457L82.7888 162.52L73.557 177.986L61.9353 161.659L71.0523 146.478L71.0145 146.457ZM84.2387 162.451L96.324 146.315L107.423 157.356L111.591 161.474L99.9458 178.418L89.6879 168.014L84.2169 162.488L84.2387 162.451ZM122.85 238.522L102.498 226.066L109.161 214.001L110.012 212.529L131.044 225.377L124.446 236.019L122.888 238.544L122.85 238.522ZM193.062 60.569L193.201 59.8935L200.24 63.0513L193.1 60.5908L193.062 60.569ZM241.971 166.252L228.338 165.532L228.95 156.972L229.873 143.859L239.325 144.583L241.212 144.715L241.837 162.298L241.987 166.312L241.971 166.252ZM97.0638 145.383L111.485 129.387L125.499 142.967L125.72 143.195L112.293 160.52L99.1102 147.42L97.1016 145.404L97.0638 145.383ZM155.447 70.4245L173.29 67.08L174.849 69.4399L176.214 71.4365L157.617 77.5687L153.277 70.7826L155.431 70.3649L155.447 70.4245ZM219.895 187.395L205.486 184.616L211.418 163.266L227.084 166.57L223.272 188.086L219.91 187.455L219.895 187.395ZM120.828 194.754L120.601 194.623L131.66 177.039L151.943 189.354L141.655 207.434L120.828 194.754ZM155.711 163.028L145.116 156.609L146.336 154.846L157.85 138.129L174.309 148.085L166.951 161.964L163.781 167.889L155.771 163.012L155.711 163.028ZM190.799 74.5197L198.157 71.7181L200.366 73.6481L188.11 81.8802L183.121 77.4388L190.799 74.5197ZM189.08 82.6418L201.336 74.4097L203.956 76.3254L194.882 86.8975L194.003 86.2391L189.08 82.6418ZM209.276 78.1881L212.039 71.2228L211.856 79.4762L209.292 78.2477L209.276 78.1881ZM211.084 70.5208L208.294 77.6212L207.916 77.4032L205.748 76.1008L209.791 71.8889L211.084 70.5208ZM208.86 79.2573L210.701 80.1688L211.802 80.7038L209.823 95.1209L208.495 94.4551L203.314 91.9168L207.953 81.352L208.86 79.2573ZM204.75 75.4743L202.486 73.8144L209.961 70.0235L204.75 75.4743ZM204.954 76.9519L207.862 78.6308C207.84 78.6686 202.256 91.3063 202.256 91.3063L195.901 87.4862L204.954 76.9519ZM195.499 108.504L202.8 92.9801L209.633 96.3208L205.884 113.543L195.478 108.542L195.499 108.504ZM213.038 79.9574L213.192 72.1907L215.425 80.8822L213.038 79.9574ZM201.759 92.4291L194.458 107.953L184.408 101.899L195.102 88.4347L201.721 92.4073L201.759 92.4291ZM217.328 97.994L210.946 95.6181L212.925 81.201L215.733 82.2683L216.872 93.5512L217.328 97.994ZM201.44 73.0093L199.565 71.3728L208.471 69.4652L201.478 73.0311L201.44 73.0093ZM193.967 108.979L185.222 126.741L171.817 118.649L174.129 115.603L183.787 102.799L194.064 108.984L193.967 108.979ZM205.603 114.64L200.146 133.947L186.242 127.329L195.008 109.529L205.603 114.64ZM206.953 113.959L210.703 96.7367L217.372 99.2275L217.296 105.377L217.106 117.655L206.915 113.937L206.953 113.959ZM218.517 98.378L218.402 97.3551L216.905 82.5926L219.444 83.253L224.406 99.8646L218.517 98.378ZM218.823 81.8872L216.727 81.3315L214.663 73.3927L218.785 81.8654L218.823 81.8872ZM188.082 83.3243L194.164 87.7922L183.47 101.256L174.283 94.492L183.973 86.6921L188.098 83.3839L188.082 83.3243ZM184.671 127.782L174.8 147.059L158.455 137.169L171.077 119.581L184.671 127.782ZM220.287 82.2291L216.583 74.602L221.974 82.4475L220.287 82.2291ZM206.603 68.6888L204.188 69.2081L198.509 70.4107L197.115 68.9008L206.603 68.6888ZM144.452 157.585L163.171 168.947L152.51 188.372L132.264 176.079L142.154 161.042L144.43 157.623L144.452 157.585ZM175.842 147.61L185.713 128.333L199.806 135.06L192.791 155.583L175.826 147.551L175.842 147.61ZM201.193 134.401L206.651 115.093L217.052 118.883L214.814 139.243L201.156 134.379L201.193 134.401ZM218.294 118.039L218.377 112.749L218.582 99.5737L224.779 101.137L227.809 120.31L224.708 119.577L218.332 118.061L218.294 118.039ZM182.752 102.151L170.819 118.022L170.334 117.641L158.57 108.886L160.971 106.646L173.36 95.2181L182.752 102.151ZM156.815 137.481L144.119 155.983L127.289 143.094L141.898 126.25L156.831 137.541L156.815 137.481ZM225.735 100.179L220.72 83.4859L222.833 83.7495L230.839 100.759L225.697 100.157L225.735 100.179ZM196.13 67.728L195.195 66.3824L204.601 67.5332L196.092 67.7062L196.13 67.728ZM196.084 69.4641L197.296 70.7677L182.2 76.5044L180.936 75.1194L178.282 72.1272L195.627 68.9482L196.122 69.4859L196.084 69.4641ZM181.192 78.339L181.918 77.9527L187.128 82.6223L173.291 93.7682L165.657 86.8431L165.436 86.6149L181.17 78.3767L181.192 78.339ZM157.739 109.715L170.117 118.976L157.495 136.565L142.654 125.377L145.007 122.959L157.717 109.753L157.739 109.715ZM175.291 148.652L192.391 156.712L184.147 177.532L164.763 168.456L175.291 148.652ZM216.041 139.297L218.224 119.207L227.912 121.527L228.343 132.904L228.69 142.42L215.948 139.546L215.966 139.254L216.041 139.297ZM228.987 120.537L228.157 115.173L225.979 101.327L231.39 101.984L237.319 121.369L228.987 120.537ZM172.465 94.5002L160.054 105.966L157.676 108.168L148.254 99.4552L147.236 98.5149L164.384 87.2161L172.443 94.5379L172.465 94.5002ZM126.593 143.951L143.536 156.905L131.37 175.361L113.188 161.238L121.914 149.961L126.615 143.913L126.593 143.951ZM153.535 188.863L164.196 169.438L164.272 169.482L183.715 178.542L174.658 198.591L153.557 188.825L153.535 188.863ZM185.216 177.948L189.543 167.052L193.438 157.165L205.153 161.209L210.246 162.941L204.292 184.329L186.901 178.518L185.216 177.948ZM210.548 161.807L193.876 156.058L196.085 149.529L200.853 135.514L214.684 140.427L212.419 152.111L210.548 161.807ZM229.906 142.669L229.154 123.301L229.112 121.716L237.638 122.56L241.072 143.476L234.713 142.977L229.89 142.61L229.906 142.669ZM223.525 82.6383L218.726 75.688L224.796 82.6169L223.503 82.6761L223.525 82.6383ZM193.659 66.2512L194.809 67.9223L181.969 70.2775L177.405 71.1172L174.643 67.0049L177.229 66.8866L193.659 66.2512ZM176.956 72.4188L181.095 77.0241L164.613 85.6863L158.397 78.5728L168.624 75.162L176.956 72.4188ZM156.866 108.959L141.803 124.584L129.253 112.655L146.281 99.1219L156.85 108.9L156.866 108.959ZM141.009 125.435L126.438 142.3L112.279 128.536L128.368 113.403L141.031 125.397L141.009 125.435ZM236.416 100.605L232.201 100.841L224.142 83.7499L225.787 83.6923L230.175 90.6571L236.416 100.605ZM193.831 64.0342L202.671 66.1669L194.351 65.14L193.955 64.2565L193.831 64.0342ZM128.781 174.873L130.684 176.375L119.625 193.959L100.781 179.152L112.426 162.208L128.781 174.873ZM119.975 195.621L141.067 208.453L131.611 224.395L110.541 211.525L119.975 195.621ZM227.214 165.386L211.661 162.147L215.834 140.789L228.711 143.692L228.359 148.574L227.192 165.424L227.214 165.386ZM245.381 120.837L238.547 121.423L232.58 102.016L233.836 101.935L237.011 101.754L243.266 116.04L245.343 120.815L245.381 120.837ZM226.252 82.4503L220.876 76.325L227.168 82.1731L226.274 82.4126L226.252 82.4503ZM201.126 64.5697L195.328 63.1863L193.345 62.696L193.181 61.8461L195.671 62.6793L201.126 64.5697ZM192.405 63.7142L193.064 65.1018L173.95 65.8497L172.355 62.159L181.088 62.8199L192.427 63.6764L192.405 63.7142ZM147.969 83.3783L157.237 79.0112L163.598 86.3093L158.249 89.8176L146.391 97.6241L140.499 90.6472L138.239 87.9326L147.931 83.3565L147.969 83.3783ZM137.209 88.496L145.49 98.3124L144.442 99.1678L128.461 111.846L118.746 99.8918L128.118 94.1242L137.247 88.5178L137.209 88.496ZM119.036 194.979L109.602 210.882L90.7482 195.918L100.154 180.149L119.036 194.979ZM142.108 209.004L164.186 219.082L154.812 234.97L132.712 224.93L142.168 208.988L142.108 209.004ZM142.697 207.985L152.984 189.905L174.16 199.714L164.716 218.078L142.697 207.985ZM184.8 179.017L204.012 185.426L196.575 205.807L185.746 202.324L175.743 199.066L184.8 179.017ZM243.129 166.165L242.37 144.629L251.403 143.549L251.657 143.545L254.268 164.49L243.129 166.165ZM251.413 142.397L242.224 143.487L238.753 122.549L245.765 121.915L247.671 128.907L251.375 142.375L251.413 142.397ZM240.803 99.4616L237.655 100.465L227.665 84.6256L226.951 83.5082L228.083 83.2049L239.42 97.7571L240.781 99.4994L240.803 99.4616ZM224.418 188.194L228.208 166.716L241.939 167.442L240 188.68L228.063 188.335L224.456 188.216L224.418 188.194ZM259.432 139.323L254.106 141.484L252.583 142.116L248.639 127.753L246.951 121.693L252.222 119.802L257.669 134.528L259.432 139.323ZM246.529 120.593L245.361 117.905L238.181 101.473L241.507 100.422L251.703 118.696L246.55 120.555L246.529 120.593ZM241.908 98.9419L238.934 95.1099L229.172 82.6256L229.845 82.158L243.96 97.3067L241.871 98.9201L241.908 98.9419ZM193.976 58.377L200.03 61.671L193.617 58.8244L193.9 58.3334L193.976 58.377ZM172.749 66.012L152.713 69.7524L150.307 63.6295L156.313 63.1694L171.09 62.0831L172.771 65.9743L172.749 66.012ZM155.373 76.2226L156.533 78.0507L137.572 86.9939L131.972 77.7682L152.085 71.1019L155.373 76.2226ZM136.542 87.5573L118.101 98.9153L111.574 87.5435L130.91 78.2124L136.602 87.5413L136.542 87.5573ZM123.665 107.768L127.576 112.594L111.509 127.689L100.677 113.832L117.791 100.499L123.687 107.73L123.665 107.768ZM130.577 228.279L132.026 225.944L134.671 227.118L154.11 235.924L145.274 248.699L136.675 244.842L123.854 239.051L130.539 228.258L130.577 228.279ZM177.774 242.034L168.602 239.256L155.881 235.386L160.034 228.367L165.234 219.536L186.98 226.351L179.84 238.543L177.79 242.093L177.774 242.034ZM217.081 209.538L197.71 206.109L205.124 185.766L222.97 189.221L218.048 206.119L217.059 209.576L217.081 209.538ZM228.956 81.3427L228.365 81.7566L222.757 76.5551L224.606 77.9751L228.956 81.3427ZM224.149 76.1502L230.071 80.0224L229.766 80.5512L224.149 76.1502ZM200.786 60.7981L195.017 57.619L195.543 57.3184L200.786 60.7981ZM191.896 61.4563L192.086 62.5227L171.938 60.9618L171.52 57.8497L177.919 58.9762L191.917 61.4186L191.896 61.4563ZM99.2437 179.372L89.8593 195.103L74.2395 178.985L83.5149 163.443L99.206 179.35L99.2437 179.372ZM187.569 225.331L165.822 218.516L175.267 200.151L183.067 202.69L196.138 206.913L191.02 217.958L187.607 225.353L187.569 225.331ZM242.965 168.891L243.097 167.355L254.295 165.663L253.825 186.189L241.126 188.474L242.949 168.831L242.965 168.891ZM255.422 164.149L252.827 143.263L259.757 140.417L260.768 145.381L263.72 160.329L255.444 164.111L255.422 164.149ZM256.051 115.264L252.673 118.149L249.094 111.701L242.515 99.8966L244.686 98.2295L250.264 106.536L256.072 115.227L256.051 115.264ZM224.738 75.1306L230.377 78.1847L230.32 78.8065L224.738 75.1306ZM170.802 61.0108L169.861 61.0715L149.982 62.5354L149.491 57.3676L170.314 57.7578L170.78 61.0486L170.802 61.0108ZM149.105 63.7918L151.544 70.0339L142.655 72.9585L131.452 76.6624L129.268 70.4161L128.514 68.3194L147.226 64.1675L149.127 63.754L149.105 63.7918ZM112.278 91.122L117.124 99.56L100.032 112.855L92.8914 99.6685L110.544 88.1068L112.278 91.122ZM99.7701 114.617L110.678 128.518L96.3159 144.498L84.8246 129.252L99.8297 114.601L99.7701 114.617ZM90.1973 196.96L109.014 211.902L101.538 225.462L83.3791 210.95L84.4709 208.71L90.2132 197.019L90.1973 196.96ZM101.947 227.108L122.224 239.52L115.629 249.459L96.6143 237.827L101.925 227.146L101.947 227.108ZM167.67 255.436L165.212 254.722L146.479 249.143L154.949 236.913L155.255 236.384C155.292 236.406 173.404 241.928 173.404 241.928L177.126 243.069L171.528 250.412L167.708 255.457L167.67 255.436ZM199.396 245.402L178.969 242.32L188.152 226.675L208.389 230L207.386 231.737L199.374 245.44L199.396 245.402ZM208.984 228.883L188.687 225.574L190.998 220.613L197.234 207.194L204.077 208.426L216.643 210.645L212.45 220.611L208.984 228.883ZM235.238 209.749L218.249 209.608L219.896 203.963L224.175 189.313L234.316 189.629L239.816 189.783L237.135 201.579L235.276 209.771L235.238 209.749ZM255.503 165.404L263.779 161.622L264.406 181.119L255.023 185.772L255.465 165.382L255.503 165.404ZM260.393 138.618L253.215 119.217L253.259 119.141L256.614 116.295L264.788 134.408L260.355 138.597L260.393 138.618ZM244.7 96.3742L230.639 81.3069L230.966 80.7404L245.742 94.3072L244.7 96.3742ZM197.785 56.7496L201.084 59.4093L202.313 60.4209L200.49 59.2174L196.995 56.8976L197.726 56.7656L197.785 56.7496ZM182.072 56.8419L192.11 59.5154L191.999 60.0558L191.966 60.2883L171.59 56.6817L172.169 54.1961L182.072 56.8419ZM127.377 68.72L130.368 77.1444L111.092 86.4595L107.86 76.1842L127.317 68.736L127.361 68.6605L127.377 68.72ZM84.0093 130.141L95.5383 145.408L83.4748 161.506L71.7223 145.405L81.415 133.327L83.9716 130.12L84.0093 130.141ZM123.265 240.071L137.495 246.474L144.572 249.653L136.65 258.927L116.633 249.989L123.228 240.049L123.265 240.071ZM145.717 250.113L166.774 256.378L157.653 265.111L137.838 259.311L145.717 250.113ZM168.946 255.668L171.427 252.418L178.32 243.356L198.612 246.41L188.747 258.44L168.946 255.668ZM227.981 228.773L221.901 228.837L210.249 228.959L213.579 221.011L217.887 210.759L234.876 210.899L229.436 225.031L228.003 228.735L227.981 228.773ZM264.686 159.527L260.788 139.853L265.198 135.703L269.952 154.158L264.686 159.527ZM230.113 76.7231L224.512 73.6908L229.959 76.0301L230.113 76.7231ZM202.442 56.9705L203.679 57.1816L207.014 61.5236L202.442 56.9705ZM204.486 60.6686L199.565 56.7197L200.522 56.7186L204.486 60.6686ZM177.61 49.482L178.025 49.7219C178.047 49.6841 194.291 56.6962 194.291 56.6962L193.765 56.9968L175.452 50.6029L176.178 50.2167L177.61 49.482ZM148.576 59.9112L148.84 62.6818L128.265 67.269L127.907 60.214L148.317 57.3948L148.538 59.8894L148.576 59.9112ZM106.792 76.7257L110.04 87.0606L92.4472 98.6063L89.1139 86.7619L106.77 76.7635L106.792 76.7257ZM75.8786 114.57L83.3109 129.083L73.0906 141.814L71.1053 144.293L65.5955 132.904L63.666 128.92L65.1992 127.137L75.9381 114.554L75.8786 114.57ZM77.2178 206.184L81.9393 211.176L77.8532 222.614L63.969 207.85L67.0907 195.553L77.2178 206.184ZM246.068 90.5169L245.943 92.9125L235.444 83.2756L231.463 79.6176L231.498 79.0335L243.211 88.3135L246.046 90.5547L246.068 90.5169ZM226.914 71.0997L227.618 72.0602L222.001 70.2773L221.482 70.1289L222.488 70.3065L226.876 71.0779L226.914 71.0997ZM219.212 68.5664L224.508 68.5521L225.611 69.693L219.309 68.5723L219.234 68.5287L219.212 68.5664ZM171.006 54.0286L170.384 56.5898L149.62 56.1836L150.823 52.0943L161.35 53.1364L170.985 54.0664L171.006 54.0286ZM126.759 60.4577L127.133 67.5722L107.936 74.9188L107.676 75.0204L107.552 66.3383L126.699 60.4737L126.759 60.4577ZM91.9687 100.395L99.1253 113.641L87.5646 124.943L84.1799 128.276L76.7694 113.725L90.9746 101.331L91.9846 100.454L91.9687 100.395ZM62.8927 130.085L70.316 145.399L61.2645 160.466L54.0156 144.85L62.8709 130.123L62.8927 130.085ZM55.3515 178.906L66.1757 194.521L63.1035 206.646L52.9415 191.715L55.2977 178.825L55.3733 178.868L55.3515 178.906ZM159.063 265.372L168.081 256.73L187.59 259.484L177.497 267.807L159.085 265.334L159.063 265.372ZM190.25 258.452L199.969 246.59L217.599 246.143L207.481 257.825L190.191 258.468L190.25 258.452ZM236.109 210.856L249.861 207.969L249.505 209.023L243.71 225.164L229.323 228.541L236.147 210.878L236.109 210.856ZM265.547 180.015L264.913 160.967L270.097 155.651L271.401 173.626L269.433 175.813L265.585 180.037L265.547 180.015ZM270.461 151.531L266.123 134.625L267.752 130.581L268.075 129.76L273.011 146.155L270.722 152.387L270.499 151.553L270.461 151.531ZM265.491 133.102L257.489 115.39L259.09 111.832L267.113 127.241L267.531 128.086L267.022 129.404L265.529 133.124L265.491 133.102ZM231.51 77.5299L231.35 76.9342L244.886 86.1087L245.573 88.6702L231.472 77.5081L231.51 77.5299ZM223.209 67.3997L216.956 67.4151L221.684 66.1163L222.519 66.8503L223.225 67.4592L223.209 67.3997ZM209.496 62.8058L205.565 57.6659L207.158 58.1328L209.496 62.8058ZM198.072 55.5555L184.7 48.5399L187.745 48.586L198.775 55.5586L198.072 55.5555ZM106.532 75.5184L89.0388 85.4093L89.289 75.3821L106.409 66.8363L106.532 75.5184ZM62.325 128.801L53.6224 143.264L50.7474 129.317L59.2538 115.194L62.3469 128.763L62.325 128.801ZM61.3349 162.873L72.8651 179.098L70.4662 184.561L66.6628 193.242L55.5859 177.279L58.5564 169.779L61.3131 162.911L61.3349 162.873ZM54.3466 177.419L52.0733 189.904L45.9367 175.938L47.7802 162.802L54.3844 177.441L54.3466 177.419ZM78.5033 224.802L95.1846 238.21L94.0142 241.109L92.1546 245.726L77.0637 233.488L78.5629 224.786L78.5033 224.802ZM111.186 257.418L114.799 252.555L115.991 250.927L135.721 259.75L129.092 265.39L119.672 261.21L111.148 257.396L111.186 257.418ZM254.963 187.097L264.287 182.46L262.829 192.747L261.707 200.709L258.719 202.308L251.595 206.1L255.022 187.081L254.963 187.097ZM267.544 120.389L267.564 125.587L259.632 110.282L259.713 106.653L267.603 120.373L267.544 120.389ZM211.964 60.1015L214.204 61.1932L212.854 65.4496L211.964 60.1015ZM211.48 64.2534L208.724 58.7348L210.69 59.517L211.48 64.2534ZM166.388 44.0609L179.743 47.7931L177.588 48.2108L162.361 44.7569L166.388 44.0609ZM52.772 144.736L47.6857 158.518L45.1214 145.254L50.0407 131.326L52.8316 144.72L52.772 144.736ZM60.5668 161.674L57.3506 169.687L54.9108 175.832L48.0656 160.651L53.3817 146.297L60.545 161.712L60.5668 161.674ZM51.7123 192.012L52.3354 201.486L47.3937 190.073L46.3205 179.634L51.7719 191.996L51.7123 192.012ZM92.1284 250.393L92.7467 247.578L109.367 257.778L106.486 260.848L91.7865 251.858L92.1066 250.431L92.1284 250.393ZM189.201 259.659L205.983 259.025L195.324 267.021L179.434 267.767L189.261 259.643L189.201 259.659ZM220.722 254.341L209.463 257.358L212.17 254.238L219.266 246.048L233.231 242.529L223.202 253.709L220.722 254.341ZM245.223 224.376L251.231 207.602L261.164 202.259L255.64 218.456L245.185 224.354L245.223 224.376ZM265.583 181.697L271.209 175.529L269.215 192.153L265.017 196.981L263.087 199.19L265.583 181.697ZM256.662 98.2449L257.813 102.182L247.157 89.9376L246.545 87.7712L256.646 98.1853L256.662 98.2449ZM240.699 79.0583L229.552 72.7233L229.046 72.0287L238.671 76.3772L240.699 79.0583ZM227.6 70.0859L226.717 69.1732L233.912 71.3635L236.577 74.161L228.453 70.5278L227.616 70.1454L227.6 70.0859ZM215.104 66.6982L218.541 63.7981L220.509 65.1861L215.104 66.6982ZM213.862 66.2329L214.438 64.4505L215.261 61.8038L217.527 63.112L213.862 66.2329ZM201.89 55.7456L200.96 55.6116L190.625 49.091L194.031 49.6471L199.594 53.9666L201.928 55.7674L201.89 55.7456ZM128.785 53.7216L127.437 57.6264L126.851 59.2519L108.002 65.0368L110.655 58.2602L124.599 54.7794L128.763 53.7594L128.785 53.7216ZM72.3988 88.2399L71.8157 98.931L60.2093 111.969L61.0876 100.592L64.3706 96.9992L72.3988 88.2399ZM63.8915 209.467L77.4634 223.9L75.9919 232.466L63.6748 219.262L63.7204 217.526L63.8915 209.467ZM77.3358 236.767L77.1213 235.133L83.3624 240.196L91.7111 246.93L90.7567 251.112L77.8648 240.648L77.3518 236.827L77.3358 236.767ZM122.924 268.223L107.565 261.421L110.424 258.388L127.78 266.092L124.691 267.431L122.886 268.202L122.924 268.223ZM169.106 273.184L177.372 269.245L177.854 269.02L192.294 268.343L182.393 272.496L169.128 273.146L169.106 273.184ZM234.536 240.967L220.116 244.575L228.739 229.814L242.947 226.486L241.181 229.545L234.498 240.945L234.536 240.967ZM245.885 85.4262L245.692 85.0629L244.989 83.7508L252.923 91.2019L254.205 93.6038L254.715 94.5527L245.885 85.4262ZM231.741 69.4552L225.064 67.4133L223.706 66.2768L223.48 66.146C223.502 66.1082 228.227 66.47 228.227 66.47L231.703 69.4334L231.741 69.4552ZM207.882 57.1408L203.376 52.4743L207.766 54.2031L209.907 57.9071L207.882 57.1408ZM205.635 56.4979L204.29 56.1241L201.471 53.9425L196.953 50.4282L200.757 51.5161L202.614 53.4446L205.613 56.5357L205.635 56.4979ZM182.368 47.345L170.975 44.1408L174.566 44.2L184.164 47.3746L182.406 47.3668L182.368 47.345ZM152.691 47.9863L150.136 50.8417L131.145 52.1635L134.856 48.2639L151.891 47.9774L152.691 47.9863ZM129.375 52.3504L112.139 56.6495L116.73 52.0993L132.896 48.6933L129.375 52.3504ZM106.55 65.4576L89.875 73.7566L93.1492 66.0795L109.138 58.7944L106.572 65.4198L106.55 65.4576ZM88.1061 76.2098L87.8618 86.1397L73.0262 97.9681L73.605 87.0228L82.1743 80.6404L88.0843 76.2476L88.1061 76.2098ZM58.926 113.494L50.9211 126.749L51.9169 115.692L59.7474 102.739L58.926 113.494ZM139.362 272.981L124.631 268.756L129.264 266.748L144.417 271.116L145.876 271.555L141.062 272.653L139.378 273.04L139.362 272.981ZM236.537 239.856L244.518 226.033C244.555 226.055 254.566 220.404 254.566 220.404L246.781 233.887C246.744 233.865 236.559 239.818 236.559 239.818L236.537 239.856ZM263.562 209.183L257.673 216.156L260.019 209.302L262.742 201.357L268.342 194.973L267.629 197.079L263.6 209.204L263.562 209.183ZM272.53 182.486L271.012 186.947L272.574 173.95L274.179 169.338L272.815 181.643L272.53 182.486ZM222.014 64.8467L221.34 64.3569L219.637 63.1214L222.049 61.9963L226.47 65.1532L222.036 64.8089L222.014 64.8467ZM188.474 47.4966L188.069 47.4136L182.052 45.4504L183.717 45.7066L188.474 47.4966ZM161.224 43.8485L159.426 44.1705L147.798 43.9024L150.938 43.3484L161.283 43.8326L161.224 43.8485ZM91.3531 67.3588L90.331 69.7397L88.2374 74.6742L80.1781 80.6965L74.5122 84.9281L78.1832 76.8255L84.4884 72.3587L91.4068 67.4402L91.3531 67.3588ZM62.6388 97.2079L66.1178 89.6994L75.7649 79.357L72.5912 86.3367L62.6388 97.2079ZM105.126 261.372L104.747 261.506L92.518 253.992L92.3307 253.532L105.126 261.372ZM234.547 246.965L226.542 251.76L235.316 241.971L235.924 241.617L244.167 236.758L235.296 246.541L234.547 246.965ZM256.61 219.218L260.27 214.885L254.862 224.251L251.056 228.751L256.55 219.234L256.61 219.218ZM220.84 61.2985L218.488 62.4077L215.466 60.6634C215.488 60.6256 215.573 59.8687 215.573 59.8687L215.726 58.2954L219.276 60.345C219.254 60.3827 220.856 61.3581 220.856 61.3581L220.84 61.2985ZM214.614 57.6035L214.393 59.9933L211.602 58.634L211.495 58.4713L209.584 55.1524L213.853 57.2647L214.571 57.679L214.614 57.6035ZM134.635 47.0783L134.412 47.2018L129.664 48.1867L121.353 49.9347L124.389 48.5148L125.354 48.0647L133.398 46.5157L137.372 45.7383L134.619 47.0188L134.635 47.0783ZM81.2108 244.795L81.173 244.773L90.6749 252.475L81.2108 244.795ZM106.382 262.249L106.561 262.201L118.627 267.555L118.259 267.494L118.146 267.429L106.404 262.211L106.382 262.249ZM196.1 268.728L190.993 270.16L195.665 268.174L201.205 266.69L196.079 268.766L196.1 268.728ZM94.2266 63.4284L93.3953 64.2577L92.3577 65.27L83.9686 71.2529L86.2285 69.0831L94.2266 63.4284Z" fill="url(#paint1_radial_1_159)" fill-opacity="0.3"/>
<g filter="url(#filter1_i_1_159)">
<circle cx="159.325" cy="159.558" r="117.292" stroke="#936FFF" stroke-width="1.5"/>
</g>
<circle cx="158.819" cy="160.065" r="117.535" fill="url(#paint2_radial_1_159)"/>
<g filter="url(#filter2_f_1_159)">
<path d="M260.397 215.784C292.33 160.475 273.38 89.7518 218.071 57.8192C162.762 25.8865 92.0386 44.8368 60.1059 100.146" stroke="url(#paint3_linear_1_159)"/>
</g>
<circle cx="110.326" cy="163.16" r="3.49176" fill="#9676FF"/>
<circle cx="110.293" cy="163.127" r="7.73117" stroke="#9676FF" stroke-width="0.5"/>
<circle cx="110.293" cy="163.127" r="11.9878" stroke="#9676FF" stroke-opacity="0.51" stroke-width="0.5"/>
<circle cx="110.825" cy="163.659" r="15.7123" stroke="#9676FF" stroke-opacity="0.18" stroke-width="0.5"/>
<circle cx="158.213" cy="229.005" r="3.49176" fill="#9676FF"/>
<circle cx="158.18" cy="228.972" r="7.73117" stroke="#9676FF" stroke-width="0.5"/>
<circle cx="158.179" cy="228.972" r="11.9878" stroke="#9676FF" stroke-opacity="0.51" stroke-width="0.5"/>
<circle cx="158.712" cy="229.504" r="15.7123" stroke="#9676FF" stroke-opacity="0.18" stroke-width="0.5"/>
<path d="M149.828 242.137C160.988 231.763 185.368 179.129 193.671 157.351L211.607 163.336C211.607 163.336 217.586 141.89 217.586 117.95C214.192 116.844 208.621 114.806 202.639 112.201C196.037 109.325 188.935 105.758 183.707 101.99M133.885 49.6226C131.726 50.2875 127.408 53.413 127.408 60.5949C127.408 69.5722 133.885 84.7977 146.839 98.4992C159.793 112.201 185.7 129.92 200.647 134.409" stroke="url(#paint4_linear_1_159)"/>
<path d="M118.177 99.271C125.607 111.678 143.807 129.835 157.805 137.484L132.047 176.194C126.598 173.216 120.653 168.75 113.718 161.802C107.444 171.562 92.9134 191.777 90.932 196.541" stroke="url(#paint5_radial_1_159)"/>
<circle cx="201.112" cy="134.229" r="3.49176" fill="#9676FF"/>
<circle cx="201.079" cy="134.196" r="7.73117" stroke="#9676FF" stroke-width="0.5"/>
<circle cx="201.079" cy="134.196" r="11.9878" stroke="#9676FF" stroke-opacity="0.51" stroke-width="0.5"/>
<circle cx="201.611" cy="134.728" r="15.7123" stroke="#9676FF" stroke-opacity="0.18" stroke-width="0.5"/>
<ellipse cx="182.63" cy="101.297" rx="2.53308" ry="2.02646" fill="#9871FF"/>
<circle cx="123.355" cy="106.364" r="2.02646" fill="#2A3A90"/>
<ellipse cx="252.036" cy="206.167" rx="2.02646" ry="1.51985" fill="#2A3A90"/>
<defs>
<filter id="filter0_i_1_159" x="40.2704" y="41.5168" width="236.083" height="242.783" filterUnits="userSpaceOnUse" color-interpolation-filters="sRGB">
<feFlood flood-opacity="0" result="BackgroundImageFix"/>
<feBlend mode="normal" in="SourceGraphic" in2="BackgroundImageFix" result="shape"/>
<feColorMatrix in="SourceAlpha" type="matrix" values="0 0 0 0 0 0 0 0 0 0 0 0 0 0 0 0 0 0 127 0" result="hardAlpha"/>
<feMorphology radius="49" operator="dilate" in="SourceAlpha" result="effect1_innerShadow_1_159"/>
<feOffset dy="39"/>
<feGaussianBlur stdDeviation="27.85"/>
<feComposite in2="hardAlpha" operator="arithmetic" k2="-1" k3="1"/>
<feColorMatrix type="matrix" values="0 0 0 0 0.202939 0 0 0 0 0.160016 0 0 0 0 0.472179 0 0 0 1 0"/>
<feBlend mode="normal" in2="shape" result="effect1_innerShadow_1_159"/>
</filter>
<filter id="filter1_i_1_159" x="41.2836" y="41.5168" width="236.083" height="240.083" filterUnits="userSpaceOnUse" color-interpolation-filters="sRGB">
<feFlood flood-opacity="0" result="BackgroundImageFix"/>
<feBlend mode="normal" in="SourceGraphic" in2="BackgroundImageFix" result="shape"/>
<feColorMatrix in="SourceAlpha" type="matrix" values="0 0 0 0 0 0 0 0 0 0 0 0 0 0 0 0 0 0 127 0" result="hardAlpha"/>
<feOffset dy="4"/>
<feGaussianBlur stdDeviation="2"/>
<feComposite in2="hardAlpha" operator="arithmetic" k2="-1" k3="1"/>
<feColorMatrix type="matrix" values="0 0 0 0 0 0 0 0 0 0 0 0 0 0 0 0 0 0 0.25 0"/>
<feBlend mode="normal" in2="shape" result="effect1_innerShadow_1_159"/>
</filter>
<filter id="filter2_f_1_159" x="58.1729" y="40.3071" width="219.737" height="177.227" filterUnits="userSpaceOnUse" color-interpolation-filters="sRGB">
<feFlood flood-opacity="0" result="BackgroundImageFix"/>
<feBlend mode="normal" in="SourceGraphic" in2="BackgroundImageFix" result="shape"/>
<feGaussianBlur stdDeviation="0.75" result="effect1_foregroundBlur_1_159"/>
</filter>
<linearGradient id="paint0_linear_1_159" x1="162.296" y1="199.186" x2="255.635" y2="208.758" gradientUnits="userSpaceOnUse">
<stop offset="0.385465" stop-color="#5465B4" stop-opacity="0"/>
<stop offset="0.605871" stop-color="#6645B2"/>
<stop offset="0.724701" stop-color="#9466FF"/>
<stop offset="0.840552" stop-color="#334ED5"/>
<stop offset="0.961666" stop-color="#334ED5" stop-opacity="0.07"/>
</linearGradient>
<radialGradient id="paint1_radial_1_159" cx="0" cy="0" r="1" gradientUnits="userSpaceOnUse" gradientTransform="translate(211.968 59.9493) rotate(102.953) scale(234.788 139.256)">
<stop offset="0.0584289" stop-color="#9466FF" stop-opacity="0"/>
<stop offset="0.572265" stop-color="#9466FF"/>
<stop offset="1" stop-color="#9466FF" stop-opacity="0"/>
</radialGradient>
<radialGradient id="paint2_radial_1_159" cx="0" cy="0" r="1" gradientUnits="userSpaceOnUse" gradientTransform="translate(72.6799 370.984) rotate(-67.8663) scale(412.378 415.338)">
<stop offset="0.71946" stop-color="#7B67F8" stop-opacity="0"/>
<stop offset="1" stop-color="#544482"/>
</radialGradient>
<linearGradient id="paint3_linear_1_159" x1="218.071" y1="57.8192" x2="160.252" y2="157.965" gradientUnits="userSpaceOnUse">
<stop stop-color="white"/>
<stop offset="0.722181" stop-color="#999999" stop-opacity="0"/>
</linearGradient>
<linearGradient id="paint4_linear_1_159" x1="131.394" y1="44.6351" x2="179.815" y2="216.674" gradientUnits="userSpaceOnUse">
<stop offset="0.0366663" stop-color="#B3C0FF" stop-opacity="0"/>
<stop offset="0.120568" stop-color="#B3C0FF"/>
<stop offset="0.450478" stop-color="#9466FF"/>
<stop offset="0.696666" stop-color="#334ED5"/>
<stop offset="0.946666" stop-color="#334ED5" stop-opacity="0"/>
</linearGradient>
<radialGradient id="paint5_radial_1_159" cx="0" cy="0" r="1" gradientUnits="userSpaceOnUse" gradientTransform="translate(142.449 169.246) rotate(-138.6) scale(66.0384 75.4743)">
<stop offset="0.136666" stop-color="#3D5EFD"/>
<stop offset="0.37" stop-color="#9466FF"/>
<stop offset="0.696666" stop-color="#334ED5"/>
<stop offset="0.881457" stop-color="#334ED5" stop-opacity="0"/>
</radialGradient>
</defs>
</svg>
