<svg width="1920" height="1088" viewBox="0 0 1920 1088" fill="none" xmlns="http://www.w3.org/2000/svg">
<path d="M1701 442.208L1701 439L1634 439L1634 694L1701 694L1701 442.208Z" fill="url(#paint0_linear_25_68)"/>
<path d="M1700.62 439L1702 439L1702 372L1592 372L1592 439L1700.62 439Z" fill="url(#paint1_linear_25_68)"/>
<path d="M434 333.465L434 335L502 335L502 213L434 213L434 333.465Z" fill="url(#paint2_linear_25_68)"/>
<path d="M696 805.358L696 806L728 806L728 755L696 755L696 805.358Z" fill="url(#paint3_linear_25_68)"/>
<path d="M1592.5 282V438H1701.5V670.5V700.5" stroke="url(#paint4_linear_25_68)" stroke-width="4" stroke-linecap="round"/>
<path d="M434 178V334H325V701" stroke="url(#paint5_linear_25_68)" stroke-width="4" stroke-linecap="round"/>
<path d="M696 755H698V687H539V755H696Z" fill="url(#paint6_linear_25_68)"/>
<path d="M1066 698.484L1066 699L1133 699L1133 658L1066 658L1066 698.484Z" fill="url(#paint7_linear_25_68)"/>
<path d="M1225.36 386L1226 386L1226 353L1175 353L1175 386L1225.36 386Z" fill="url(#paint8_linear_25_68)"/>
<path d="M1171.5 386.5H1225V334H1277.5" stroke="url(#paint9_radial_25_68)" stroke-width="4"/>
<path d="M750 806H696.5V755H508" stroke="url(#paint10_radial_25_68)" stroke-width="4"/>
<path d="M1118.5 755L1118.5 701.5L1066 701.5L1066 649" stroke="url(#paint11_radial_25_68)" stroke-width="4"/>
<g style="mix-blend-mode:soft-light" opacity="0.7">
<path d="M-148.211 15.8367H-201V68.6257M-148.211 15.8367V68.6257M-148.211 15.8367H-95.4221M-148.211 68.6257H-201M-148.211 68.6257V121.415M-148.211 68.6257H-95.4221M-201 68.6257V121.415M-148.211 121.415H-201M-148.211 121.415V174.204M-148.211 121.415H-95.4221M-201 121.415V174.204M-148.211 174.204H-201M-148.211 174.204V226.993M-148.211 174.204H-95.4221M-201 174.204V226.993M-148.211 226.993H-201M-148.211 226.993V279.782M-148.211 226.993H-95.4221M-201 226.993V279.782M-148.211 279.782H-201M-148.211 279.782V332.571M-148.211 279.782H-95.4221M-201 279.782V332.571M-148.211 332.571H-201M-148.211 332.571V385.36M-148.211 332.571H-95.4221M-201 332.571V385.36M-148.211 385.36H-201M-148.211 385.36V438.149M-148.211 385.36H-95.4221M-201 385.36V438.149M-148.211 438.149H-201M-148.211 438.149V490.938M-148.211 438.149H-95.4221M-201 438.149V490.938M-148.211 490.938H-201M-148.211 490.938V543.726M-148.211 490.938H-95.4221M-201 490.938V543.726M-148.211 543.726H-201M-148.211 543.726V596.515M-148.211 543.726H-95.4221M-201 543.726V596.515M-148.211 596.515H-201M-148.211 596.515V649.304M-148.211 596.515H-95.4221M-201 596.515V649.304M-148.211 649.304H-201M-148.211 649.304V702.093M-148.211 649.304H-95.4221M-201 649.304V702.093M-148.211 702.093H-201M-148.211 702.093V754.882M-148.211 702.093H-95.4221M-201 702.093V754.882M-148.211 754.882H-201M-148.211 754.882V807.671M-148.211 754.882H-95.4221M-201 754.882V807.671M-148.211 807.671H-201M-148.211 807.671V860.46M-148.211 807.671H-95.4221M-201 807.671V860.46M-148.211 860.46H-201M-148.211 860.46V913.249M-148.211 860.46H-95.4221M-201 860.46V913.249M-148.211 913.249H-201M-148.211 913.249V966.038M-148.211 913.249H-95.4221M-201 913.249V966.038M-148.211 966.038H-201M-148.211 966.038V1018.83M-148.211 966.038H-95.4221M-201 966.038V1018.83M-148.211 1018.83H-201M-148.211 1018.83V1071.62M-148.211 1018.83H-95.4221M-201 1018.83V1071.62H-148.211M-148.211 1071.62H-95.4221M-95.4221 15.8367V68.6257M-95.4221 15.8367H-42.6332M-95.4221 68.6257V121.415M-95.4221 68.6257H-42.6332M-95.4221 121.415V174.204M-95.4221 121.415H-42.6332M-95.4221 174.204V226.993M-95.4221 174.204H-42.6332M-95.4221 226.993V279.782M-95.4221 226.993H-42.6332M-95.4221 279.782V332.571M-95.4221 279.782H-42.6332M-95.4221 332.571V385.36M-95.4221 332.571H-42.6332M-95.4221 385.36V438.149M-95.4221 385.36H-42.6332M-95.4221 438.149V490.938M-95.4221 438.149H-42.6332M-95.4221 490.938V543.726M-95.4221 490.938H-42.6332M-95.4221 543.726V596.515M-95.4221 543.726H-42.6332M-95.4221 596.515V649.304M-95.4221 596.515H-42.6332M-95.4221 649.304V702.093M-95.4221 649.304H-42.6332M-95.4221 702.093V754.882M-95.4221 702.093H-42.6332M-95.4221 754.882V807.671M-95.4221 754.882H-42.6332M-95.4221 807.671V860.46M-95.4221 807.671H-42.6332M-95.4221 860.46V913.249M-95.4221 860.46H-42.6332M-95.4221 913.249V966.038M-95.4221 913.249H-42.6332M-95.4221 966.038V1018.83M-95.4221 966.038H-42.6332M-95.4221 1018.83V1071.62M-95.4221 1018.83H-42.6332M-95.4221 1071.62H-42.6332M-42.6332 15.8367V68.6257M-42.6332 15.8367H10.1558M-42.6332 68.6257V121.415M-42.6332 68.6257H10.1558M-42.6332 121.415V174.204M-42.6332 121.415H10.1558M-42.6332 174.204V226.993M-42.6332 174.204H10.1558M-42.6332 226.993V279.782M-42.6332 226.993H10.1558M-42.6332 279.782V332.571M-42.6332 279.782H10.1558M-42.6332 332.571V385.36M-42.6332 332.571H10.1558M-42.6332 385.36V438.149M-42.6332 385.36H10.1558M-42.6332 438.149V490.938M-42.6332 438.149H10.1558M-42.6332 490.938V543.726M-42.6332 490.938H10.1558M-42.6332 543.726V596.515M-42.6332 543.726H10.1558M-42.6332 596.515V649.304M-42.6332 596.515H10.1558M-42.6332 649.304V702.093M-42.6332 649.304H10.1558M-42.6332 702.093V754.882M-42.6332 702.093H10.1558M-42.6332 754.882V807.671M-42.6332 754.882H10.1558M-42.6332 807.671V860.46M-42.6332 807.671H10.1558M-42.6332 860.46V913.249M-42.6332 860.46H10.1558M-42.6332 913.249V966.038M-42.6332 913.249H10.1558M-42.6332 966.038V1018.83M-42.6332 966.038H10.1558M-42.6332 1018.83V1071.62M-42.6332 1018.83H10.1558M-42.6332 1071.62H10.1558M10.1558 15.8367V68.6257M10.1558 15.8367H62.9448M10.1558 68.6257V121.415M10.1558 68.6257H62.9448M10.1558 121.415V174.204M10.1558 121.415H62.9448M10.1558 174.204V226.993M10.1558 174.204H62.9448M10.1558 226.993V279.782M10.1558 226.993H62.9448M10.1558 279.782V332.571M10.1558 279.782H62.9448M10.1558 332.571V385.36M10.1558 332.571H62.9448M10.1558 385.36V438.149M10.1558 385.36H62.9448M10.1558 438.149V490.938M10.1558 438.149H62.9448M10.1558 490.938V543.726M10.1558 490.938H62.9448M10.1558 543.726V596.515M10.1558 543.726H62.9448M10.1558 596.515V649.304M10.1558 596.515H62.9448M10.1558 649.304V702.093M10.1558 649.304H62.9448M10.1558 702.093V754.882M10.1558 702.093H62.9448M10.1558 754.882V807.671M10.1558 754.882H62.9448M10.1558 807.671V860.46M10.1558 807.671H62.9448M10.1558 860.46V913.249M10.1558 860.46H62.9448M10.1558 913.249V966.038M10.1558 913.249H62.9448M10.1558 966.038V1018.83M10.1558 966.038H62.9448M10.1558 1018.83V1071.62M10.1558 1018.83H62.9448M10.1558 1071.62H62.9448M62.9448 15.8367V68.6257M62.9448 15.8367H115.734M62.9448 68.6257V121.415M62.9448 68.6257H115.734M62.9448 121.415V174.204M62.9448 121.415H115.734M62.9448 174.204V226.993M62.9448 174.204H115.734M62.9448 226.993V279.782M62.9448 226.993H115.734M62.9448 279.782V332.571M62.9448 279.782H115.734M62.9448 332.571V385.36M62.9448 332.571H115.734M62.9448 385.36V438.149M62.9448 385.36H115.734M62.9448 438.149V490.938M62.9448 438.149H115.734M62.9448 490.938V543.726M62.9448 490.938H115.734M62.9448 543.726V596.515M62.9448 543.726H115.734M62.9448 596.515V649.304M62.9448 596.515H115.734M62.9448 649.304V702.093M62.9448 649.304H115.734M62.9448 702.093V754.882M62.9448 702.093H115.734M62.9448 754.882V807.671M62.9448 754.882H115.734M62.9448 807.671V860.46M62.9448 807.671H115.734M62.9448 860.46V913.249M62.9448 860.46H115.734M62.9448 913.249V966.038M62.9448 913.249H115.734M62.9448 966.038V1018.83M62.9448 966.038H115.734M62.9448 1018.83V1071.62M62.9448 1018.83H115.734M62.9448 1071.62H115.734M115.734 15.8367V68.6257M115.734 15.8367H168.523M115.734 68.6257V121.415M115.734 68.6257H168.523M115.734 121.415V174.204M115.734 121.415H168.523M115.734 174.204V226.993M115.734 174.204H168.523M115.734 226.993V279.782M115.734 226.993H168.523M115.734 279.782V332.571M115.734 279.782H168.523M115.734 332.571V385.36M115.734 332.571H168.523M115.734 385.36V438.149M115.734 385.36H168.523M115.734 438.149V490.938M115.734 438.149H168.523M115.734 490.938V543.726M115.734 490.938H168.523M115.734 543.726V596.515M115.734 543.726H168.523M115.734 596.515V649.304M115.734 596.515H168.523M115.734 649.304V702.093M115.734 649.304H168.523M115.734 702.093V754.882M115.734 702.093H168.523M115.734 754.882V807.671M115.734 754.882H168.523M115.734 807.671V860.46M115.734 807.671H168.523M115.734 860.46V913.249M115.734 860.46H168.523M115.734 913.249V966.038M115.734 913.249H168.523M115.734 966.038V1018.83M115.734 966.038H168.523M115.734 1018.83V1071.62M115.734 1018.83H168.523M115.734 1071.62H168.523M168.523 15.8367V68.6257M168.523 15.8367H221.312M168.523 68.6257V121.415M168.523 68.6257H221.312M168.523 121.415V174.204M168.523 121.415H221.312M168.523 174.204V226.993M168.523 174.204H221.312M168.523 226.993V279.782M168.523 226.993H221.312M168.523 279.782V332.571M168.523 279.782H221.312M168.523 332.571V385.36M168.523 332.571H221.312M168.523 385.36V438.149M168.523 385.36H221.312M168.523 438.149V490.938M168.523 438.149H221.312M168.523 490.938V543.726M168.523 490.938H221.312M168.523 543.726V596.515M168.523 543.726H221.312M168.523 596.515V649.304M168.523 596.515H221.312M168.523 649.304V702.093M168.523 649.304H221.312M168.523 702.093V754.882M168.523 702.093H221.312M168.523 754.882V807.671M168.523 754.882H221.312M168.523 807.671V860.46M168.523 807.671H221.312M168.523 860.46V913.249M168.523 860.46H221.312M168.523 913.249V966.038M168.523 913.249H221.312M168.523 966.038V1018.83M168.523 966.038H221.312M168.523 1018.83V1071.62M168.523 1018.83H221.312M168.523 1071.62H221.312M221.312 15.8367V68.6257M221.312 15.8367H274.101M221.312 68.6257V121.415M221.312 68.6257H274.101M221.312 121.415V174.204M221.312 121.415H274.101M221.312 174.204V226.993M221.312 174.204H274.101M221.312 226.993V279.782M221.312 226.993H274.101M221.312 279.782V332.571M221.312 279.782H274.101M221.312 332.571V385.36M221.312 332.571H274.101M221.312 385.36V438.149M221.312 385.36H274.101M221.312 438.149V490.938M221.312 438.149H274.101M221.312 490.938V543.726M221.312 490.938H274.101M221.312 543.726V596.515M221.312 543.726H274.101M221.312 596.515V649.304M221.312 596.515H274.101M221.312 649.304V702.093M221.312 649.304H274.101M221.312 702.093V754.882M221.312 702.093H274.101M221.312 754.882V807.671M221.312 754.882H274.101M221.312 807.671V860.46M221.312 807.671H274.101M221.312 860.46V913.249M221.312 860.46H274.101M221.312 913.249V966.038M221.312 913.249H274.101M221.312 966.038V1018.83M221.312 966.038H274.101M221.312 1018.83V1071.62M221.312 1018.83H274.101M221.312 1071.62H274.101M274.101 15.8367V68.6257M274.101 15.8367H326.89M274.101 68.6257V121.415M274.101 68.6257H326.89M274.101 121.415V174.204M274.101 121.415H326.89M274.101 174.204V226.993M274.101 174.204H326.89M274.101 226.993V279.782M274.101 226.993H326.89M274.101 279.782V332.571M274.101 279.782H326.89M274.101 332.571V385.36M274.101 332.571H326.89M274.101 385.36V438.149M274.101 385.36H326.89M274.101 438.149V490.938M274.101 438.149H326.89M274.101 490.938V543.726M274.101 490.938H326.89M274.101 543.726V596.515M274.101 543.726H326.89M274.101 596.515V649.304M274.101 596.515H326.89M274.101 649.304V702.093M274.101 649.304H326.89M274.101 702.093V754.882M274.101 702.093H326.89M274.101 754.882V807.671M274.101 754.882H326.89M274.101 807.671V860.46M274.101 807.671H326.89M274.101 860.46V913.249M274.101 860.46H326.89M274.101 913.249V966.038M274.101 913.249H326.89M274.101 966.038V1018.83M274.101 966.038H326.89M274.101 1018.83V1071.62M274.101 1018.83H326.89M274.101 1071.62H326.89M326.89 15.8367V68.6257M326.89 15.8367H379.679M326.89 68.6257V121.415M326.89 68.6257H379.679M326.89 121.415V174.204M326.89 121.415H379.679M326.89 174.204V226.993M326.89 174.204H379.679M326.89 226.993V279.782M326.89 226.993H379.679M326.89 279.782V332.571M326.89 279.782H379.679M326.89 332.571V385.36M326.89 332.571H379.679M326.89 385.36V438.149M326.89 385.36H379.679M326.89 438.149V490.938M326.89 438.149H379.679M326.89 490.938V543.726M326.89 490.938H379.679M326.89 543.726V596.515M326.89 543.726H379.679M326.89 596.515V649.304M326.89 596.515H379.679M326.89 649.304V702.093M326.89 649.304H379.679M326.89 702.093V754.882M326.89 702.093H379.679M326.89 754.882V807.671M326.89 754.882H379.679M326.89 807.671V860.46M326.89 807.671H379.679M326.89 860.46V913.249M326.89 860.46H379.679M326.89 913.249V966.038M326.89 913.249H379.679M326.89 966.038V1018.83M326.89 966.038H379.679M326.89 1018.83V1071.62M326.89 1018.83H379.679M326.89 1071.62H379.679M379.679 15.8367V68.6257M379.679 15.8367H432.468M379.679 68.6257V121.415M379.679 68.6257H432.468M379.679 121.415V174.204M379.679 121.415H432.468M379.679 174.204V226.993M379.679 174.204H432.468M379.679 226.993V279.782M379.679 226.993H432.468M379.679 279.782V332.571M379.679 279.782H432.468M379.679 332.571V385.36M379.679 332.571H432.468M379.679 385.36V438.149M379.679 385.36H432.468M379.679 438.149V490.938M379.679 438.149H432.468M379.679 490.938V543.726M379.679 490.938H432.468M379.679 543.726V596.515M379.679 543.726H432.468M379.679 596.515V649.304M379.679 596.515H432.468M379.679 649.304V702.093M379.679 649.304H432.468M379.679 702.093V754.882M379.679 702.093H432.468M379.679 754.882V807.671M379.679 754.882H432.468M379.679 807.671V860.46M379.679 807.671H432.468M379.679 860.46V913.249M379.679 860.46H432.468M379.679 913.249V966.038M379.679 913.249H432.468M379.679 966.038V1018.83M379.679 966.038H432.468M379.679 1018.83V1071.62M379.679 1018.83H432.468M379.679 1071.62H432.468M432.468 15.8367V68.6257M432.468 15.8367H485.257M432.468 68.6257V121.415M432.468 68.6257H485.257M432.468 121.415V174.204M432.468 121.415H485.257M432.468 174.204V226.993M432.468 174.204H485.257M432.468 226.993V279.782M432.468 226.993H485.257M432.468 279.782V332.571M432.468 279.782H485.257M432.468 332.571V385.36M432.468 332.571H485.257M432.468 385.36V438.149M432.468 385.36H485.257M432.468 438.149V490.938M432.468 438.149H485.257M432.468 490.938V543.726M432.468 490.938H485.257M432.468 543.726V596.515M432.468 543.726H485.257M432.468 596.515V649.304M432.468 596.515H485.257M432.468 649.304V702.093M432.468 649.304H485.257M432.468 702.093V754.882M432.468 702.093H485.257M432.468 754.882V807.671M432.468 754.882H485.257M432.468 807.671V860.46M432.468 807.671H485.257M432.468 860.46V913.249M432.468 860.46H485.257M432.468 913.249V966.038M432.468 913.249H485.257M432.468 966.038V1018.83M432.468 966.038H485.257M432.468 1018.83V1071.62M432.468 1018.83H485.257M432.468 1071.62H485.257M485.257 15.8367V68.6257M485.257 15.8367H538.046M485.257 68.6257V121.415M485.257 68.6257H538.046M485.257 121.415V174.204M485.257 121.415H538.046M485.257 174.204V226.993M485.257 174.204H538.046M485.257 226.993V279.782M485.257 226.993H538.046M485.257 279.782V332.571M485.257 279.782H538.046M485.257 332.571V385.36M485.257 332.571H538.046M485.257 385.36V438.149M485.257 385.36H538.046M485.257 438.149V490.938M485.257 438.149H538.046M485.257 490.938V543.726M485.257 490.938H538.046M485.257 543.726V596.515M485.257 543.726H538.046M485.257 596.515V649.304M485.257 596.515H538.046M485.257 649.304V702.093M485.257 649.304H538.046M485.257 702.093V754.882M485.257 702.093H538.046M485.257 754.882V807.671M485.257 754.882H538.046M485.257 807.671V860.46M485.257 807.671H538.046M485.257 860.46V913.249M485.257 860.46H538.046M485.257 913.249V966.038M485.257 913.249H538.046M485.257 966.038V1018.83M485.257 966.038H538.046M485.257 1018.83V1071.62M485.257 1018.83H538.046M485.257 1071.62H538.046M538.046 15.8367V68.6257M538.046 15.8367H590.835M538.046 68.6257V121.415M538.046 68.6257H590.835M538.046 121.415V174.204M538.046 121.415H590.835M538.046 174.204V226.993M538.046 174.204H590.835M538.046 226.993V279.782M538.046 226.993H590.835M538.046 279.782V332.571M538.046 279.782H590.835M538.046 332.571V385.36M538.046 332.571H590.835M538.046 385.36V438.149M538.046 385.36H590.835M538.046 438.149V490.938M538.046 438.149H590.835M538.046 490.938V543.726M538.046 490.938H590.835M538.046 543.726V596.515M538.046 543.726H590.835M538.046 596.515V649.304M538.046 596.515H590.835M538.046 649.304V702.093M538.046 649.304H590.835M538.046 702.093V754.882M538.046 702.093H590.835M538.046 754.882V807.671M538.046 754.882H590.835M538.046 807.671V860.46M538.046 807.671H590.835M538.046 860.46V913.249M538.046 860.46H590.835M538.046 913.249V966.038M538.046 913.249H590.835M538.046 966.038V1018.83M538.046 966.038H590.835M538.046 1018.83V1071.62M538.046 1018.83H590.835M538.046 1071.62H590.835M590.835 15.8367V68.6257M590.835 15.8367H643.624M590.835 68.6257V121.415M590.835 68.6257H643.624M590.835 121.415V174.204M590.835 121.415H643.624M590.835 174.204V226.993M590.835 174.204H643.624M590.835 226.993V279.782M590.835 226.993H643.624M590.835 279.782V332.571M590.835 279.782H643.624M590.835 332.571V385.36M590.835 332.571H643.624M590.835 385.36V438.149M590.835 385.36H643.624M590.835 438.149V490.938M590.835 438.149H643.624M590.835 490.938V543.726M590.835 490.938H643.624M590.835 543.726V596.515M590.835 543.726H643.624M590.835 596.515V649.304M590.835 596.515H643.624M590.835 649.304V702.093M590.835 649.304H643.624M590.835 702.093V754.882M590.835 702.093H643.624M590.835 754.882V807.671M590.835 754.882H643.624M590.835 807.671V860.46M590.835 807.671H643.624M590.835 860.46V913.249M590.835 860.46H643.624M590.835 913.249V966.038M590.835 913.249H643.624M590.835 966.038V1018.83M590.835 966.038H643.624M590.835 1018.83V1071.62M590.835 1018.83H643.624M590.835 1071.62H643.624M643.624 15.8367V68.6257M643.624 15.8367H696.413M643.624 68.6257V121.415M643.624 68.6257H696.413M643.624 121.415V174.204M643.624 121.415H696.413M643.624 174.204V226.993M643.624 174.204H696.413M643.624 226.993V279.782M643.624 226.993H696.413M643.624 279.782V332.571M643.624 279.782H696.413M643.624 332.571V385.36M643.624 332.571H696.413M643.624 385.36V438.149M643.624 385.36H696.413M643.624 438.149V490.938M643.624 438.149H696.413M643.624 490.938V543.726M643.624 490.938H696.413M643.624 543.726V596.515M643.624 543.726H696.413M643.624 596.515V649.304M643.624 596.515H696.413M643.624 649.304V702.093M643.624 649.304H696.413M643.624 702.093V754.882M643.624 702.093H696.413M643.624 754.882V807.671M643.624 754.882H696.413M643.624 807.671V860.46M643.624 807.671H696.413M643.624 860.46V913.249M643.624 860.46H696.413M643.624 913.249V966.038M643.624 913.249H696.413M643.624 966.038V1018.83M643.624 966.038H696.413M643.624 1018.83V1071.62M643.624 1018.83H696.413M643.624 1071.62H696.413M696.413 15.8367V68.6257M696.413 15.8367H749.202M696.413 68.6257V121.415M696.413 68.6257H749.202M696.413 121.415V174.204M696.413 121.415H749.202M696.413 174.204V226.993M696.413 174.204H749.202M696.413 226.993V279.782M696.413 226.993H749.202M696.413 279.782V332.571M696.413 279.782H749.202M696.413 332.571V385.36M696.413 332.571H749.202M696.413 385.36V438.149M696.413 385.36H749.202M696.413 438.149V490.938M696.413 438.149H749.202M696.413 490.938V543.726M696.413 490.938H749.202M696.413 543.726V596.515M696.413 543.726H749.202M696.413 596.515V649.304M696.413 596.515H749.202M696.413 649.304V702.093M696.413 649.304H749.202M696.413 702.093V754.882M696.413 702.093H749.202M696.413 754.882V807.671M696.413 754.882H749.202M696.413 807.671V860.46M696.413 807.671H749.202M696.413 860.46V913.249M696.413 860.46H749.202M696.413 913.249V966.038M696.413 913.249H749.202M696.413 966.038V1018.83M696.413 966.038H749.202M696.413 1018.83V1071.62M696.413 1018.83H749.202M696.413 1071.62H749.202M749.202 15.8367V68.6257M749.202 15.8367H801.991M749.202 68.6257V121.415M749.202 68.6257H801.991M749.202 121.415V174.204M749.202 121.415H801.991M749.202 174.204V226.993M749.202 174.204H801.991M749.202 226.993V279.782M749.202 226.993H801.991M749.202 279.782V332.571M749.202 279.782H801.991M749.202 332.571V385.36M749.202 332.571H801.991M749.202 385.36V438.149M749.202 385.36H801.991M749.202 438.149V490.938M749.202 438.149H801.991M749.202 490.938V543.726M749.202 490.938H801.991M749.202 543.726V596.515M749.202 543.726H801.991M749.202 596.515V649.304M749.202 596.515H801.991M749.202 649.304V702.093M749.202 649.304H801.991M749.202 702.093V754.882M749.202 702.093H801.991M749.202 754.882V807.671M749.202 754.882H801.991M749.202 807.671V860.46M749.202 807.671H801.991M749.202 860.46V913.249M749.202 860.46H801.991M749.202 913.249V966.038M749.202 913.249H801.991M749.202 966.038V1018.83M749.202 966.038H801.991M749.202 1018.83V1071.62M749.202 1018.83H801.991M749.202 1071.62H801.991M801.991 15.8367V68.6257M801.991 15.8367H854.78M801.991 68.6257V121.415M801.991 68.6257H854.78M801.991 121.415V174.204M801.991 121.415H854.78M801.991 174.204V226.993M801.991 174.204H854.78M801.991 226.993V279.782M801.991 226.993H854.78M801.991 279.782V332.571M801.991 279.782H854.78M801.991 332.571V385.36M801.991 332.571H854.78M801.991 385.36V438.149M801.991 385.36H854.78M801.991 438.149V490.938M801.991 438.149H854.78M801.991 490.938V543.726M801.991 490.938H854.78M801.991 543.726V596.515M801.991 543.726H854.78M801.991 596.515V649.304M801.991 596.515H854.78M801.991 649.304V702.093M801.991 649.304H854.78M801.991 702.093V754.882M801.991 702.093H854.78M801.991 754.882V807.671M801.991 754.882H854.78M801.991 807.671V860.46M801.991 807.671H854.78M801.991 860.46V913.249M801.991 860.46H854.78M801.991 913.249V966.038M801.991 913.249H854.78M801.991 966.038V1018.83M801.991 966.038H854.78M801.991 1018.83V1071.62M801.991 1018.83H854.78M801.991 1071.62H854.78M854.78 15.8367V68.6257M854.78 15.8367H907.569M854.78 68.6257V121.415M854.78 68.6257H907.569M854.78 121.415V174.204M854.78 121.415H907.569M854.78 174.204V226.993M854.78 174.204H907.569M854.78 226.993V279.782M854.78 226.993H907.569M854.78 279.782V332.571M854.78 279.782H907.569M854.78 332.571V385.36M854.78 332.571H907.569M854.78 385.36V438.149M854.78 385.36H907.569M854.78 438.149V490.938M854.78 438.149H907.569M854.78 490.938V543.726M854.78 490.938H907.569M854.78 543.726V596.515M854.78 543.726H907.569M854.78 596.515V649.304M854.78 596.515H907.569M854.78 649.304V702.093M854.78 649.304H907.569M854.78 702.093V754.882M854.78 702.093H907.569M854.78 754.882V807.671M854.78 754.882H907.569M854.78 807.671V860.46M854.78 807.671H907.569M854.78 860.46V913.249M854.78 860.46H907.569M854.78 913.249V966.038M854.78 913.249H907.569M854.78 966.038V1018.83M854.78 966.038H907.569M854.78 1018.83V1071.62M854.78 1018.83H907.569M854.78 1071.62H907.569M907.569 15.8367V68.6257M907.569 15.8367H960.358M907.569 68.6257V121.415M907.569 68.6257H960.358M907.569 121.415V174.204M907.569 121.415H960.358M907.569 174.204V226.993M907.569 174.204H960.358M907.569 226.993V279.782M907.569 226.993H960.358M907.569 279.782V332.571M907.569 279.782H960.358M907.569 332.571V385.36M907.569 332.571H960.358M907.569 385.36V438.149M907.569 385.36H960.358M907.569 438.149V490.938M907.569 438.149H960.358M907.569 490.938V543.726M907.569 490.938H960.358M907.569 543.726V596.515M907.569 543.726H960.358M907.569 596.515V649.304M907.569 596.515H960.358M907.569 649.304V702.093M907.569 649.304H960.358M907.569 702.093V754.882M907.569 702.093H960.358M907.569 754.882V807.671M907.569 754.882H960.358M907.569 807.671V860.46M907.569 807.671H960.358M907.569 860.46V913.249M907.569 860.46H960.358M907.569 913.249V966.038M907.569 913.249H960.358M907.569 966.038V1018.83M907.569 966.038H960.358M907.569 1018.83V1071.62M907.569 1018.83H960.358M907.569 1071.62H960.358M960.358 15.8367V68.6257M960.358 15.8367H1013.15M960.358 68.6257V121.415M960.358 68.6257H1013.15M960.358 121.415V174.204M960.358 121.415H1013.15M960.358 174.204V226.993M960.358 174.204H1013.15M960.358 226.993V279.782M960.358 226.993H1013.15M960.358 279.782V332.571M960.358 279.782H1013.15M960.358 332.571V385.36M960.358 332.571H1013.15M960.358 385.36V438.149M960.358 385.36H1013.15M960.358 438.149V490.938M960.358 438.149H1013.15M960.358 490.938V543.726M960.358 490.938H1013.15M960.358 543.726V596.515M960.358 543.726H1013.15M960.358 596.515V649.304M960.358 596.515H1013.15M960.358 649.304V702.093M960.358 649.304H1013.15M960.358 702.093V754.882M960.358 702.093H1013.15M960.358 754.882V807.671M960.358 754.882H1013.15M960.358 807.671V860.46M960.358 807.671H1013.15M960.358 860.46V913.249M960.358 860.46H1013.15M960.358 913.249V966.038M960.358 913.249H1013.15M960.358 966.038V1018.83M960.358 966.038H1013.15M960.358 1018.83V1071.62M960.358 1018.83H1013.15M960.358 1071.62H1013.15M1013.15 15.8367V68.6257M1013.15 15.8367H1065.94M1013.15 68.6257V121.415M1013.15 68.6257H1065.94M1013.15 121.415V174.204M1013.15 121.415H1065.94M1013.15 174.204V226.993M1013.15 174.204H1065.94M1013.15 226.993V279.782M1013.15 226.993H1065.94M1013.15 279.782V332.571M1013.15 279.782H1065.94M1013.15 332.571V385.36M1013.15 332.571H1065.94M1013.15 385.36V438.149M1013.15 385.36H1065.94M1013.15 438.149V490.938M1013.15 438.149H1065.94M1013.15 490.938V543.726M1013.15 490.938H1065.94M1013.15 543.726V596.515M1013.15 543.726H1065.94M1013.15 596.515V649.304M1013.15 596.515H1065.94M1013.15 649.304V702.093M1013.15 649.304H1065.94M1013.15 702.093V754.882M1013.15 702.093H1065.94M1013.15 754.882V807.671M1013.15 754.882H1065.94M1013.15 807.671V860.46M1013.15 807.671H1065.94M1013.15 860.46V913.249M1013.15 860.46H1065.94M1013.15 913.249V966.038M1013.15 913.249H1065.94M1013.15 966.038V1018.83M1013.15 966.038H1065.94M1013.15 1018.83V1071.62M1013.15 1018.83H1065.94M1013.15 1071.62H1065.94M1065.94 15.8367V68.6257M1065.94 15.8367H1118.72M1065.94 68.6257V121.415M1065.94 68.6257H1118.72M1065.94 121.415V174.204M1065.94 121.415H1118.72M1065.94 174.204V226.993M1065.94 174.204H1118.72M1065.94 226.993V279.782M1065.94 226.993H1118.72M1065.94 279.782V332.571M1065.94 279.782H1118.72M1065.94 332.571V385.36M1065.94 332.571H1118.72M1065.94 385.36V438.149M1065.94 385.36H1118.72M1065.94 438.149V490.938M1065.94 438.149H1118.72M1065.94 490.938V543.726M1065.94 490.938H1118.72M1065.94 543.726V596.515M1065.94 543.726H1118.72M1065.94 596.515V649.304M1065.94 596.515H1118.72M1065.94 649.304V702.093M1065.94 649.304H1118.72M1065.94 702.093V754.882M1065.94 702.093H1118.72M1065.94 754.882V807.671M1065.94 754.882H1118.72M1065.94 807.671V860.46M1065.94 807.671H1118.72M1065.94 860.46V913.249M1065.94 860.46H1118.72M1065.94 913.249V966.038M1065.94 913.249H1118.72M1065.94 966.038V1018.83M1065.94 966.038H1118.72M1065.94 1018.83V1071.62M1065.94 1018.83H1118.72M1065.94 1071.62H1118.72M1118.72 15.8367V68.6257M1118.72 15.8367H1171.51M1118.72 68.6257V121.415M1118.72 68.6257H1171.51M1118.72 121.415V174.204M1118.72 121.415H1171.51M1118.72 174.204V226.993M1118.72 174.204H1171.51M1118.72 226.993V279.782M1118.72 226.993H1171.51M1118.72 279.782V332.571M1118.72 279.782H1171.51M1118.72 332.571V385.36M1118.72 332.571H1171.51M1118.72 385.36V438.149M1118.72 385.36H1171.51M1118.72 438.149V490.938M1118.72 438.149H1171.51M1118.72 490.938V543.726M1118.72 490.938H1171.51M1118.72 543.726V596.515M1118.72 543.726H1171.51M1118.72 596.515V649.304M1118.72 596.515H1171.51M1118.72 649.304V702.093M1118.72 649.304H1171.51M1118.72 702.093V754.882M1118.72 702.093H1171.51M1118.72 754.882V807.671M1118.72 754.882H1171.51M1118.72 807.671V860.46M1118.72 807.671H1171.51M1118.72 860.46V913.249M1118.72 860.46H1171.51M1118.72 913.249V966.038M1118.72 913.249H1171.51M1118.72 966.038V1018.83M1118.72 966.038H1171.51M1118.72 1018.83V1071.62M1118.72 1018.83H1171.51M1118.72 1071.62H1171.51M1171.51 15.8367V68.6257M1171.51 15.8367H1224.3M1171.51 68.6257V121.415M1171.51 68.6257H1224.3M1171.51 121.415V174.204M1171.51 121.415H1224.3M1171.51 174.204V226.993M1171.51 174.204H1224.3M1171.51 226.993V279.782M1171.51 226.993H1224.3M1171.51 279.782V332.571M1171.51 279.782H1224.3M1171.51 332.571V385.36M1171.51 332.571H1224.3M1171.51 385.36V438.149M1171.51 385.36H1224.3M1171.51 438.149V490.938M1171.51 438.149H1224.3M1171.51 490.938V543.726M1171.51 490.938H1224.3M1171.51 543.726V596.515M1171.51 543.726H1224.3M1171.51 596.515V649.304M1171.51 596.515H1224.3M1171.51 649.304V702.093M1171.51 649.304H1224.3M1171.51 702.093V754.882M1171.51 702.093H1224.3M1171.51 754.882V807.671M1171.51 754.882H1224.3M1171.51 807.671V860.46M1171.51 807.671H1224.3M1171.51 860.46V913.249M1171.51 860.46H1224.3M1171.51 913.249V966.038M1171.51 913.249H1224.3M1171.51 966.038V1018.83M1171.51 966.038H1224.3M1171.51 1018.83V1071.62M1171.51 1018.83H1224.3M1171.51 1071.62H1224.3M1224.3 15.8367V68.6257M1224.3 15.8367H1277.09M1224.3 68.6257V121.415M1224.3 68.6257H1277.09M1224.3 121.415V174.204M1224.3 121.415H1277.09M1224.3 174.204V226.993M1224.3 174.204H1277.09M1224.3 226.993V279.782M1224.3 226.993H1277.09M1224.3 279.782V332.571M1224.3 279.782H1277.09M1224.3 332.571V385.36M1224.3 332.571H1277.09M1224.3 385.36V438.149M1224.3 385.36H1277.09M1224.3 438.149V490.938M1224.3 438.149H1277.09M1224.3 490.938V543.726M1224.3 490.938H1277.09M1224.3 543.726V596.515M1224.3 543.726H1277.09M1224.3 596.515V649.304M1224.3 596.515H1277.09M1224.3 649.304V702.093M1224.3 649.304H1277.09M1224.3 702.093V754.882M1224.3 702.093H1277.09M1224.3 754.882V807.671M1224.3 754.882H1277.09M1224.3 807.671V860.46M1224.3 807.671H1277.09M1224.3 860.46V913.249M1224.3 860.46H1277.09M1224.3 913.249V966.038M1224.3 913.249H1277.09M1224.3 966.038V1018.83M1224.3 966.038H1277.09M1224.3 1018.83V1071.62M1224.3 1018.83H1277.09M1224.3 1071.62H1277.09M1277.09 15.8367V68.6257M1277.09 15.8367H1329.88M1277.09 68.6257V121.415M1277.09 68.6257H1329.88M1277.09 121.415V174.204M1277.09 121.415H1329.88M1277.09 174.204V226.993M1277.09 174.204H1329.88M1277.09 226.993V279.782M1277.09 226.993H1329.88M1277.09 279.782V332.571M1277.09 279.782H1329.88M1277.09 332.571V385.36M1277.09 332.571H1329.88M1277.09 385.36V438.149M1277.09 385.36H1329.88M1277.09 438.149V490.938M1277.09 438.149H1329.88M1277.09 490.938V543.726M1277.09 490.938H1329.88M1277.09 543.726V596.515M1277.09 543.726H1329.88M1277.09 596.515V649.304M1277.09 596.515H1329.88M1277.09 649.304V702.093M1277.09 649.304H1329.88M1277.09 702.093V754.882M1277.09 702.093H1329.88M1277.09 754.882V807.671M1277.09 754.882H1329.88M1277.09 807.671V860.46M1277.09 807.671H1329.88M1277.09 860.46V913.249M1277.09 860.46H1329.88M1277.09 913.249V966.038M1277.09 913.249H1329.88M1277.09 966.038V1018.83M1277.09 966.038H1329.88M1277.09 1018.83V1071.62M1277.09 1018.83H1329.88M1277.09 1071.62H1329.88M1329.88 15.8367V68.6257M1329.88 15.8367H1382.67M1329.88 68.6257V121.415M1329.88 68.6257H1382.67M1329.88 121.415V174.204M1329.88 121.415H1382.67M1329.88 174.204V226.993M1329.88 174.204H1382.67M1329.88 226.993V279.782M1329.88 226.993H1382.67M1329.88 279.782V332.571M1329.88 279.782H1382.67M1329.88 332.571V385.36M1329.88 332.571H1382.67M1329.88 385.36V438.149M1329.88 385.36H1382.67M1329.88 438.149V490.938M1329.88 438.149H1382.67M1329.88 490.938V543.726M1329.88 490.938H1382.67M1329.88 543.726V596.515M1329.88 543.726H1382.67M1329.88 596.515V649.304M1329.88 596.515H1382.67M1329.88 649.304V702.093M1329.88 649.304H1382.67M1329.88 702.093V754.882M1329.88 702.093H1382.67M1329.88 754.882V807.671M1329.88 754.882H1382.67M1329.88 807.671V860.46M1329.88 807.671H1382.67M1329.88 860.46V913.249M1329.88 860.46H1382.67M1329.88 913.249V966.038M1329.88 913.249H1382.67M1329.88 966.038V1018.83M1329.88 966.038H1382.67M1329.88 1018.83V1071.62M1329.88 1018.83H1382.67M1329.88 1071.62H1382.67M1382.67 15.8367V68.6257M1382.67 15.8367H1435.46M1382.67 68.6257V121.415M1382.67 68.6257H1435.46M1382.67 121.415V174.204M1382.67 121.415H1435.46M1382.67 174.204V226.993M1382.67 174.204H1435.46M1382.67 226.993V279.782M1382.67 226.993H1435.46M1382.67 279.782V332.571M1382.67 279.782H1435.46M1382.67 332.571V385.36M1382.67 332.571H1435.46M1382.67 385.36V438.149M1382.67 385.36H1435.46M1382.67 438.149V490.938M1382.67 438.149H1435.46M1382.67 490.938V543.726M1382.67 490.938H1435.46M1382.67 543.726V596.515M1382.67 543.726H1435.46M1382.67 596.515V649.304M1382.67 596.515H1435.46M1382.67 649.304V702.093M1382.67 649.304H1435.46M1382.67 702.093V754.882M1382.67 702.093H1435.46M1382.67 754.882V807.671M1382.67 754.882H1435.46M1382.67 807.671V860.46M1382.67 807.671H1435.46M1382.67 860.46V913.249M1382.67 860.46H1435.46M1382.67 913.249V966.038M1382.67 913.249H1435.46M1382.67 966.038V1018.83M1382.67 966.038H1435.46M1382.67 1018.83V1071.62M1382.67 1018.83H1435.46M1382.67 1071.62H1435.46M1435.46 15.8367V68.6257M1435.46 15.8367H1488.25M1435.46 68.6257V121.415M1435.46 68.6257H1488.25M1435.46 121.415V174.204M1435.46 121.415H1488.25M1435.46 174.204V226.993M1435.46 174.204H1488.25M1435.46 226.993V279.782M1435.46 226.993H1488.25M1435.46 279.782V332.571M1435.46 279.782H1488.25M1435.46 332.571V385.36M1435.46 332.571H1488.25M1435.46 385.36V438.149M1435.46 385.36H1488.25M1435.46 438.149V490.938M1435.46 438.149H1488.25M1435.46 490.938V543.726M1435.46 490.938H1488.25M1435.46 543.726V596.515M1435.46 543.726H1488.25M1435.46 596.515V649.304M1435.46 596.515H1488.25M1435.46 649.304V702.093M1435.46 649.304H1488.25M1435.46 702.093V754.882M1435.46 702.093H1488.25M1435.46 754.882V807.671M1435.46 754.882H1488.25M1435.46 807.671V860.46M1435.46 807.671H1488.25M1435.46 860.46V913.249M1435.46 860.46H1488.25M1435.46 913.249V966.038M1435.46 913.249H1488.25M1435.46 966.038V1018.83M1435.46 966.038H1488.25M1435.46 1018.83V1071.62M1435.46 1018.83H1488.25M1435.46 1071.62H1488.25M1488.25 15.8367V68.6257M1488.25 15.8367H1541.04M1488.25 68.6257V121.415M1488.25 68.6257H1541.04M1488.25 121.415V174.204M1488.25 121.415H1541.04M1488.25 174.204V226.993M1488.25 174.204H1541.04M1488.25 226.993V279.782M1488.25 226.993H1541.04M1488.25 279.782V332.571M1488.25 279.782H1541.04M1488.25 332.571V385.36M1488.25 332.571H1541.04M1488.25 385.36V438.149M1488.25 385.36H1541.04M1488.25 438.149V490.938M1488.25 438.149H1541.04M1488.25 490.938V543.726M1488.25 490.938H1541.04M1488.25 543.726V596.515M1488.25 543.726H1541.04M1488.25 596.515V649.304M1488.25 596.515H1541.04M1488.25 649.304V702.093M1488.25 649.304H1541.04M1488.25 702.093V754.882M1488.25 702.093H1541.04M1488.25 754.882V807.671M1488.25 754.882H1541.04M1488.25 807.671V860.46M1488.25 807.671H1541.04M1488.25 860.46V913.249M1488.25 860.46H1541.04M1488.25 913.249V966.038M1488.25 913.249H1541.04M1488.25 966.038V1018.83M1488.25 966.038H1541.04M1488.25 1018.83V1071.62M1488.25 1018.83H1541.04M1488.25 1071.62H1541.04M1541.04 15.8367V68.6257M1541.04 15.8367H1593.83M1541.04 68.6257V121.415M1541.04 68.6257H1593.83M1541.04 121.415V174.204M1541.04 121.415H1593.83M1541.04 174.204V226.993M1541.04 174.204H1593.83M1541.04 226.993V279.782M1541.04 226.993H1593.83M1541.04 279.782V332.571M1541.04 279.782H1593.83M1541.04 332.571V385.36M1541.04 332.571H1593.83M1541.04 385.36V438.149M1541.04 385.36H1593.83M1541.04 438.149V490.938M1541.04 438.149H1593.83M1541.04 490.938V543.726M1541.04 490.938H1593.83M1541.04 543.726V596.515M1541.04 543.726H1593.83M1541.04 596.515V649.304M1541.04 596.515H1593.83M1541.04 649.304V702.093M1541.04 649.304H1593.83M1541.04 702.093V754.882M1541.04 702.093H1593.83M1541.04 754.882V807.671M1541.04 754.882H1593.83M1541.04 807.671V860.46M1541.04 807.671H1593.83M1541.04 860.46V913.249M1541.04 860.46H1593.83M1541.04 913.249V966.038M1541.04 913.249H1593.83M1541.04 966.038V1018.83M1541.04 966.038H1593.83M1541.04 1018.83V1071.62M1541.04 1018.83H1593.83M1541.04 1071.62H1593.83M1593.83 15.8367V68.6257M1593.83 15.8367H1646.61M1593.83 68.6257V121.415M1593.83 68.6257H1646.61M1593.83 121.415V174.204M1593.83 121.415H1646.61M1593.83 174.204V226.993M1593.83 174.204H1646.61M1593.83 226.993V279.782M1593.83 226.993H1646.61M1593.83 279.782V332.571M1593.83 279.782H1646.61M1593.83 332.571V385.36M1593.83 332.571H1646.61M1593.83 385.36V438.149M1593.83 385.36H1646.61M1593.83 438.149V490.938M1593.83 438.149H1646.61M1593.83 490.938V543.726M1593.83 490.938H1646.61M1593.83 543.726V596.515M1593.83 543.726H1646.61M1593.83 596.515V649.304M1593.83 596.515H1646.61M1593.83 649.304V702.093M1593.83 649.304H1646.61M1593.83 702.093V754.882M1593.83 702.093H1646.61M1593.83 754.882V807.671M1593.83 754.882H1646.61M1593.83 807.671V860.46M1593.83 807.671H1646.61M1593.83 860.46V913.249M1593.83 860.46H1646.61M1593.83 913.249V966.038M1593.83 913.249H1646.61M1593.83 966.038V1018.83M1593.83 966.038H1646.61M1593.83 1018.83V1071.62M1593.83 1018.83H1646.61M1593.83 1071.62H1646.61M1646.61 15.8367V68.6257M1646.61 15.8367H1699.4M1646.61 68.6257V121.415M1646.61 68.6257H1699.4M1646.61 121.415V174.204M1646.61 121.415H1699.4M1646.61 174.204V226.993M1646.61 174.204H1699.4M1646.61 226.993V279.782M1646.61 226.993H1699.4M1646.61 279.782V332.571M1646.61 279.782H1699.4M1646.61 332.571V385.36M1646.61 332.571H1699.4M1646.61 385.36V438.149M1646.61 385.36H1699.4M1646.61 438.149V490.938M1646.61 438.149H1699.4M1646.61 490.938V543.726M1646.61 490.938H1699.4M1646.61 543.726V596.515M1646.61 543.726H1699.4M1646.61 596.515V649.304M1646.61 596.515H1699.4M1646.61 649.304V702.093M1646.61 649.304H1699.4M1646.61 702.093V754.882M1646.61 702.093H1699.4M1646.61 754.882V807.671M1646.61 754.882H1699.4M1646.61 807.671V860.46M1646.61 807.671H1699.4M1646.61 860.46V913.249M1646.61 860.46H1699.4M1646.61 913.249V966.038M1646.61 913.249H1699.4M1646.61 966.038V1018.83M1646.61 966.038H1699.4M1646.61 1018.83V1071.62M1646.61 1018.83H1699.4M1646.61 1071.62H1699.4M1699.4 15.8367V68.6257M1699.4 15.8367H1752.19M1699.4 68.6257V121.415M1699.4 68.6257H1752.19M1699.4 121.415V174.204M1699.4 121.415H1752.19M1699.4 174.204V226.993M1699.4 174.204H1752.19M1699.4 226.993V279.782M1699.4 226.993H1752.19M1699.4 279.782V332.571M1699.4 279.782H1752.19M1699.4 332.571V385.36M1699.4 332.571H1752.19M1699.4 385.36V438.149M1699.4 385.36H1752.19M1699.4 438.149V490.938M1699.4 438.149H1752.19M1699.4 490.938V543.726M1699.4 490.938H1752.19M1699.4 543.726V596.515M1699.4 543.726H1752.19M1699.4 596.515V649.304M1699.4 596.515H1752.19M1699.4 649.304V702.093M1699.4 649.304H1752.19M1699.4 702.093V754.882M1699.4 702.093H1752.19M1699.4 754.882V807.671M1699.4 754.882H1752.19M1699.4 807.671V860.46M1699.4 807.671H1752.19M1699.4 860.46V913.249M1699.4 860.46H1752.19M1699.4 913.249V966.038M1699.4 913.249H1752.19M1699.4 966.038V1018.83M1699.4 966.038H1752.19M1699.4 1018.83V1071.62M1699.4 1018.83H1752.19M1699.4 1071.62H1752.19M1752.19 15.8367V68.6257M1752.19 15.8367H1804.98M1752.19 68.6257V121.415M1752.19 68.6257H1804.98M1752.19 121.415V174.204M1752.19 121.415H1804.98M1752.19 174.204V226.993M1752.19 174.204H1804.98M1752.19 226.993V279.782M1752.19 226.993H1804.98M1752.19 279.782V332.571M1752.19 279.782H1804.98M1752.19 332.571V385.36M1752.19 332.571H1804.98M1752.19 385.36V438.149M1752.19 385.36H1804.98M1752.19 438.149V490.938M1752.19 438.149H1804.98M1752.19 490.938V543.726M1752.19 490.938H1804.98M1752.19 543.726V596.515M1752.19 543.726H1804.98M1752.19 596.515V649.304M1752.19 596.515H1804.98M1752.19 649.304V702.093M1752.19 649.304H1804.98M1752.19 702.093V754.882M1752.19 702.093H1804.98M1752.19 754.882V807.671M1752.19 754.882H1804.98M1752.19 807.671V860.46M1752.19 807.671H1804.98M1752.19 860.46V913.249M1752.19 860.46H1804.98M1752.19 913.249V966.038M1752.19 913.249H1804.98M1752.19 966.038V1018.83M1752.19 966.038H1804.98M1752.19 1018.83V1071.62M1752.19 1018.83H1804.98M1752.19 1071.62H1804.98M1804.98 15.8367V68.6257M1804.98 15.8367H1857.77M1804.98 68.6257V121.415M1804.98 68.6257H1857.77M1804.98 121.415V174.204M1804.98 121.415H1857.77M1804.98 174.204V226.993M1804.98 174.204H1857.77M1804.98 226.993V279.782M1804.98 226.993H1857.77M1804.98 279.782V332.571M1804.98 279.782H1857.77M1804.98 332.571V385.36M1804.98 332.571H1857.77M1804.98 385.36V438.149M1804.98 385.36H1857.77M1804.98 438.149V490.938M1804.98 438.149H1857.77M1804.98 490.938V543.726M1804.98 490.938H1857.77M1804.98 543.726V596.515M1804.98 543.726H1857.77M1804.98 596.515V649.304M1804.98 596.515H1857.77M1804.98 649.304V702.093M1804.98 649.304H1857.77M1804.98 702.093V754.882M1804.98 702.093H1857.77M1804.98 754.882V807.671M1804.98 754.882H1857.77M1804.98 807.671V860.46M1804.98 807.671H1857.77M1804.98 860.46V913.249M1804.98 860.46H1857.77M1804.98 913.249V966.038M1804.98 913.249H1857.77M1804.98 966.038V1018.83M1804.98 966.038H1857.77M1804.98 1018.83V1071.62M1804.98 1018.83H1857.77M1804.98 1071.62H1857.77M1857.77 15.8367V68.6257M1857.77 15.8367H1910.56M1857.77 68.6257V121.415M1857.77 68.6257H1910.56M1857.77 121.415V174.204M1857.77 121.415H1910.56M1857.77 174.204V226.993M1857.77 174.204H1910.56M1857.77 226.993V279.782M1857.77 226.993H1910.56M1857.77 279.782V332.571M1857.77 279.782H1910.56M1857.77 332.571V385.36M1857.77 332.571H1910.56M1857.77 385.36V438.149M1857.77 385.36H1910.56M1857.77 438.149V490.938M1857.77 438.149H1910.56M1857.77 490.938V543.726M1857.77 490.938H1910.56M1857.77 543.726V596.515M1857.77 543.726H1910.56M1857.77 596.515V649.304M1857.77 596.515H1910.56M1857.77 649.304V702.093M1857.77 649.304H1910.56M1857.77 702.093V754.882M1857.77 702.093H1910.56M1857.77 754.882V807.671M1857.77 754.882H1910.56M1857.77 807.671V860.46M1857.77 807.671H1910.56M1857.77 860.46V913.249M1857.77 860.46H1910.56M1857.77 913.249V966.038M1857.77 913.249H1910.56M1857.77 966.038V1018.83M1857.77 966.038H1910.56M1857.77 1018.83V1071.62M1857.77 1018.83H1910.56M1857.77 1071.62H1910.56M1910.56 15.8367V68.6257M1910.56 15.8367H1963.35M1910.56 68.6257V121.415M1910.56 68.6257H1963.35M1910.56 121.415V174.204M1910.56 121.415H1963.35M1910.56 174.204V226.993M1910.56 174.204H1963.35M1910.56 226.993V279.782M1910.56 226.993H1963.35M1910.56 279.782V332.571M1910.56 279.782H1963.35M1910.56 332.571V385.36M1910.56 332.571H1963.35M1910.56 385.36V438.149M1910.56 385.36H1963.35M1910.56 438.149V490.938M1910.56 438.149H1963.35M1910.56 490.938V543.726M1910.56 490.938H1963.35M1910.56 543.726V596.515M1910.56 543.726H1963.35M1910.56 596.515V649.304M1910.56 596.515H1963.35M1910.56 649.304V702.093M1910.56 649.304H1963.35M1910.56 702.093V754.882M1910.56 702.093H1963.35M1910.56 754.882V807.671M1910.56 754.882H1963.35M1910.56 807.671V860.46M1910.56 807.671H1963.35M1910.56 860.46V913.249M1910.56 860.46H1963.35M1910.56 913.249V966.038M1910.56 913.249H1963.35M1910.56 966.038V1018.83M1910.56 966.038H1963.35M1910.56 1018.83V1071.62M1910.56 1018.83H1963.35M1910.56 1071.62H1963.35M1963.35 15.8367V68.6257M1963.35 15.8367H2016.14M1963.35 68.6257V121.415M1963.35 68.6257H2016.14M1963.35 121.415V174.204M1963.35 121.415H2016.14M1963.35 174.204V226.993M1963.35 174.204H2016.14M1963.35 226.993V279.782M1963.35 226.993H2016.14M1963.35 279.782V332.571M1963.35 279.782H2016.14M1963.35 332.571V385.36M1963.35 332.571H2016.14M1963.35 385.36V438.149M1963.35 385.36H2016.14M1963.35 438.149V490.938M1963.35 438.149H2016.14M1963.35 490.938V543.726M1963.35 490.938H2016.14M1963.35 543.726V596.515M1963.35 543.726H2016.14M1963.35 596.515V649.304M1963.35 596.515H2016.14M1963.35 649.304V702.093M1963.35 649.304H2016.14M1963.35 702.093V754.882M1963.35 702.093H2016.14M1963.35 754.882V807.671M1963.35 754.882H2016.14M1963.35 807.671V860.46M1963.35 807.671H2016.14M1963.35 860.46V913.249M1963.35 860.46H2016.14M1963.35 913.249V966.038M1963.35 913.249H2016.14M1963.35 966.038V1018.83M1963.35 966.038H2016.14M1963.35 1018.83V1071.62M1963.35 1018.83H2016.14M1963.35 1071.62H2016.14M2016.14 15.8367V68.6257M2016.14 15.8367H2068.93M2016.14 68.6257V121.415M2016.14 68.6257H2068.93M2016.14 121.415V174.204M2016.14 121.415H2068.93M2016.14 174.204V226.993M2016.14 174.204H2068.93M2016.14 226.993V279.782M2016.14 226.993H2068.93M2016.14 279.782V332.571M2016.14 279.782H2068.93M2016.14 332.571V385.36M2016.14 332.571H2068.93M2016.14 385.36V438.149M2016.14 385.36H2068.93M2016.14 438.149V490.938M2016.14 438.149H2068.93M2016.14 490.938V543.726M2016.14 490.938H2068.93M2016.14 543.726V596.515M2016.14 543.726H2068.93M2016.14 596.515V649.304M2016.14 596.515H2068.93M2016.14 649.304V702.093M2016.14 649.304H2068.93M2016.14 702.093V754.882M2016.14 702.093H2068.93M2016.14 754.882V807.671M2016.14 754.882H2068.93M2016.14 807.671V860.46M2016.14 807.671H2068.93M2016.14 860.46V913.249M2016.14 860.46H2068.93M2016.14 913.249V966.038M2016.14 913.249H2068.93M2016.14 966.038V1018.83M2016.14 966.038H2068.93M2016.14 1018.83V1071.62M2016.14 1018.83H2068.93M2016.14 1071.62H2068.93M2068.93 15.8367V68.6257M2068.93 15.8367H2121.72V68.6257M2068.93 68.6257V121.415M2068.93 68.6257H2121.72M2068.93 121.415V174.204M2068.93 121.415H2121.72M2068.93 174.204V226.993M2068.93 174.204H2121.72M2068.93 226.993V279.782M2068.93 226.993H2121.72M2068.93 279.782V332.571M2068.93 279.782H2121.72M2068.93 332.571V385.36M2068.93 332.571H2121.72M2068.93 385.36V438.149M2068.93 385.36H2121.72M2068.93 438.149V490.938M2068.93 438.149H2121.72M2068.93 490.938V543.726M2068.93 490.938H2121.72M2068.93 543.726V596.515M2068.93 543.726H2121.72M2068.93 596.515V649.304M2068.93 596.515H2121.72M2068.93 649.304V702.093M2068.93 649.304H2121.72M2068.93 702.093V754.882M2068.93 702.093H2121.72M2068.93 754.882V807.671M2068.93 754.882H2121.72M2068.93 807.671V860.46M2068.93 807.671H2121.72M2068.93 860.46V913.249M2068.93 860.46H2121.72M2068.93 913.249V966.038M2068.93 913.249H2121.72M2068.93 966.038V1018.83M2068.93 966.038H2121.72M2068.93 1018.83V1071.62M2068.93 1018.83H2121.72M2068.93 1071.62H2121.72V1018.83M2121.72 68.6257V121.415M2121.72 121.415V174.204M2121.72 174.204V226.993M2121.72 226.993V279.782M2121.72 279.782V332.571M2121.72 332.571V385.36M2121.72 385.36V438.149M2121.72 438.149V490.938M2121.72 490.938V543.726M2121.72 543.726V596.515M2121.72 596.515V649.304M2121.72 649.304V702.093M2121.72 702.093V754.882M2121.72 754.882V807.671M2121.72 807.671V860.46M2121.72 860.46V913.249M2121.72 913.249V966.038M2121.72 966.038V1018.83" stroke="url(#paint12_radial_25_68)" stroke-opacity="0.61" stroke-width="0.805493"/>
</g>
<g style="mix-blend-mode:soft-light" opacity="0.8">
<path d="M9.99268 211.156V226.993M9.99268 226.993V242.829M9.99268 226.993H-5.84403M9.99268 226.993H25.8294M9.99268 633.468V649.304M9.99268 649.304V665.141M9.99268 649.304H-5.84403M9.99268 649.304H25.8294M9.99268 1055.78V1071.62M9.99268 1071.62V1087.45M9.99268 1071.62H-5.84403M9.99268 1071.62H25.8294M432.305 211.156V226.993M432.305 226.993V242.829M432.305 226.993H416.468M432.305 226.993H448.141M432.305 633.468V649.304M432.305 649.304V665.141M432.305 649.304H416.468M432.305 649.304H448.141M432.305 1055.78V1071.62M432.305 1071.62V1087.45M432.305 1071.62H416.468M432.305 1071.62H448.141M854.616 211.156V226.993M854.616 226.993V242.829M854.616 226.993H838.78M854.616 226.993H870.453M854.616 633.468V649.304M854.616 649.304V665.141M854.616 649.304H838.78M854.616 649.304H870.453M854.616 1055.78V1071.62M854.616 1071.62V1087.45M854.616 1071.62H838.78M854.616 1071.62H870.453M1276.93 211.156V226.993M1276.93 226.993V242.829M1276.93 226.993H1261.09M1276.93 226.993H1292.77M1276.93 633.468V649.304M1276.93 649.304V665.141M1276.93 649.304H1261.09M1276.93 649.304H1292.77M1276.93 1055.78V1071.62M1276.93 1071.62V1087.45M1276.93 1071.62H1261.09M1276.93 1071.62H1292.77M1699.24 211.156V226.993M1699.24 226.993V242.829M1699.24 226.993H1683.4M1699.24 226.993H1715.08M1699.24 633.468V649.304M1699.24 649.304V665.141M1699.24 649.304H1683.4M1699.24 649.304H1715.08M1699.24 1055.78V1071.62M1699.24 1071.62V1087.45M1699.24 1071.62H1683.4M1699.24 1071.62H1715.08M2121.55 211.156V226.993M2121.55 226.993V242.829M2121.55 226.993H2105.72M2121.55 226.993H2137.39M2121.55 633.468V649.304M2121.55 649.304V665.141M2121.55 649.304H2105.72M2121.55 649.304H2137.39M2121.55 1055.78V1071.62M2121.55 1071.62V1087.45M2121.55 1071.62H2105.72M2121.55 1071.62H2137.39M9.99268 0V15.8367M9.99268 15.8367V31.6734M9.99268 15.8367H-5.84403M9.99268 15.8367H25.8294M9.99268 422.312V438.149M9.99268 438.149V453.985M9.99268 438.149H-5.84403M9.99268 438.149H25.8294M9.99268 844.624V860.46M9.99268 860.46V876.297M9.99268 860.46H-5.84403M9.99268 860.46H25.8294M432.305 0V15.8367M432.305 15.8367V31.6734M432.305 15.8367H416.468M432.305 15.8367H448.141M432.305 422.312V438.149M432.305 438.149V453.985M432.305 438.149H416.468M432.305 438.149H448.141M432.305 844.624V860.46M432.305 860.46V876.297M432.305 860.46H416.468M432.305 860.46H448.141M854.616 0V15.8367M854.616 15.8367V31.6734M854.616 15.8367H838.78M854.616 15.8367H870.453M854.616 422.312V438.149M854.616 438.149V453.985M854.616 438.149H838.78M854.616 438.149H870.453M854.616 844.624V860.46M854.616 860.46V876.297M854.616 860.46H838.78M854.616 860.46H870.453M1276.93 0V15.8367M1276.93 15.8367V31.6734M1276.93 15.8367H1261.09M1276.93 15.8367H1292.77M1276.93 422.312V438.149M1276.93 438.149V453.985M1276.93 438.149H1261.09M1276.93 438.149H1292.77M1276.93 844.624V860.46M1276.93 860.46V876.297M1276.93 860.46H1261.09M1276.93 860.46H1292.77M1699.24 0V15.8367M1699.24 15.8367V31.6734M1699.24 15.8367H1683.4M1699.24 15.8367H1715.08M1699.24 422.312V438.149M1699.24 438.149V453.985M1699.24 438.149H1683.4M1699.24 438.149H1715.08M1699.24 844.624V860.46M1699.24 860.46V876.297M1699.24 860.46H1683.4M1699.24 860.46H1715.08M2121.55 0V15.8367M2121.55 15.8367V31.6734M2121.55 15.8367H2105.72M2121.55 15.8367H2137.39M2121.55 422.312V438.149M2121.55 438.149V453.985M2121.55 438.149H2105.72M2121.55 438.149H2137.39M2121.55 844.624V860.46M2121.55 860.46V876.297M2121.55 860.46H2105.72M2121.55 860.46H2137.39M-201.163 211.156V226.993M-201.163 226.993V242.829M-201.163 226.993H-217M-201.163 226.993H-185.327M-201.163 633.468V649.304M-201.163 649.304V665.141M-201.163 649.304H-217M-201.163 649.304H-185.327M-201.163 1055.78V1071.62M-201.163 1071.62V1087.45M-201.163 1071.62H-217M-201.163 1071.62H-185.327M221.149 211.156V226.993M221.149 226.993V242.829M221.149 226.993H205.312M221.149 226.993H236.985M221.149 633.468V649.304M221.149 649.304V665.141M221.149 649.304H205.312M221.149 649.304H236.985M221.149 1055.78V1071.62M221.149 1071.62V1087.45M221.149 1071.62H205.312M221.149 1071.62H236.985M643.461 211.156V226.993M643.461 226.993V242.829M643.461 226.993H627.624M643.461 226.993H659.297M643.461 633.468V649.304M643.461 649.304V665.141M643.461 649.304H627.624M643.461 649.304H659.297M643.461 1055.78V1071.62M643.461 1071.62V1087.45M643.461 1071.62H627.624M643.461 1071.62H659.297M1065.77 211.156V226.993M1065.77 226.993V242.829M1065.77 226.993H1049.94M1065.77 226.993H1081.61M1065.77 633.468V649.304M1065.77 649.304V665.141M1065.77 649.304H1049.94M1065.77 649.304H1081.61M1065.77 1055.78V1071.62M1065.77 1071.62V1087.45M1065.77 1071.62H1049.94M1065.77 1071.62H1081.61M1488.08 211.156V226.993M1488.08 226.993V242.829M1488.08 226.993H1472.25M1488.08 226.993H1503.92M1488.08 633.468V649.304M1488.08 649.304V665.141M1488.08 649.304H1472.25M1488.08 649.304H1503.92M1488.08 1055.78V1071.62M1488.08 1071.62V1087.45M1488.08 1071.62H1472.25M1488.08 1071.62H1503.92M1910.4 211.156V226.993M1910.4 226.993V242.829M1910.4 226.993H1894.56M1910.4 226.993H1926.23M1910.4 633.468V649.304M1910.4 649.304V665.141M1910.4 649.304H1894.56M1910.4 649.304H1926.23M1910.4 1055.78V1071.62M1910.4 1071.62V1087.45M1910.4 1071.62H1894.56M1910.4 1071.62H1926.23M-201.163 7.78533e-05V15.8368M-201.163 15.8368V31.6735M-201.163 15.8368H-217M-201.163 15.8368H-185.327M-201.163 422.312V438.149M-201.163 438.149V453.985M-201.163 438.149H-217M-201.163 438.149H-185.327M-201.163 844.624V860.46M-201.163 860.46V876.297M-201.163 860.46H-217M-201.163 860.46H-185.327M221.149 0V15.8367M221.149 15.8367V31.6734M221.149 15.8367H205.312M221.149 15.8367H236.985M221.149 422.312V438.149M221.149 438.149V453.985M221.149 438.149H205.312M221.149 438.149H236.985M221.149 844.624V860.46M221.149 860.46V876.297M221.149 860.46H205.312M221.149 860.46H236.985M643.461 0V15.8367M643.461 15.8367V31.6734M643.461 15.8367H627.624M643.461 15.8367H659.297M643.461 422.312V438.149M643.461 438.149V453.985M643.461 438.149H627.624M643.461 438.149H659.297M643.461 844.624V860.46M643.461 860.46V876.297M643.461 860.46H627.624M643.461 860.46H659.297M1065.77 0V15.8367M1065.77 15.8367V31.6734M1065.77 15.8367H1049.94M1065.77 15.8367H1081.61M1065.77 422.312V438.149M1065.77 438.149V453.985M1065.77 438.149H1049.94M1065.77 438.149H1081.61M1065.77 844.624V860.46M1065.77 860.46V876.297M1065.77 860.46H1049.94M1065.77 860.46H1081.61M1488.08 0V15.8367M1488.08 15.8367V31.6734M1488.08 15.8367H1472.25M1488.08 15.8367H1503.92M1488.08 422.312V438.149M1488.08 438.149V453.985M1488.08 438.149H1472.25M1488.08 438.149H1503.92M1488.08 844.624V860.46M1488.08 860.46V876.297M1488.08 860.46H1472.25M1488.08 860.46H1503.92M1910.4 0V15.8367M1910.4 15.8367V31.6734M1910.4 15.8367H1894.56M1910.4 15.8367H1926.23M1910.4 422.312V438.149M1910.4 438.149V453.985M1910.4 438.149H1894.56M1910.4 438.149H1926.23M1910.4 844.624V860.46M1910.4 860.46V876.297M1910.4 860.46H1894.56M1910.4 860.46H1926.23" stroke="url(#paint13_radial_25_68)" stroke-opacity="0.61" stroke-width="1.61099"/>
</g>
<defs>
<linearGradient id="paint0_linear_25_68" x1="1523.96" y1="419.755" x2="1751.86" y2="419.755" gradientUnits="userSpaceOnUse">
<stop offset="0.634255" stop-color="#0A0618" stop-opacity="0"/>
<stop offset="0.792582" stop-color="#5030B9"/>
<stop offset="0.877576" stop-color="#9676FF"/>
</linearGradient>
<linearGradient id="paint1_linear_25_68" x1="1710.3" y1="261.964" x2="1710.3" y2="489.861" gradientUnits="userSpaceOnUse">
<stop offset="0.634255" stop-color="#0A0618" stop-opacity="0"/>
<stop offset="0.792582" stop-color="#5030B9"/>
<stop offset="0.877576" stop-color="#9676FF"/>
</linearGradient>
<linearGradient id="paint2_linear_25_68" x1="613.679" y1="344.208" x2="382.38" y2="344.208" gradientUnits="userSpaceOnUse">
<stop offset="0.634255" stop-color="#0A0618" stop-opacity="0"/>
<stop offset="0.792582" stop-color="#5030B9"/>
<stop offset="0.877576" stop-color="#9676FF"/>
</linearGradient>
<linearGradient id="paint3_linear_25_68" x1="780.555" y1="809.849" x2="671.708" y2="809.849" gradientUnits="userSpaceOnUse">
<stop offset="0.634255" stop-color="#0A0618" stop-opacity="0"/>
<stop offset="0.792582" stop-color="#5030B9"/>
<stop offset="0.877576" stop-color="#9676FF"/>
</linearGradient>
<linearGradient id="paint4_linear_25_68" x1="1592" y1="282" x2="1701" y2="733" gradientUnits="userSpaceOnUse">
<stop offset="0.0396666" stop-color="#B3C0FF" stop-opacity="0"/>
<stop offset="0.167416" stop-color="#B3C0FF"/>
<stop offset="0.47743" stop-color="#9466FF"/>
<stop offset="0.83" stop-color="#334ED5"/>
<stop offset="0.943319" stop-color="#334ED5" stop-opacity="0.1"/>
</linearGradient>
<linearGradient id="paint5_linear_25_68" x1="434.5" y1="178" x2="273.5" y2="720" gradientUnits="userSpaceOnUse">
<stop offset="0.0396666" stop-color="#B3C0FF" stop-opacity="0"/>
<stop offset="0.167416" stop-color="#B3C0FF"/>
<stop offset="0.47743" stop-color="#9466FF"/>
<stop offset="0.83" stop-color="#334ED5"/>
<stop offset="0.96" stop-color="#334ED5" stop-opacity="0.1"/>
</linearGradient>
<linearGradient id="paint6_linear_25_68" x1="710" y1="575.321" x2="710" y2="806.62" gradientUnits="userSpaceOnUse">
<stop offset="0.634255" stop-color="#0A0618" stop-opacity="0"/>
<stop offset="0.792582" stop-color="#5030B9"/>
<stop offset="0.877576" stop-color="#9676FF"/>
</linearGradient>
<linearGradient id="paint7_linear_25_68" x1="1243.04" y1="702.094" x2="1015.14" y2="702.094" gradientUnits="userSpaceOnUse">
<stop offset="0.634255" stop-color="#0A0618" stop-opacity="0"/>
<stop offset="0.792582" stop-color="#5030B9"/>
<stop offset="0.877576" stop-color="#9676FF"/>
</linearGradient>
<linearGradient id="paint8_linear_25_68" x1="1229.85" y1="298.803" x2="1229.85" y2="411.051" gradientUnits="userSpaceOnUse">
<stop offset="0.634255" stop-color="#0A0618" stop-opacity="0"/>
<stop offset="0.792582" stop-color="#5030B9"/>
<stop offset="0.877576" stop-color="#9676FF"/>
</linearGradient>
<radialGradient id="paint9_radial_25_68" cx="0" cy="0" r="1" gradientUnits="userSpaceOnUse" gradientTransform="translate(1281 328.5) rotate(153.633) scale(129.469 146.94)">
<stop offset="0.0941384" stop-color="#B3C0FF" stop-opacity="0"/>
<stop offset="0.193964" stop-color="#B3C0FF"/>
<stop offset="0.47743" stop-color="#9466FF"/>
<stop offset="0.733516" stop-color="#334ED5"/>
<stop offset="0.941076" stop-color="#334ED5" stop-opacity="0"/>
</radialGradient>
<radialGradient id="paint10_radial_25_68" cx="0" cy="0" r="1" gradientUnits="userSpaceOnUse" gradientTransform="translate(508 744.8) rotate(14.0257) scale(262.836 290.755)">
<stop offset="0.0941384" stop-color="#B3C0FF" stop-opacity="0"/>
<stop offset="0.193964" stop-color="#B3C0FF"/>
<stop offset="0.47743" stop-color="#9466FF"/>
<stop offset="0.871517" stop-color="#334ED5"/>
<stop offset="0.941076" stop-color="#334ED5" stop-opacity="0"/>
</radialGradient>
<radialGradient id="paint11_radial_25_68" cx="0" cy="0" r="1" gradientUnits="userSpaceOnUse" gradientTransform="translate(1060.5 645.5) rotate(63.6329) scale(129.469 146.94)">
<stop offset="0.0941384" stop-color="#B3C0FF" stop-opacity="0"/>
<stop offset="0.193964" stop-color="#B3C0FF"/>
<stop offset="0.47743" stop-color="#9466FF"/>
<stop offset="0.733516" stop-color="#334ED5"/>
<stop offset="0.941076" stop-color="#334ED5" stop-opacity="0"/>
</radialGradient>
<radialGradient id="paint12_radial_25_68" cx="0" cy="0" r="1" gradientUnits="userSpaceOnUse" gradientTransform="translate(960.358 543.727) rotate(90) scale(527.89 1161.36)">
<stop stop-color="white"/>
<stop offset="1" stop-color="white" stop-opacity="0"/>
</radialGradient>
<radialGradient id="paint13_radial_25_68" cx="0" cy="0" r="1" gradientUnits="userSpaceOnUse" gradientTransform="translate(960.194 543.726) rotate(90) scale(543.726 1177.19)">
<stop stop-color="white"/>
<stop offset="1" stop-color="white" stop-opacity="0"/>
</radialGradient>
</defs>
</svg>
