<svg width="165" height="38" viewBox="0 0 165 38" fill="none" xmlns="http://www.w3.org/2000/svg">
<path d="M7.80589 29.9227V7.49988H26.6319V0.918457H0V36.5041H27.0145V29.9227H7.80589Z" fill="white"/>
<path d="M65.585 36.5041V0.918457H92.2168V7.49988H73.3908V15.1527H90.6863V21.275H73.3908V29.9992H92.5995V36.5807H65.585V36.5041Z" fill="white"/>
<path d="M96.3492 18.826C96.3492 13.3924 97.8798 8.87727 101.017 5.43349C104.232 1.83666 108.517 0 113.874 0C119.231 0 123.517 1.83666 126.731 5.43349C129.792 8.87727 131.399 13.3159 131.399 18.826C131.399 24.1829 129.869 28.5451 126.731 31.9123C123.517 35.5092 119.231 37.2693 113.874 37.2693C108.517 37.2693 104.232 35.5092 101.017 31.9123C97.8798 28.5451 96.3492 24.1829 96.3492 18.826ZM104.155 18.826C104.155 22.1167 104.92 24.8717 106.374 27.0145C108.135 29.5399 110.583 30.7644 113.874 30.7644C117.165 30.7644 119.614 29.5399 121.374 27.0145C122.828 24.8717 123.593 22.1932 123.593 18.826C123.593 15.3822 122.828 12.5506 121.374 10.4078C119.69 7.8824 117.165 6.58142 113.874 6.58142C110.583 6.58142 108.058 7.8824 106.374 10.4078C104.92 12.5506 104.155 15.3822 104.155 18.826Z" fill="white"/>
<path d="M134.461 24.7188H142.037C142.037 26.9381 142.802 28.6217 144.409 29.7696C145.787 30.7645 147.623 31.3002 149.919 31.3002C151.679 31.3002 153.21 30.9941 154.434 30.4584C156.041 29.6931 156.883 28.4687 156.883 26.8616C156.883 24.7953 155.047 23.3413 151.373 22.2699C145.021 20.5097 141.654 19.4383 141.118 19.2087C137.445 17.4486 135.608 14.6936 135.608 10.8672C135.608 7.42341 136.986 4.74489 139.817 2.75515C142.343 0.995 145.404 0.0766602 148.924 0.0766602C152.98 0.0766602 156.348 0.995 158.873 2.75515C161.781 4.82142 163.235 7.7295 163.235 11.5559H155.659C155.429 7.95908 153.133 6.19893 148.618 6.19893C147.164 6.19893 145.94 6.50505 144.945 7.11728C143.797 7.88256 143.185 8.87741 143.185 10.2549C143.185 11.5559 143.797 12.4743 145.098 13.0865C146.093 13.5456 149.001 14.3875 153.746 15.6119C156.577 16.3007 158.643 17.1425 159.944 17.9843C162.853 19.821 164.307 22.4995 164.307 25.9432C164.307 29.3105 163.006 32.0655 160.48 34.1318C157.802 36.2746 154.128 37.346 149.46 37.346C145.174 37.346 141.654 36.3511 138.899 34.2848C135.991 31.989 134.461 28.8513 134.461 24.7188Z" fill="white"/>
<path d="M36.7066 15.0591L11.2943 15.0591V21.2441L36.7066 21.2441L38.7235 18.1516L36.7066 15.0591Z" fill="#5F6CFC"/>
<path d="M40.299 1.07568L31.2285 1.07568L42.6618 17.9207L30.2376 36.519H39.0794L51.4274 18.1494L40.299 1.07568Z" fill="#5F6CFC"/>
<path d="M54.0938 15.4054L63.8502 1.07568L54.7797 1.07568L49.7491 8.69789L54.0938 15.4054Z" fill="#5F6CFC"/>
<path d="M54.0938 22.1693L63.8502 36.499L54.7797 36.499L49.7491 28.8768L54.0938 22.1693Z" fill="#5F6CFC"/>
</svg>
