<svg width="154" height="59" viewBox="0 0 154 59" fill="none" xmlns="http://www.w3.org/2000/svg">
<path d="M70.6254 40.5301C68.6594 40.5301 67.0898 39.9989 65.9165 38.9366C64.7432 37.8585 64.1566 36.3523 64.1566 34.418V23.6921H66.7965V34.4655C66.7965 35.6071 67.1453 36.495 67.8429 37.1292C68.5405 37.7634 69.468 38.0805 70.6254 38.0805C71.7828 38.0805 72.7024 37.7634 73.3842 37.1292C74.0818 36.495 74.4306 35.6071 74.4306 34.4655V23.6921H77.0704V34.418C77.0704 36.3523 76.4838 37.8585 75.3106 38.9366C74.1373 39.9989 72.5756 40.5301 70.6254 40.5301Z" fill="#323232"/>
<path d="M80.2255 40.3398V28.3535H82.8178V30.3512C83.7374 28.8925 85.0533 28.1632 86.7657 28.1632C88.0499 28.1632 89.0884 28.5596 89.8812 29.3523C90.6898 30.1292 91.0941 31.1598 91.0941 32.444V40.3398H88.5018V33.0386C88.5018 32.2776 88.2798 31.6672 87.8359 31.2074C87.3919 30.7317 86.7974 30.4939 86.0522 30.4939C85.0375 30.4939 84.2447 30.8982 83.674 31.7068C83.1032 32.5154 82.8178 33.6411 82.8178 35.0839V40.3398H80.2255Z" fill="#323232"/>
<path d="M95.4215 26.3558C94.9459 26.3558 94.5495 26.1972 94.2324 25.8801C93.9153 25.5472 93.7568 25.1508 93.7568 24.691C93.7568 24.2153 93.9153 23.819 94.2324 23.5019C94.5495 23.1689 94.9459 23.0024 95.4215 23.0024C95.913 23.0024 96.3173 23.1689 96.6344 23.5019C96.9674 23.819 97.1339 24.2153 97.1339 24.691C97.1339 25.1508 96.9674 25.5472 96.6344 25.8801C96.3173 26.1972 95.913 26.3558 95.4215 26.3558ZM94.1373 40.3398V28.3535H96.7296V40.3398H94.1373Z" fill="#323232"/>
<path d="M103.942 40.5301C102.595 40.5301 101.477 40.1892 100.589 39.5074C99.717 38.8098 99.1224 37.9774 98.8053 37.0103L100.946 36.1065C101.437 37.6762 102.436 38.461 103.942 38.461C104.545 38.461 105.036 38.3104 105.417 38.0091C105.813 37.7079 106.011 37.3353 106.011 36.8914C106.011 36.4157 105.781 36.0431 105.322 35.7736C104.862 35.504 104.299 35.2979 103.633 35.1552C102.983 34.9967 102.333 34.8144 101.683 34.6082C101.033 34.3863 100.478 34.0137 100.018 33.4905C99.5584 32.9673 99.3285 32.2855 99.3285 31.4452C99.3285 30.4939 99.709 29.7091 100.47 29.0907C101.247 28.4724 102.278 28.1632 103.562 28.1632C104.687 28.1632 105.686 28.4407 106.558 28.9956C107.43 29.5347 107.993 30.2402 108.247 31.1122L106.107 32.016C105.964 31.4452 105.647 30.9933 105.155 30.6604C104.68 30.3274 104.156 30.1609 103.586 30.1609C103.015 30.1609 102.563 30.2719 102.23 30.4939C101.897 30.7 101.731 31.0012 101.731 31.3976C101.731 31.8098 101.96 32.1349 102.42 32.3727C102.88 32.5947 103.435 32.777 104.085 32.9197C104.751 33.0624 105.417 33.2447 106.083 33.4667C106.749 33.6887 107.311 34.085 107.771 34.6558C108.231 35.2266 108.461 35.9638 108.461 36.8676C108.461 37.914 108.041 38.786 107.2 39.4836C106.36 40.1812 105.274 40.5301 103.942 40.5301Z" fill="#323232"/>
<path d="M113.502 40.3398L109.792 28.3535H112.432L114.691 36.7249L117.283 28.3535H119.685L122.254 36.7249L124.513 28.3535H127.153L123.467 40.3398H121.065L118.472 31.9922L115.88 40.3398H113.502Z" fill="#323232"/>
<path d="M133.355 28.1632C134.909 28.1632 136.154 28.5834 137.089 29.4237C138.024 30.2481 138.492 31.3976 138.492 32.8721V40.3398H135.947V38.5086C135.599 39.111 135.083 39.6025 134.402 39.9831C133.72 40.3477 132.983 40.5301 132.19 40.5301C131.001 40.5301 130.034 40.1971 129.288 39.5312C128.543 38.8653 128.171 38.0171 128.171 36.9865C128.171 34.7034 130.01 33.3716 133.688 32.991L135.947 32.7532V32.5867C135.947 31.8574 135.71 31.2787 135.234 30.8506C134.774 30.4225 134.148 30.2085 133.355 30.2085C132.626 30.2085 132.023 30.4146 131.548 30.8268C131.072 31.2232 130.795 31.7781 130.715 32.4916L128.385 32.0635C128.575 30.8903 129.13 29.9469 130.049 29.2334C130.969 28.52 132.071 28.1632 133.355 28.1632ZM132.713 38.5323C133.712 38.5323 134.497 38.2232 135.067 37.6048C135.638 36.9865 135.932 36.1779 135.947 35.179V34.6796L133.664 34.9412C131.698 35.1632 130.715 35.8211 130.715 36.9151C130.715 37.3908 130.898 37.7792 131.262 38.0805C131.627 38.3817 132.111 38.5323 132.713 38.5323Z" fill="#323232"/>
<path d="M141.539 44.6682V28.3535H144.132V29.8755C144.481 29.3682 144.988 28.956 145.654 28.6389C146.32 28.3218 147.057 28.1632 147.866 28.1632C149.61 28.1632 150.981 28.734 151.98 29.8755C152.995 31.0171 153.502 32.5075 153.502 34.3466C153.502 36.1858 152.979 37.6762 151.932 38.8177C150.902 39.9593 149.499 40.5301 147.723 40.5301C146.994 40.5301 146.304 40.3874 145.654 40.102C145.004 39.8166 144.496 39.4361 144.132 38.9604V44.6682H141.539ZM144.917 37.2005C145.551 37.914 146.391 38.2707 147.437 38.2707C148.484 38.2707 149.324 37.914 149.958 37.2005C150.593 36.4712 150.91 35.5199 150.91 34.3466C150.91 33.1575 150.593 32.2062 149.958 31.4928C149.324 30.7793 148.484 30.4225 147.437 30.4225C146.391 30.4225 145.551 30.7793 144.917 31.4928C144.282 32.2062 143.965 33.1575 143.965 34.3466C143.965 35.5199 144.282 36.4712 144.917 37.2005Z" fill="#323232"/>
<path d="M20.3699 13.2758C19.7377 13.1855 19.7076 13.1554 20.0087 13.1253C20.5806 13.035 21.9052 13.1554 22.8385 13.3661C25.006 13.8779 26.9627 15.2025 29.0399 17.5205L29.5818 18.1527L30.3645 18.0323C33.7061 17.4904 37.138 17.9119 39.9979 19.2365C40.7806 19.5977 42.0149 20.3202 42.1654 20.5009C42.2256 20.5611 42.3159 20.9524 42.3761 21.3438C42.5869 22.7587 42.4966 23.8123 42.045 24.6251C41.8042 25.0767 41.8042 25.1971 41.9547 25.5885C42.0751 25.8895 42.4363 26.1003 42.7675 26.1003C43.49 26.1003 44.2426 24.9563 44.6039 23.3608L44.7544 22.7286L45.0253 23.0296C46.5606 24.7456 47.7648 27.1238 47.9454 28.8096L48.0056 29.2612L47.7347 28.8698C47.2831 28.1774 46.8617 27.7259 46.2897 27.3345C45.2662 26.6421 44.1824 26.4314 41.3225 26.2809C38.7335 26.1304 37.2584 25.9196 35.8134 25.438C33.3449 24.6251 32.0805 23.5715 29.1604 19.688C27.8659 17.9721 27.0531 17.0389 26.2402 16.2562C24.4641 14.5402 22.6879 13.6371 20.3699 13.2758Z" fill="#323232"/>
<path d="M42.7975 17.0993C42.8577 15.9553 43.0082 15.2027 43.3394 14.5103C43.4598 14.2394 43.5802 13.9985 43.6103 13.9985C43.6404 13.9985 43.5802 14.2093 43.4899 14.4501C43.2491 15.1124 43.2189 16.0456 43.3695 17.0993C43.5802 18.454 43.6705 18.6346 45.1155 20.1097C45.7778 20.8021 46.5605 21.6751 46.8616 22.0364L47.3733 22.6987L46.8616 22.217C46.2294 21.6149 44.7844 20.471 44.4532 20.3204C44.2425 20.2 44.2124 20.2 44.0619 20.3505C43.9415 20.471 43.9113 20.6516 43.9113 21.5246C43.8812 22.8793 43.7006 23.7222 43.2491 24.5952C43.0082 25.0468 42.9781 24.9565 43.1888 24.4447C43.3394 24.0534 43.3695 23.8727 43.3695 22.5783C43.3695 19.9592 43.0684 19.327 41.2321 18.2733C40.7805 18.0024 39.9978 17.611 39.5462 17.4003C39.0646 17.1896 38.7033 17.009 38.7334 17.009C38.7936 16.9488 40.5698 17.4605 41.2622 17.7616C42.3158 18.183 42.4964 18.2131 42.6169 18.183C42.7072 18.0927 42.7674 17.8519 42.7975 17.0993Z" fill="#323232"/>
<path d="M21.6038 21.5846C20.3394 19.8385 19.5266 17.1292 19.7072 15.1122L19.7674 14.48L20.0685 14.5402C20.6103 14.6305 21.5436 14.9918 21.9951 15.2627C23.1993 15.9852 23.7412 16.9786 24.253 19.4472C24.4035 20.1697 24.6142 21.0126 24.7045 21.2835C24.855 21.7351 25.427 22.7888 25.9087 23.4511C26.2398 23.9327 26.0291 24.1736 25.2765 24.1133C24.1325 23.9929 22.5972 22.9393 21.6038 21.5846Z" fill="#323232"/>
<path d="M41.2619 34.6802C35.3012 32.2719 33.1939 30.1947 33.1939 26.6725C33.1939 26.1607 33.224 25.7393 33.224 25.7393C33.2541 25.7393 33.4649 25.9199 33.7358 26.1306C34.94 27.094 36.2947 27.5154 40.0577 28.0573C42.2553 28.3884 43.5197 28.6293 44.6637 29.0206C48.3063 30.2248 50.5641 32.6933 51.106 36.0349C51.2565 36.9983 51.1662 38.8346 50.9254 39.798C50.7146 40.5506 50.1125 41.9354 49.962 41.9655C49.9319 41.9655 49.8717 41.8149 49.8717 41.5741C49.8115 40.3097 49.1793 39.1056 48.1257 38.1723C46.8613 37.0886 45.2356 36.2758 41.2619 34.6802Z" fill="#323232"/>
<path d="M37.0472 35.6735C36.987 35.2219 36.8365 34.6499 36.7462 34.4091L36.5957 33.9575L36.8666 34.2887C37.258 34.7402 37.559 35.2821 37.83 36.0347C38.0407 36.6067 38.0407 36.7873 38.0407 37.7206C38.0407 38.6237 38.0106 38.8344 37.83 39.3462C37.5289 40.159 37.1677 40.731 36.5656 41.3632C35.4818 42.477 34.0669 43.0791 32.0499 43.3501C31.6887 43.3802 30.6651 43.4705 29.762 43.5307C27.5042 43.6511 25.999 43.8919 24.6443 44.3736C24.4637 44.4338 24.283 44.494 24.2529 44.4639C24.1927 44.4037 25.1259 43.8618 25.8786 43.5006C26.9322 42.9888 28.016 42.7179 30.3942 42.2964C31.5683 42.1158 32.7724 41.8749 33.0735 41.7545C36.0538 40.8213 37.5289 38.5033 37.0472 35.6735Z" fill="#323232"/>
<path d="M39.787 40.5202C39.0043 38.8043 38.8236 37.1786 39.2451 35.6433C39.3053 35.4928 39.3655 35.3423 39.4257 35.3423C39.4859 35.3423 39.6666 35.4326 39.8472 35.553C40.2084 35.7938 40.961 36.2153 42.8877 37.269C45.3262 38.5935 46.711 39.6171 47.6743 40.7912C48.5172 41.8147 49.029 42.9888 49.2698 44.4338C49.4203 45.2466 49.33 47.2034 49.1193 48.0162C48.457 50.5751 46.9518 52.6221 44.7542 53.7962C44.423 53.9768 44.1521 54.0972 44.122 54.0972C44.0919 54.0972 44.2123 53.7962 44.3929 53.435C45.1154 51.8996 45.2057 50.4245 44.6639 48.7688C44.3327 47.7452 43.6403 46.511 42.2555 44.4338C40.5998 42.0254 40.2084 41.3932 39.787 40.5202Z" fill="#323232"/>
<path d="M17.3592 49.7324C19.587 47.8659 22.3264 46.5413 24.8552 46.1198C25.939 45.9392 27.7452 45.9994 28.7387 46.2704C30.3342 46.6918 31.7792 47.595 32.5318 48.7088C33.2543 49.7926 33.5854 50.7258 33.9166 52.803C34.037 53.6158 34.1875 54.4587 34.2176 54.6394C34.4585 55.7231 34.9401 56.566 35.5422 57.0176C36.4755 57.71 38.1011 57.7401 39.6966 57.138C39.9676 57.0477 40.2084 56.9574 40.2084 56.9875C40.2686 57.0477 39.4558 57.5896 38.9139 57.8605C38.1613 58.2519 37.5592 58.3723 36.7464 58.3723C35.3014 58.3723 34.0671 57.6197 33.0737 56.1145C32.8629 55.8134 32.4415 54.9404 32.0802 54.1276C31.0266 51.6891 30.4847 50.9666 29.2504 50.1538C28.1667 49.4614 26.7819 49.3109 25.7282 49.8227C24.3434 50.485 23.9822 52.2611 24.9455 53.3449C25.3369 53.7964 26.0594 54.1577 26.6615 54.248C27.7753 54.3985 28.7387 53.5255 28.7387 52.4116C28.7387 51.6891 28.4677 51.2677 27.7452 50.9365C26.7819 50.5151 25.7282 50.9967 25.7583 51.93C25.7583 52.3213 25.939 52.5622 26.3303 52.7428C26.5711 52.8632 26.5711 52.8632 26.3905 52.8331C25.5175 52.6525 25.3068 51.5687 25.9992 50.8763C26.8421 50.0334 28.6182 50.3947 29.2203 51.5687C29.4612 52.0504 29.4913 53.0137 29.2805 53.6158C28.7688 54.9404 27.3238 55.6328 25.8486 55.2414C24.8552 54.9705 24.4337 54.6996 23.2296 53.4653C21.1223 51.2978 20.3095 50.8763 17.299 50.4248L16.7271 50.3344L17.3592 49.7324Z" fill="#323232"/>
<path fill-rule="evenodd" clip-rule="evenodd" d="M1.52427 1.29448C8.53857 9.814 19.346 23.0599 19.8879 23.7824C20.3394 24.3845 20.1588 24.9565 19.4062 25.3779C18.9848 25.6187 18.1117 25.8596 17.6903 25.8596C17.2086 25.8596 16.6366 25.6187 16.2453 25.2274C15.9743 24.9565 14.8003 23.2405 12.1511 19.1162C10.1341 15.9553 8.41815 13.3362 8.38805 13.3061C8.26763 13.2459 8.26763 13.2459 11.9404 19.8086C14.2584 23.9329 15.011 25.408 15.011 25.5886C15.011 25.98 14.8906 26.1907 14.4089 26.7326C13.5961 27.6357 13.2348 28.6593 12.9639 30.7967C12.6629 33.1749 11.85 34.8608 9.53201 37.7207C8.17732 39.4065 7.96659 39.7075 7.63544 40.3999C7.21398 41.2429 7.09357 41.7245 7.03336 42.8083C6.97315 43.9523 7.09357 44.6748 7.42471 45.7585C7.72576 46.7218 8.0569 47.354 8.86972 48.5883C9.56212 49.6721 9.98358 50.4849 9.98358 50.7859C9.98358 51.0268 10.0438 51.0268 11.1275 50.7859C13.7165 50.1838 15.8539 49.1603 17.028 47.8959C17.7505 47.1132 17.9311 46.6917 17.9311 45.608C17.9311 44.9156 17.901 44.7651 17.7204 44.3436C17.4193 43.6813 16.8474 43.1394 15.6131 42.2965C13.9874 41.1827 13.295 40.2795 13.1144 39.0754C12.9639 38.0518 13.1445 37.3594 14.0477 35.4628C14.9809 33.5061 15.2217 32.6933 15.3722 30.7064C15.4626 29.442 15.6131 28.9302 15.9743 28.5389C16.3657 28.1174 16.6968 27.9669 17.6301 27.8465C19.1654 27.6357 20.1588 27.2444 20.9415 26.4918C21.6339 25.8596 21.935 25.2274 21.9651 24.2942L21.9952 23.6018L21.6038 23.1803C20.1889 21.5547 0.591042 0 0.500729 0C0.470624 0 0.952293 0.571981 1.52427 1.29448ZM10.7663 44.1028C11.0974 43.5308 10.9168 42.8083 10.3749 42.447C9.86316 42.1159 9.08045 42.2664 9.08045 42.718C9.08045 42.8384 9.14066 42.9588 9.32128 43.019C9.59222 43.1695 9.62233 43.3201 9.4116 43.6512C9.20087 43.9824 9.20086 44.2834 9.4718 44.4941C9.89326 44.8253 10.4652 44.6446 10.7663 44.1028Z" fill="#323232"/>
<path fill-rule="evenodd" clip-rule="evenodd" d="M22.9588 28.2677C22.2363 28.4784 21.5439 29.2611 21.3331 30.0438C21.2127 30.5255 21.2729 31.3985 21.4837 31.6695C21.8148 32.0909 22.1158 32.2113 22.9588 32.2113C24.6145 32.2113 26.0294 31.4888 26.1799 30.6158C26.3304 29.8933 25.6983 28.8999 24.8252 28.4483C24.3737 28.2075 23.4404 28.1172 22.9588 28.2677ZM24.8854 29.7729C25.1263 29.4116 25.036 29.0203 24.5844 28.7493C23.7716 28.2376 22.5373 28.659 22.5373 29.4417C22.5373 29.8331 23.1695 30.2546 23.7716 30.2546C24.1629 30.2546 24.7048 30.0137 24.8854 29.7729Z" fill="#323232"/>
</svg>
