<svg width="153" height="59" viewBox="0 0 153 59" fill="none" xmlns="http://www.w3.org/2000/svg">
<path d="M70.1247 40.5301C68.1587 40.5301 66.589 39.9989 65.4158 38.9366C64.2425 37.8585 63.6559 36.3523 63.6559 34.418V23.6921H66.2957V34.4655C66.2957 35.6071 66.6445 36.495 67.3422 37.1292C68.0398 37.7634 68.9673 38.0805 70.1247 38.0805C71.2821 38.0805 72.2017 37.7634 72.8834 37.1292C73.5811 36.495 73.9299 35.6071 73.9299 34.4655V23.6921H76.5697V34.418C76.5697 36.3523 75.9831 37.8585 74.8098 38.9366C73.6366 39.9989 72.0748 40.5301 70.1247 40.5301Z" fill="#4F4F4F"/>
<path d="M79.7248 40.3398V28.3535H82.3171V30.3512C83.2366 28.8925 84.5526 28.1632 86.2649 28.1632C87.5492 28.1632 88.5877 28.5596 89.3804 29.3523C90.189 30.1292 90.5933 31.1598 90.5933 32.444V40.3398H88.0011V33.0386C88.0011 32.2776 87.7791 31.6672 87.3351 31.2074C86.8912 30.7317 86.2966 30.4939 85.5515 30.4939C84.5368 30.4939 83.744 30.8982 83.1732 31.7068C82.6025 32.5154 82.3171 33.6411 82.3171 35.0839V40.3398H79.7248Z" fill="#4F4F4F"/>
<path d="M94.9208 26.3558C94.4451 26.3558 94.0488 26.1972 93.7317 25.8801C93.4146 25.5472 93.256 25.1508 93.256 24.691C93.256 24.2153 93.4146 23.819 93.7317 23.5019C94.0488 23.1689 94.4451 23.0024 94.9208 23.0024C95.4123 23.0024 95.8166 23.1689 96.1337 23.5019C96.4667 23.819 96.6331 24.2153 96.6331 24.691C96.6331 25.1508 96.4667 25.5472 96.1337 25.8801C95.8166 26.1972 95.4123 26.3558 94.9208 26.3558ZM93.6365 40.3398V28.3535H96.2288V40.3398H93.6365Z" fill="#4F4F4F"/>
<path d="M103.442 40.5301C102.094 40.5301 100.976 40.1892 100.088 39.5074C99.2162 38.8098 98.6217 37.9774 98.3046 37.0103L100.445 36.1065C100.937 37.6762 101.935 38.461 103.442 38.461C104.044 38.461 104.536 38.3104 104.916 38.0091C105.312 37.7079 105.511 37.3353 105.511 36.8914C105.511 36.4157 105.281 36.0431 104.821 35.7736C104.361 35.504 103.798 35.2979 103.132 35.1552C102.482 34.9967 101.832 34.8144 101.182 34.6082C100.532 34.3863 99.9773 34.0137 99.5175 33.4905C99.0577 32.9673 98.8278 32.2855 98.8278 31.4452C98.8278 30.4939 99.2083 29.7091 99.9693 29.0907C100.746 28.4724 101.777 28.1632 103.061 28.1632C104.187 28.1632 105.186 28.4407 106.058 28.9956C106.93 29.5347 107.493 30.2402 107.746 31.1122L105.606 32.016C105.463 31.4452 105.146 30.9933 104.654 30.6604C104.179 30.3274 103.656 30.1609 103.085 30.1609C102.514 30.1609 102.062 30.2719 101.729 30.4939C101.396 30.7 101.23 31.0012 101.23 31.3976C101.23 31.8098 101.46 32.1349 101.92 32.3727C102.379 32.5947 102.934 32.777 103.584 32.9197C104.25 33.0624 104.916 33.2447 105.582 33.4667C106.248 33.6887 106.811 34.085 107.271 34.6558C107.73 35.2266 107.96 35.9638 107.96 36.8676C107.96 37.914 107.54 38.786 106.7 39.4836C105.859 40.1812 104.773 40.5301 103.442 40.5301Z" fill="#4F4F4F"/>
<path d="M113.001 40.3398L109.291 28.3535H111.931L114.19 36.7249L116.783 28.3535H119.185L121.753 36.7249L124.012 28.3535H126.652L122.966 40.3398H120.564L117.972 31.9922L115.379 40.3398H113.001Z" fill="#4F4F4F"/>
<path d="M132.854 28.1632C134.408 28.1632 135.653 28.5834 136.588 29.4237C137.524 30.2481 137.991 31.3976 137.991 32.8721V40.3398H135.447V38.5086C135.098 39.111 134.583 39.6025 133.901 39.9831C133.219 40.3477 132.482 40.5301 131.689 40.5301C130.5 40.5301 129.533 40.1971 128.788 39.5312C128.042 38.8653 127.67 38.0171 127.67 36.9865C127.67 34.7034 129.509 33.3716 133.187 32.991L135.447 32.7532V32.5867C135.447 31.8574 135.209 31.2787 134.733 30.8506C134.273 30.4225 133.647 30.2085 132.854 30.2085C132.125 30.2085 131.523 30.4146 131.047 30.8268C130.571 31.2232 130.294 31.7781 130.215 32.4916L127.884 32.0635C128.074 30.8903 128.629 29.9469 129.549 29.2334C130.468 28.52 131.57 28.1632 132.854 28.1632ZM132.212 38.5323C133.211 38.5323 133.996 38.2232 134.567 37.6048C135.138 36.9865 135.431 36.1779 135.447 35.179V34.6796L133.164 34.9412C131.198 35.1632 130.215 35.8211 130.215 36.9151C130.215 37.3908 130.397 37.7792 130.762 38.0805C131.126 38.3817 131.61 38.5323 132.212 38.5323Z" fill="#4F4F4F"/>
<path d="M141.039 44.6682V28.3535H143.631V29.8755C143.98 29.3682 144.487 28.956 145.153 28.6389C145.819 28.3218 146.556 28.1632 147.365 28.1632C149.109 28.1632 150.48 28.734 151.479 29.8755C152.494 31.0171 153.001 32.5075 153.001 34.3466C153.001 36.1858 152.478 37.6762 151.432 38.8177C150.401 39.9593 148.998 40.5301 147.222 40.5301C146.493 40.5301 145.803 40.3874 145.153 40.102C144.503 39.8166 143.996 39.4361 143.631 38.9604V44.6682H141.039ZM144.416 37.2005C145.05 37.914 145.89 38.2707 146.937 38.2707C147.983 38.2707 148.824 37.914 149.458 37.2005C150.092 36.4712 150.409 35.5199 150.409 34.3466C150.409 33.1575 150.092 32.2062 149.458 31.4928C148.824 30.7793 147.983 30.4225 146.937 30.4225C145.89 30.4225 145.05 30.7793 144.416 31.4928C143.782 32.2062 143.465 33.1575 143.465 34.3466C143.465 35.5199 143.782 36.4712 144.416 37.2005Z" fill="#4F4F4F"/>
<path d="M19.8689 13.2758C19.2367 13.1855 19.2066 13.1554 19.5077 13.1253C20.0797 13.035 21.4042 13.1554 22.3375 13.3661C24.505 13.8779 26.4618 15.2025 28.539 17.5205L29.0808 18.1527L29.8636 18.0323C33.2051 17.4904 36.637 17.9119 39.4969 19.2365C40.2796 19.5977 41.5139 20.3202 41.6644 20.5009C41.7246 20.5611 41.815 20.9524 41.8752 21.3438C42.0859 22.7587 41.9956 23.8123 41.544 24.6251C41.3032 25.0767 41.3032 25.1971 41.4537 25.5885C41.5741 25.8895 41.9354 26.1003 42.2665 26.1003C42.989 26.1003 43.7416 24.9563 44.1029 23.3608L44.2534 22.7286L44.5243 23.0296C46.0597 24.7456 47.2638 27.1238 47.4445 28.8096L47.5047 29.2612L47.2337 28.8698C46.7822 28.1774 46.3607 27.7259 45.7887 27.3345C44.7652 26.6421 43.6814 26.4314 40.8215 26.2809C38.2325 26.1304 36.7574 25.9196 35.3124 25.438C32.8439 24.6251 31.5795 23.5715 28.6594 19.688C27.3649 17.9721 26.5521 17.0389 25.7393 16.2562C23.9631 14.5402 22.187 13.6371 19.8689 13.2758Z" fill="#4F4F4F"/>
<path d="M42.2967 17.0993C42.3569 15.9553 42.5075 15.2027 42.8386 14.5103C42.959 14.2394 43.0794 13.9985 43.1095 13.9985C43.1396 13.9985 43.0794 14.2093 42.9891 14.4501C42.7483 15.1124 42.7182 16.0456 42.8687 17.0993C43.0794 18.454 43.1697 18.6346 44.6148 20.1097C45.277 20.8021 46.0598 21.6751 46.3608 22.0364L46.8726 22.6987L46.3608 22.217C45.7286 21.6149 44.2836 20.471 43.9525 20.3204C43.7417 20.2 43.7116 20.2 43.5611 20.3505C43.4407 20.471 43.4106 20.6516 43.4106 21.5246C43.3805 22.8793 43.1999 23.7222 42.7483 24.5952C42.5075 25.0468 42.4774 24.9565 42.6881 24.4447C42.8386 24.0534 42.8687 23.8727 42.8687 22.5783C42.8687 19.9592 42.5677 19.327 40.7313 18.2733C40.2797 18.0024 39.497 17.611 39.0455 17.4003C38.5638 17.1896 38.2025 17.009 38.2326 17.009C38.2929 16.9488 40.069 17.4605 40.7614 17.7616C41.8151 18.183 41.9957 18.2131 42.1161 18.183C42.2064 18.0927 42.2666 17.8519 42.2967 17.0993Z" fill="#4F4F4F"/>
<path d="M21.1033 21.5846C19.8389 19.8385 19.0261 17.1292 19.2067 15.1122L19.2669 14.48L19.5679 14.5402C20.1098 14.6305 21.0431 14.9918 21.4946 15.2627C22.6988 15.9852 23.2407 16.9786 23.7524 19.4472C23.903 20.1697 24.1137 21.0126 24.204 21.2835C24.3545 21.7351 24.9265 22.7888 25.4082 23.4511C25.7393 23.9327 25.5286 24.1736 24.776 24.1133C23.632 23.9929 22.0967 22.9393 21.1033 21.5846Z" fill="#4F4F4F"/>
<path d="M40.7614 34.6802C34.8007 32.2719 32.6934 30.1947 32.6934 26.6725C32.6934 26.1607 32.7235 25.7393 32.7235 25.7393C32.7536 25.7393 32.9644 25.9199 33.2353 26.1306C34.4395 27.094 35.7942 27.5154 39.5572 28.0573C41.7548 28.3884 43.0192 28.6293 44.1632 29.0206C47.8058 30.2248 50.0636 32.6933 50.6055 36.0349C50.756 36.9983 50.6657 38.8346 50.4248 39.798C50.2141 40.5506 49.612 41.9354 49.4615 41.9655C49.4314 41.9655 49.3712 41.8149 49.3712 41.5741C49.311 40.3097 48.6788 39.1056 47.6251 38.1723C46.3608 37.0886 44.7351 36.2758 40.7614 34.6802Z" fill="#4F4F4F"/>
<path d="M36.5467 35.6735C36.4865 35.2219 36.336 34.6499 36.2457 34.4091L36.0952 33.9575L36.3661 34.2887C36.7575 34.7402 37.0585 35.2821 37.3294 36.0347C37.5402 36.6067 37.5402 36.7873 37.5402 37.7206C37.5402 38.6237 37.5101 38.8344 37.3294 39.3462C37.0284 40.159 36.6671 40.731 36.0651 41.3632C34.9813 42.477 33.5664 43.0791 31.5494 43.3501C31.1882 43.3802 30.1646 43.4705 29.2615 43.5307C27.0037 43.6511 25.4985 43.8919 24.1438 44.3736C23.9631 44.4338 23.7825 44.494 23.7524 44.4639C23.6922 44.4037 24.6254 43.8618 25.378 43.5006C26.4317 42.9888 27.5154 42.7179 29.8937 42.2964C31.0677 42.1158 32.2719 41.8749 32.573 41.7545C35.5533 40.8213 37.0284 38.5033 36.5467 35.6735Z" fill="#4F4F4F"/>
<path d="M39.2862 40.5202C38.5035 38.8043 38.3229 37.1786 38.7443 35.6433C38.8045 35.4928 38.8648 35.3423 38.925 35.3423C38.9852 35.3423 39.1658 35.4326 39.3464 35.553C39.7077 35.7938 40.4603 36.2153 42.387 37.269C44.8254 38.5935 46.2102 39.6171 47.1735 40.7912C48.0165 41.8147 48.5282 42.9888 48.7691 44.4338C48.9196 45.2466 48.8293 47.2034 48.6185 48.0162C47.9562 50.5751 46.451 52.6221 44.2534 53.7962C43.9223 53.9768 43.6513 54.0972 43.6212 54.0972C43.5911 54.0972 43.7115 53.7962 43.8922 53.435C44.6147 51.8996 44.705 50.4245 44.1631 48.7688C43.832 47.7452 43.1396 46.511 41.7548 44.4338C40.099 42.0254 39.7077 41.3932 39.2862 40.5202Z" fill="#4F4F4F"/>
<path d="M16.8588 49.7324C19.0865 47.8659 21.826 46.5413 24.3547 46.1198C25.4385 45.9392 27.2447 45.9994 28.2382 46.2704C29.8337 46.6918 31.2787 47.595 32.0313 48.7088C32.7538 49.7926 33.085 50.7258 33.4161 52.803C33.5365 53.6158 33.687 54.4587 33.7171 54.6394C33.958 55.7231 34.4396 56.566 35.0417 57.0176C35.975 57.71 37.6006 57.7401 39.1961 57.138C39.4671 57.0477 39.7079 56.9574 39.7079 56.9875C39.7681 57.0477 38.9553 57.5896 38.4134 57.8605C37.6608 58.2519 37.0587 58.3723 36.2459 58.3723C34.8009 58.3723 33.5666 57.6197 32.5732 56.1145C32.3625 55.8134 31.941 54.9404 31.5797 54.1276C30.5261 51.6891 29.9842 50.9666 28.7499 50.1538C27.6662 49.4614 26.2814 49.3109 25.2277 49.8227C23.8429 50.485 23.4817 52.2611 24.445 53.3449C24.8364 53.7964 25.5589 54.1577 26.161 54.248C27.2748 54.3985 28.2382 53.5255 28.2382 52.4116C28.2382 51.6891 27.9672 51.2677 27.2447 50.9365C26.2814 50.5151 25.2277 50.9967 25.2578 51.93C25.2578 52.3213 25.4385 52.5622 25.8298 52.7428C26.0707 52.8632 26.0707 52.8632 25.89 52.8331C25.017 52.6525 24.8063 51.5687 25.4987 50.8763C26.3416 50.0334 28.1178 50.3947 28.7198 51.5687C28.9607 52.0504 28.9908 53.0137 28.78 53.6158C28.2683 54.9404 26.8233 55.6328 25.3482 55.2414C24.3547 54.9705 23.9333 54.6996 22.7291 53.4653C20.6218 51.2978 19.809 50.8763 16.7985 50.4248L16.2266 50.3344L16.8588 49.7324Z" fill="#4F4F4F"/>
<path fill-rule="evenodd" clip-rule="evenodd" d="M1.02366 1.29448C8.03796 9.814 18.8454 23.0599 19.3873 23.7824C19.8388 24.3845 19.6582 24.9565 18.9056 25.3779C18.4841 25.6187 17.6111 25.8596 17.1897 25.8596C16.708 25.8596 16.136 25.6187 15.7447 25.2274C15.4737 24.9565 14.2997 23.2405 11.6505 19.1162C9.63349 15.9553 7.91754 13.3362 7.88744 13.3061C7.76702 13.2459 7.76702 13.2459 11.4397 19.8086C13.7578 23.9329 14.5104 25.408 14.5104 25.5886C14.5104 25.98 14.39 26.1907 13.9083 26.7326C13.0955 27.6357 12.7342 28.6593 12.4633 30.7967C12.1622 33.1749 11.3494 34.8608 9.0314 37.7207C7.67671 39.4065 7.46598 39.7075 7.13483 40.3999C6.71337 41.2429 6.59296 41.7245 6.53275 42.8083C6.47254 43.9523 6.59296 44.6748 6.9241 45.7585C7.22515 46.7218 7.55629 47.354 8.36911 48.5883C9.06151 49.6721 9.48297 50.4849 9.48297 50.7859C9.48297 51.0268 9.54317 51.0268 10.6269 50.7859C13.2159 50.1838 15.3533 49.1603 16.5274 47.8959C17.2499 47.1132 17.4305 46.6917 17.4305 45.608C17.4305 44.9156 17.4004 44.7651 17.2198 44.3436C16.9187 43.6813 16.3467 43.1394 15.1125 42.2965C13.4868 41.1827 12.7944 40.2795 12.6138 39.0754C12.4633 38.0518 12.6439 37.3594 13.547 35.4628C14.4803 33.5061 14.7211 32.6933 14.8716 30.7064C14.9619 29.442 15.1125 28.9302 15.4737 28.5389C15.8651 28.1174 16.1962 27.9669 17.1295 27.8465C18.6648 27.6357 19.6582 27.2444 20.4409 26.4918C21.1333 25.8596 21.4344 25.2274 21.4645 24.2942L21.4946 23.6018L21.1032 23.1803C19.6883 21.5547 0.0904312 0 0.000118349 0C-0.0299859 0 0.451683 0.571981 1.02366 1.29448ZM10.2657 44.1028C10.5968 43.5308 10.4162 42.8083 9.87432 42.447C9.36255 42.1159 8.57984 42.2664 8.57984 42.718C8.57984 42.8384 8.64005 42.9588 8.82067 43.019C9.09161 43.1695 9.12172 43.3201 8.91098 43.6512C8.70026 43.9824 8.70025 44.2834 8.97119 44.4941C9.39265 44.8253 9.96463 44.6446 10.2657 44.1028Z" fill="#4F4F4F"/>
<path fill-rule="evenodd" clip-rule="evenodd" d="M22.458 28.2677C21.7355 28.4784 21.0431 29.2611 20.8324 30.0438C20.712 30.5255 20.7722 31.3985 20.9829 31.6695C21.314 32.0909 21.6151 32.2113 22.458 32.2113C24.1137 32.2113 25.5286 31.4888 25.6792 30.6158C25.8297 29.8933 25.1975 28.8999 24.3245 28.4483C23.8729 28.2075 22.9397 28.1172 22.458 28.2677ZM24.3847 29.7729C24.6255 29.4116 24.5352 29.0203 24.0836 28.7493C23.2708 28.2376 22.0365 28.659 22.0365 29.4417C22.0365 29.8331 22.6687 30.2546 23.2708 30.2546C23.6622 30.2546 24.204 30.0137 24.3847 29.7729Z" fill="#4F4F4F"/>
</svg>
