<svg width="153" height="59" viewBox="0 0 153 59" fill="none" xmlns="http://www.w3.org/2000/svg">
<path d="M70.1257 40.5301C68.1597 40.5301 66.5901 39.9989 65.4168 38.9366C64.2435 37.8585 63.6569 36.3523 63.6569 34.418V23.6921H66.2967V34.4655C66.2967 35.6071 66.6455 36.495 67.3432 37.1292C68.0408 37.7634 68.9683 38.0805 70.1257 38.0805C71.2831 38.0805 72.2027 37.7634 72.8845 37.1292C73.5821 36.495 73.9309 35.6071 73.9309 34.4655V23.6921H76.5707V34.418C76.5707 36.3523 75.9841 37.8585 74.8108 38.9366C73.6376 39.9989 72.0759 40.5301 70.1257 40.5301Z" fill="#323232" fill-opacity="0.37"/>
<path d="M79.7258 40.3398V28.3535H82.3181V30.3512C83.2377 28.8925 84.5536 28.1632 86.2659 28.1632C87.5502 28.1632 88.5887 28.5596 89.3814 29.3523C90.19 30.1292 90.5943 31.1598 90.5943 32.444V40.3398H88.0021V33.0386C88.0021 32.2776 87.7801 31.6672 87.3362 31.2074C86.8922 30.7317 86.2977 30.4939 85.5525 30.4939C84.5378 30.4939 83.745 30.8982 83.1742 31.7068C82.6035 32.5154 82.3181 33.6411 82.3181 35.0839V40.3398H79.7258Z" fill="#323232" fill-opacity="0.37"/>
<path d="M94.9218 26.3558C94.4462 26.3558 94.0498 26.1972 93.7327 25.8801C93.4156 25.5472 93.257 25.1508 93.257 24.691C93.257 24.2153 93.4156 23.819 93.7327 23.5019C94.0498 23.1689 94.4462 23.0024 94.9218 23.0024C95.4133 23.0024 95.8176 23.1689 96.1347 23.5019C96.4677 23.819 96.6341 24.2153 96.6341 24.691C96.6341 25.1508 96.4677 25.5472 96.1347 25.8801C95.8176 26.1972 95.4133 26.3558 94.9218 26.3558ZM93.6376 40.3398V28.3535H96.2298V40.3398H93.6376Z" fill="#323232" fill-opacity="0.37"/>
<path d="M103.443 40.5301C102.095 40.5301 100.977 40.1892 100.089 39.5074C99.2172 38.8098 98.6227 37.9774 98.3056 37.0103L100.446 36.1065C100.938 37.6762 101.936 38.461 103.443 38.461C104.045 38.461 104.537 38.3104 104.917 38.0091C105.313 37.7079 105.512 37.3353 105.512 36.8914C105.512 36.4157 105.282 36.0431 104.822 35.7736C104.362 35.504 103.799 35.2979 103.133 35.1552C102.483 34.9967 101.833 34.8144 101.183 34.6082C100.533 34.3863 99.9783 34.0137 99.5185 33.4905C99.0587 32.9673 98.8288 32.2855 98.8288 31.4452C98.8288 30.4939 99.2093 29.7091 99.9704 29.0907C100.747 28.4724 101.778 28.1632 103.062 28.1632C104.188 28.1632 105.187 28.4407 106.059 28.9956C106.931 29.5347 107.494 30.2402 107.747 31.1122L105.607 32.016C105.464 31.4452 105.147 30.9933 104.655 30.6604C104.18 30.3274 103.657 30.1609 103.086 30.1609C102.515 30.1609 102.063 30.2719 101.73 30.4939C101.397 30.7 101.231 31.0012 101.231 31.3976C101.231 31.8098 101.461 32.1349 101.921 32.3727C102.38 32.5947 102.935 32.777 103.585 32.9197C104.251 33.0624 104.917 33.2447 105.583 33.4667C106.249 33.6887 106.812 34.085 107.272 34.6558C107.731 35.2266 107.961 35.9638 107.961 36.8676C107.961 37.914 107.541 38.786 106.701 39.4836C105.86 40.1812 104.774 40.5301 103.443 40.5301Z" fill="#323232" fill-opacity="0.37"/>
<path d="M113.002 40.3398L109.292 28.3535H111.932L114.191 36.7249L116.784 28.3535H119.186L121.754 36.7249L124.013 28.3535H126.653L122.967 40.3398H120.565L117.973 31.9922L115.38 40.3398H113.002Z" fill="#323232" fill-opacity="0.37"/>
<path d="M132.855 28.1632C134.409 28.1632 135.654 28.5834 136.589 29.4237C137.525 30.2481 137.992 31.3976 137.992 32.8721V40.3398H135.448V38.5086C135.099 39.111 134.584 39.6025 133.902 39.9831C133.22 40.3477 132.483 40.5301 131.69 40.5301C130.501 40.5301 129.534 40.1971 128.789 39.5312C128.043 38.8653 127.671 38.0171 127.671 36.9865C127.671 34.7034 129.51 33.3716 133.188 32.991L135.448 32.7532V32.5867C135.448 31.8574 135.21 31.2787 134.734 30.8506C134.274 30.4225 133.648 30.2085 132.855 30.2085C132.126 30.2085 131.524 30.4146 131.048 30.8268C130.572 31.2232 130.295 31.7781 130.216 32.4916L127.885 32.0635C128.075 30.8903 128.63 29.9469 129.55 29.2334C130.469 28.52 131.571 28.1632 132.855 28.1632ZM132.213 38.5323C133.212 38.5323 133.997 38.2232 134.568 37.6048C135.139 36.9865 135.432 36.1779 135.448 35.179V34.6796L133.165 34.9412C131.199 35.1632 130.216 35.8211 130.216 36.9151C130.216 37.3908 130.398 37.7792 130.763 38.0805C131.127 38.3817 131.611 38.5323 132.213 38.5323Z" fill="#323232" fill-opacity="0.37"/>
<path d="M141.04 44.6682V28.3535H143.632V29.8755C143.981 29.3682 144.488 28.956 145.154 28.6389C145.82 28.3218 146.557 28.1632 147.366 28.1632C149.11 28.1632 150.481 28.734 151.48 29.8755C152.495 31.0171 153.002 32.5075 153.002 34.3466C153.002 36.1858 152.479 37.6762 151.433 38.8177C150.402 39.9593 148.999 40.5301 147.223 40.5301C146.494 40.5301 145.804 40.3874 145.154 40.102C144.504 39.8166 143.997 39.4361 143.632 38.9604V44.6682H141.04ZM144.417 37.2005C145.051 37.914 145.891 38.2707 146.938 38.2707C147.984 38.2707 148.825 37.914 149.459 37.2005C150.093 36.4712 150.41 35.5199 150.41 34.3466C150.41 33.1575 150.093 32.2062 149.459 31.4928C148.825 30.7793 147.984 30.4225 146.938 30.4225C145.891 30.4225 145.051 30.7793 144.417 31.4928C143.783 32.2062 143.466 33.1575 143.466 34.3466C143.466 35.5199 143.783 36.4712 144.417 37.2005Z" fill="#323232" fill-opacity="0.37"/>
<path d="M19.8702 13.2758C19.238 13.1855 19.2079 13.1554 19.5089 13.1253C20.0809 13.035 21.4055 13.1554 22.3387 13.3661C24.5063 13.8779 26.463 15.2025 28.5402 17.5205L29.0821 18.1527L29.8648 18.0323C33.2064 17.4904 36.6383 17.9119 39.4982 19.2365C40.2809 19.5977 41.5152 20.3202 41.6657 20.5009C41.7259 20.5611 41.8162 20.9524 41.8764 21.3438C42.0872 22.7587 41.9968 23.8123 41.5453 24.6251C41.3044 25.0767 41.3044 25.1971 41.455 25.5885C41.5754 25.8895 41.9366 26.1003 42.2678 26.1003C42.9903 26.1003 43.7429 24.9563 44.1041 23.3608L44.2547 22.7286L44.5256 23.0296C46.0609 24.7456 47.2651 27.1238 47.4457 28.8096L47.5059 29.2612L47.235 28.8698C46.7834 28.1774 46.362 27.7259 45.79 27.3345C44.7664 26.6421 43.6827 26.4314 40.8228 26.2809C38.2338 26.1304 36.7587 25.9196 35.3137 25.438C32.8451 24.6251 31.5808 23.5715 28.6606 19.688C27.3662 17.9721 26.5533 17.0389 25.7405 16.2562C23.9644 14.5402 22.1882 13.6371 19.8702 13.2758Z" fill="#323232" fill-opacity="0.37"/>
<path d="M42.2978 17.0993C42.358 15.9553 42.5085 15.2027 42.8396 14.5103C42.9601 14.2394 43.0805 13.9985 43.1106 13.9985C43.1407 13.9985 43.0805 14.2093 42.9902 14.4501C42.7493 15.1124 42.7192 16.0456 42.8697 17.0993C43.0805 18.454 43.1708 18.6346 44.6158 20.1097C45.2781 20.8021 46.0608 21.6751 46.3618 22.0364L46.8736 22.6987L46.3618 22.217C45.7297 21.6149 44.2846 20.471 43.9535 20.3204C43.7428 20.2 43.7127 20.2 43.5621 20.3505C43.4417 20.471 43.4116 20.6516 43.4116 21.5246C43.3815 22.8793 43.2009 23.7222 42.7493 24.5952C42.5085 25.0468 42.4784 24.9565 42.6891 24.4447C42.8396 24.0534 42.8697 23.8727 42.8697 22.5783C42.8697 19.9592 42.5687 19.327 40.7323 18.2733C40.2808 18.0024 39.4981 17.611 39.0465 17.4003C38.5648 17.1896 38.2036 17.009 38.2337 17.009C38.2939 16.9488 40.07 17.4605 40.7624 17.7616C41.8161 18.183 41.9967 18.2131 42.1171 18.183C42.2074 18.0927 42.2677 17.8519 42.2978 17.0993Z" fill="#323232" fill-opacity="0.37"/>
<path d="M21.1043 21.5846C19.8399 19.8385 19.0271 17.1292 19.2077 15.1122L19.2679 14.48L19.569 14.5402C20.1108 14.6305 21.0441 14.9918 21.4956 15.2627C22.6998 15.9852 23.2417 16.9786 23.7535 19.4472C23.904 20.1697 24.1147 21.0126 24.205 21.2835C24.3555 21.7351 24.9275 22.7888 25.4092 23.4511C25.7403 23.9327 25.5296 24.1736 24.777 24.1133C23.633 23.9929 22.0977 22.9393 21.1043 21.5846Z" fill="#323232" fill-opacity="0.37"/>
<path d="M40.7624 34.6802C34.8017 32.2719 32.6944 30.1947 32.6944 26.6725C32.6944 26.1607 32.7245 25.7393 32.7245 25.7393C32.7546 25.7393 32.9654 25.9199 33.2363 26.1306C34.4405 27.094 35.7952 27.5154 39.5582 28.0573C41.7558 28.3884 43.0202 28.6293 44.1642 29.0206C47.8068 30.2248 50.0646 32.6933 50.6065 36.0349C50.757 36.9983 50.6667 38.8346 50.4258 39.798C50.2151 40.5506 49.613 41.9354 49.4625 41.9655C49.4324 41.9655 49.3722 41.8149 49.3722 41.5741C49.312 40.3097 48.6798 39.1056 47.6262 38.1723C46.3618 37.0886 44.7361 36.2758 40.7624 34.6802Z" fill="#323232" fill-opacity="0.37"/>
<path d="M36.5478 35.6735C36.4875 35.2219 36.337 34.6499 36.2467 34.4091L36.0962 33.9575L36.3671 34.2887C36.7585 34.7402 37.0595 35.2821 37.3305 36.0347C37.5412 36.6067 37.5412 36.7873 37.5412 37.7206C37.5412 38.6237 37.5111 38.8344 37.3305 39.3462C37.0294 40.159 36.6682 40.731 36.0661 41.3632C34.9823 42.477 33.5674 43.0791 31.5504 43.3501C31.1892 43.3802 30.1656 43.4705 29.2625 43.5307C27.0047 43.6511 25.4995 43.8919 24.1448 44.3736C23.9642 44.4338 23.7835 44.494 23.7534 44.4639C23.6932 44.4037 24.6265 43.8618 25.3791 43.5006C26.4327 42.9888 27.5165 42.7179 29.8947 42.2964C31.0688 42.1158 32.2729 41.8749 32.574 41.7545C35.5543 40.8213 37.0294 38.5033 36.5478 35.6735Z" fill="#323232" fill-opacity="0.37"/>
<path d="M39.2873 40.5202C38.5045 38.8043 38.3239 37.1786 38.7454 35.6433C38.8056 35.4928 38.8658 35.3423 38.926 35.3423C38.9862 35.3423 39.1668 35.4326 39.3475 35.553C39.7087 35.7938 40.4613 36.2153 42.388 37.269C44.8264 38.5935 46.2112 39.6171 47.1746 40.7912C48.0175 41.8147 48.5293 42.9888 48.7701 44.4338C48.9206 45.2466 48.8303 47.2034 48.6196 48.0162C47.9573 50.5751 46.4521 52.6221 44.2545 53.7962C43.9233 53.9768 43.6524 54.0972 43.6223 54.0972C43.5922 54.0972 43.7126 53.7962 43.8932 53.435C44.6157 51.8996 44.706 50.4245 44.1641 48.7688C43.833 47.7452 43.1406 46.511 41.7558 44.4338C40.1001 42.0254 39.7087 41.3932 39.2873 40.5202Z" fill="#323232" fill-opacity="0.37"/>
<path d="M16.8598 49.7324C19.0875 47.8659 21.827 46.5413 24.3557 46.1198C25.4395 45.9392 27.2457 45.9994 28.2392 46.2704C29.8347 46.6918 31.2797 47.595 32.0323 48.7088C32.7548 49.7926 33.086 50.7258 33.4171 52.803C33.5375 53.6158 33.688 54.4587 33.7181 54.6394C33.959 55.7231 34.4406 56.566 35.0427 57.0176C35.976 57.71 37.6016 57.7401 39.1971 57.138C39.4681 57.0477 39.7089 56.9574 39.7089 56.9875C39.7691 57.0477 38.9563 57.5896 38.4144 57.8605C37.6618 58.2519 37.0597 58.3723 36.2469 58.3723C34.8019 58.3723 33.5676 57.6197 32.5742 56.1145C32.3635 55.8134 31.942 54.9404 31.5807 54.1276C30.5271 51.6891 29.9852 50.9666 28.7509 50.1538C27.6672 49.4614 26.2824 49.3109 25.2287 49.8227C23.8439 50.485 23.4827 52.2611 24.446 53.3449C24.8374 53.7964 25.5599 54.1577 26.162 54.248C27.2758 54.3985 28.2392 53.5255 28.2392 52.4116C28.2392 51.6891 27.9682 51.2677 27.2457 50.9365C26.2824 50.5151 25.2287 50.9967 25.2588 51.93C25.2588 52.3213 25.4395 52.5622 25.8308 52.7428C26.0717 52.8632 26.0717 52.8632 25.891 52.8331C25.018 52.6525 24.8073 51.5687 25.4997 50.8763C26.3426 50.0334 28.1188 50.3947 28.7208 51.5687C28.9617 52.0504 28.9918 53.0137 28.781 53.6158C28.2693 54.9404 26.8243 55.6328 25.3492 55.2414C24.3557 54.9705 23.9343 54.6996 22.7301 53.4653C20.6228 51.2978 19.81 50.8763 16.7995 50.4248L16.2276 50.3344L16.8598 49.7324Z" fill="#323232" fill-opacity="0.37"/>
<path fill-rule="evenodd" clip-rule="evenodd" d="M1.02488 1.29448C8.03918 9.814 18.8466 23.0599 19.3885 23.7824C19.8401 24.3845 19.6594 24.9565 18.9068 25.3779C18.4854 25.6187 17.6123 25.8596 17.1909 25.8596C16.7092 25.8596 16.1372 25.6187 15.7459 25.2274C15.4749 24.9565 14.3009 23.2405 11.6517 19.1162C9.63471 15.9553 7.91876 13.3362 7.88866 13.3061C7.76824 13.2459 7.76824 13.2459 11.441 19.8086C13.759 23.9329 14.5116 25.408 14.5116 25.5886C14.5116 25.98 14.3912 26.1907 13.9095 26.7326C13.0967 27.6357 12.7354 28.6593 12.4645 30.7967C12.1635 33.1749 11.3507 34.8608 9.03262 37.7207C7.67793 39.4065 7.4672 39.7075 7.13605 40.3999C6.71459 41.2429 6.59418 41.7245 6.53397 42.8083C6.47376 43.9523 6.59418 44.6748 6.92532 45.7585C7.22637 46.7218 7.55751 47.354 8.37033 48.5883C9.06273 49.6721 9.48419 50.4849 9.48419 50.7859C9.48419 51.0268 9.5444 51.0268 10.6281 50.7859C13.2171 50.1838 15.3545 49.1603 16.5286 47.8959C17.2511 47.1132 17.4317 46.6917 17.4317 45.608C17.4317 44.9156 17.4016 44.7651 17.221 44.3436C16.9199 43.6813 16.348 43.1394 15.1137 42.2965C13.4881 41.1827 12.7957 40.2795 12.615 39.0754C12.4645 38.0518 12.6451 37.3594 13.5483 35.4628C14.4815 33.5061 14.7223 32.6933 14.8729 30.7064C14.9632 29.442 15.1137 28.9302 15.4749 28.5389C15.8663 28.1174 16.1974 27.9669 17.1307 27.8465C18.666 27.6357 19.6594 27.2444 20.4421 26.4918C21.1345 25.8596 21.4356 25.2274 21.4657 24.2942L21.4958 23.6018L21.1044 23.1803C19.6895 21.5547 0.0916519 0 0.00133905 0C-0.0287652 0 0.452903 0.571981 1.02488 1.29448ZM10.2669 44.1028C10.598 43.5308 10.4174 42.8083 9.87554 42.447C9.36377 42.1159 8.58106 42.2664 8.58106 42.718C8.58106 42.8384 8.64127 42.9588 8.82189 43.019C9.09283 43.1695 9.12294 43.3201 8.91221 43.6512C8.70148 43.9824 8.70148 44.2834 8.97241 44.4941C9.39387 44.8253 9.96585 44.6446 10.2669 44.1028Z" fill="#323232" fill-opacity="0.37"/>
<path fill-rule="evenodd" clip-rule="evenodd" d="M22.459 28.2677C21.7365 28.4784 21.0441 29.2611 20.8334 30.0438C20.713 30.5255 20.7732 31.3985 20.9839 31.6695C21.3151 32.0909 21.6161 32.2113 22.459 32.2113C24.1148 32.2113 25.5297 31.4888 25.6802 30.6158C25.8307 29.8933 25.1985 28.8999 24.3255 28.4483C23.8739 28.2075 22.9407 28.1172 22.459 28.2677ZM24.3857 29.7729C24.6265 29.4116 24.5362 29.0203 24.0847 28.7493C23.2718 28.2376 22.0376 28.659 22.0376 29.4417C22.0376 29.8331 22.6698 30.2546 23.2718 30.2546C23.6632 30.2546 24.2051 30.0137 24.3857 29.7729Z" fill="#323232" fill-opacity="0.37"/>
</svg>
