<svg width="32" height="30" viewBox="0 0 32 30" fill="none" xmlns="http://www.w3.org/2000/svg">
<path fill-rule="evenodd" clip-rule="evenodd" d="M3.42698 2.30769C3.12386 2.30769 2.83315 2.42926 2.61881 2.64565C2.40447 2.86203 2.28406 3.15552 2.28406 3.46154C2.28406 3.76756 2.40447 4.06104 2.61881 4.27743C2.83315 4.49382 3.12386 4.61538 3.42698 4.61538C3.73011 4.61538 4.02081 4.49382 4.23515 4.27743C4.44949 4.06104 4.56991 3.76756 4.56991 3.46154C4.56991 3.15552 4.44949 2.86203 4.23515 2.64565C4.02081 2.42926 3.73011 2.30769 3.42698 2.30769ZM3.42698 4.75931e-07C4.13634 -0.000374954 4.82836 0.221372 5.40765 0.63468C5.98695 1.04799 6.42501 1.63251 6.66146 2.30769H11.0229C11.7083 2.30758 12.378 2.51484 12.9456 2.90274C13.5131 3.29064 13.9526 3.84137 14.2071 4.48385L17.917 13.8462H26.2855C26.5886 13.8462 26.8793 13.9677 27.0937 14.1841C27.308 14.4005 27.4284 14.694 27.4284 15C27.4284 15.306 27.308 15.5995 27.0937 15.8159C26.8793 16.0323 26.5886 16.1538 26.2855 16.1538H17.917L14.2071 25.5161C13.9526 26.1586 13.5131 26.7094 12.9456 27.0973C12.378 27.4852 11.7083 27.6924 11.0229 27.6923H6.66146C6.39185 28.4622 5.86134 29.111 5.16368 29.5242C4.46603 29.9373 3.64615 30.0882 2.84897 29.9501C2.05178 29.8121 1.32861 29.3939 0.807275 28.7696C0.285938 28.1453 9.1389e-07 27.355 9.1389e-07 26.5385C9.1389e-07 25.7219 0.285938 24.9316 0.807275 24.3073C1.32861 23.683 2.05178 23.2649 2.84897 23.1268C3.64615 22.9887 4.46603 23.1396 5.16368 23.5527C5.86134 23.9659 6.39185 24.6147 6.66146 25.3846H11.0229C11.2511 25.3846 11.4741 25.3155 11.6632 25.1864C11.8522 25.0572 11.9986 24.8739 12.0835 24.66L15.4529 16.1538H6.66146C6.39185 16.9237 5.86134 17.5726 5.16368 17.9857C4.46603 18.3989 3.64615 18.5498 2.84897 18.4117C2.05178 18.2736 1.32861 17.8555 0.807275 17.2311C0.285938 16.6068 9.1389e-07 15.8166 9.1389e-07 15C9.1389e-07 14.1834 0.285938 13.3932 0.807275 12.7689C1.32861 12.1445 2.05178 11.7264 2.84897 11.5883C3.64615 11.4502 4.46603 11.6011 5.16368 12.0143C5.86134 12.4274 6.39185 13.0763 6.66146 13.8462H15.4506L12.0835 5.34C11.9986 5.12611 11.8522 4.94278 11.6632 4.81363C11.4741 4.68448 11.2511 4.61544 11.0229 4.61538H6.66146C6.45195 5.21363 6.08359 5.74223 5.59663 6.14341C5.10967 6.54459 4.52285 6.80293 3.90029 6.89019C3.27773 6.97745 2.64339 6.89027 2.06659 6.63818C1.4898 6.38609 0.992729 5.9788 0.629713 5.4608C0.266697 4.9428 0.0517002 4.33403 0.00821664 3.70102C-0.0352669 3.068 0.0944359 2.4351 0.383152 1.87147C0.671867 1.30785 1.10849 0.835181 1.6453 0.505127C2.18211 0.175074 2.79845 0.000333188 3.42698 4.75931e-07ZM3.42698 25.3846C3.73011 25.3846 4.02081 25.5062 4.23515 25.7226C4.44949 25.939 4.56991 26.2324 4.56991 26.5385C4.56991 26.8445 4.44949 27.138 4.23515 27.3543C4.02081 27.5707 3.73011 27.6923 3.42698 27.6923C3.12386 27.6923 2.83315 27.5707 2.61881 27.3543C2.40447 27.138 2.28406 26.8445 2.28406 26.5385C2.28406 26.2324 2.40447 25.939 2.61881 25.7226C2.83315 25.5062 3.12386 25.3846 3.42698 25.3846ZM4.56991 15C4.56991 14.694 4.44949 14.4005 4.23515 14.1841C4.02081 13.9677 3.73011 13.8462 3.42698 13.8462C3.12386 13.8462 2.83315 13.9677 2.61881 14.1841C2.40447 14.4005 2.28406 14.694 2.28406 15C2.28406 15.306 2.40447 15.5995 2.61881 15.8159C2.83315 16.0323 3.12386 16.1538 3.42698 16.1538C3.73011 16.1538 4.02081 16.0323 4.23515 15.8159C4.44949 15.5995 4.56991 15.306 4.56991 15ZM25.9518 7.26C25.7372 7.04334 25.4461 6.92162 25.1426 6.92162C24.8391 6.92162 24.548 7.04334 24.3334 7.26C24.1188 7.47666 23.9982 7.77052 23.9982 8.07692C23.9982 8.38333 24.1188 8.67718 24.3334 8.89384L29.2411 13.8462C29.3912 13.9977 29.5103 14.1775 29.5916 14.3755C29.6728 14.5735 29.7146 14.7857 29.7146 15C29.7146 15.2143 29.6728 15.4265 29.5916 15.6245C29.5103 15.8225 29.3912 16.0023 29.2411 16.1538L24.3334 21.1061C24.1188 21.3228 23.9982 21.6167 23.9982 21.9231C23.9982 22.2295 24.1188 22.5233 24.3334 22.74C24.548 22.9567 24.8391 23.0784 25.1426 23.0784C25.4461 23.0784 25.7372 22.9567 25.9518 22.74L30.8572 17.7854C31.5889 17.0466 32 16.0447 32 15C32 13.9553 31.5889 12.9534 30.8572 12.2146L25.9518 7.26Z" fill="url(#paint0_radial_1_307)"/>
<defs>
<radialGradient id="paint0_radial_1_307" cx="0" cy="0" r="1" gradientUnits="userSpaceOnUse" gradientTransform="translate(4.74576 1.65254) rotate(58.1557) scale(35.4652 36.5543)">
<stop offset="0.00868034" stop-color="#B3C0FF"/>
<stop offset="0.47743" stop-color="#9466FF"/>
<stop offset="1" stop-color="#334ED5"/>
</radialGradient>
</defs>
</svg>
