<svg width="33" height="33" viewBox="0 0 33 33" fill="none" xmlns="http://www.w3.org/2000/svg">
<path d="M20.125 32.9565C19.625 33.0687 19.1872 32.9638 18.8117 32.6417C18.4361 32.3196 18.2489 31.8774 18.25 31.3151C18.25 30.9222 18.3822 30.5642 18.6467 30.241C18.9111 29.9177 19.2372 29.7005 19.625 29.5894C20.3194 29.4211 20.9933 29.2039 21.6467 28.9379C22.3 28.6719 22.9317 28.3419 23.5417 27.948C23.9028 27.7235 24.2989 27.6326 24.73 27.6753C25.1611 27.7179 25.515 27.879 25.7917 28.1584C26.1806 28.5512 26.3544 29.0002 26.3133 29.5053C26.2722 30.0103 26.0289 30.4031 25.5833 30.6837C24.7222 31.2449 23.84 31.7079 22.9367 32.0726C22.0333 32.4374 21.0961 32.732 20.125 32.9565ZM28.1667 25.7594C27.8889 25.4788 27.7289 25.1281 27.6867 24.7072C27.6444 24.2863 27.735 23.9075 27.9583 23.5708C28.3194 22.9535 28.6389 22.3222 28.9167 21.6768C29.1944 21.0315 29.4167 20.344 29.5833 19.6145C29.6944 19.2217 29.9167 18.885 30.25 18.6044C30.5833 18.3238 30.9444 18.1835 31.3333 18.1835C31.8889 18.1835 32.3261 18.3799 32.645 18.7727C32.9639 19.1655 33.0544 19.6145 32.9167 20.1195C32.6944 21.1297 32.3956 22.091 32.02 23.0034C31.6444 23.9159 31.1794 24.7784 30.625 25.591C30.3472 26.0119 29.9656 26.2437 29.48 26.2863C28.9944 26.329 28.5567 26.1533 28.1667 25.7594ZM31.2917 14.8164C30.9028 14.8164 30.5483 14.6761 30.2283 14.3955C29.9083 14.1149 29.6933 13.7782 29.5833 13.3854C29.4167 12.6559 29.1944 11.9617 28.9167 11.3029C28.6389 10.644 28.3194 10.0195 27.9583 9.4291C27.7361 9.09239 27.6461 8.7136 27.6883 8.29271C27.7306 7.87183 27.89 7.52109 28.1667 7.2405C28.5556 6.84768 28.9933 6.66529 29.48 6.69335C29.9667 6.72141 30.3483 6.94588 30.625 7.36677C31.1806 8.18048 31.6528 9.0576 32.0417 9.99813C32.4306 10.9387 32.7361 11.8994 32.9583 12.8803C33.0694 13.3854 32.9583 13.8343 32.625 14.2272C32.2917 14.62 31.8472 14.8164 31.2917 14.8164ZM13.0833 32.9144C9.27778 32.0165 6.14611 30.0524 3.68833 27.022C1.23056 23.9917 0.00111111 20.4843 0 16.4999C0 12.4875 1.22222 8.9521 3.66667 5.89367C6.11111 2.83525 9.23611 0.885158 13.0417 0.04339C13.5417 -0.0688456 13.9794 0.0366562 14.355 0.359895C14.7306 0.683134 14.9178 1.11075 14.9167 1.64275C14.9167 2.03557 14.7844 2.3936 14.52 2.71684C14.2556 3.04008 13.9294 3.25726 13.5417 3.36837C10.5694 4.0979 8.125 5.68323 6.20833 8.12436C4.29167 10.5655 3.33333 13.3573 3.33333 16.4999C3.33333 19.6425 4.29167 22.4136 6.20833 24.8132C8.125 27.2128 10.5694 28.8049 13.5417 29.5894C13.9306 29.7017 14.2572 29.9261 14.5217 30.2628C14.7861 30.5996 14.9178 30.9643 14.9167 31.3571C14.9167 31.8903 14.7361 32.3111 14.375 32.6198C14.0139 32.9284 13.5833 33.0266 13.0833 32.9144ZM23.6667 5.09399C23.0278 4.70117 22.375 4.35717 21.7083 4.06199C21.0417 3.76681 20.3611 3.5356 19.6667 3.36837C19.2778 3.25614 18.9444 3.03896 18.6667 2.71684C18.3889 2.39473 18.25 2.0367 18.25 1.64275C18.25 1.10963 18.4378 0.682011 18.8133 0.359895C19.1889 0.0377786 19.6261 -0.0677233 20.125 0.04339C21.0972 0.267861 22.0417 0.56248 22.9583 0.927246C23.875 1.29201 24.7639 1.75498 25.625 2.31616C26.0694 2.59675 26.3128 2.98958 26.355 3.49464C26.3972 3.9997 26.2233 4.44864 25.8333 4.84146C25.5556 5.12205 25.2156 5.29041 24.8133 5.34653C24.4111 5.40264 24.0289 5.31847 23.6667 5.09399ZM16.625 24.3284C16.4028 24.3284 16.1878 24.2936 15.98 24.224C15.7722 24.1544 15.5983 24.0489 15.4583 23.9075C13.625 22.1959 12.25 20.5965 11.3333 19.1094C10.4167 17.6223 9.95833 16.2474 9.95833 14.9848C9.95833 13.0206 10.5906 11.3792 11.855 10.0604C13.1194 8.74165 14.7094 8.08227 16.625 8.08227C18.5406 8.08227 20.1311 8.74165 21.3967 10.0604C22.6622 11.3792 23.2939 13.0206 23.2917 14.9848C23.2917 16.2474 22.8333 17.6223 21.9167 19.1094C21 20.5965 19.625 22.1959 17.7917 23.9075C17.6528 24.0478 17.4794 24.1533 17.2717 24.224C17.0639 24.2947 16.8483 24.3295 16.625 24.3284ZM16.625 16.4999C17.125 16.4999 17.5489 16.3249 17.8967 15.9747C18.2444 15.6245 18.4178 15.1963 18.4167 14.6901C18.4156 14.184 18.2422 13.7558 17.8967 13.4056C17.5511 13.0554 17.1272 12.8803 16.625 12.8803C16.1228 12.8803 15.6994 13.056 15.355 13.4073C15.0106 13.7586 14.8367 14.1862 14.8333 14.6901C14.83 15.1941 15.0039 15.6223 15.355 15.9747C15.7061 16.3271 16.1294 16.5022 16.625 16.4999Z" fill="url(#paint0_radial_1_301)"/>
<defs>
<radialGradient id="paint0_radial_1_301" cx="0" cy="0" r="1" gradientUnits="userSpaceOnUse" gradientTransform="translate(4.89407 1.8178) rotate(59.7887) scale(38.3485)">
<stop offset="0.00868034" stop-color="#B3C0FF"/>
<stop offset="0.47743" stop-color="#9466FF"/>
<stop offset="1" stop-color="#334ED5"/>
</radialGradient>
</defs>
</svg>
