<svg width="33" height="32" viewBox="0 0 33 32" fill="none" xmlns="http://www.w3.org/2000/svg">
<path d="M24.9731 21.8634L9.64286 7.1996V0H0.5V8.74534H8.02686L23.3571 23.4091V30.6087H32.5V21.8634H24.9731ZM7.35714 6.55901H2.78571V2.18634H7.35714V6.55901ZM30.2143 28.4224H25.6429V24.0497H30.2143V28.4224Z" fill="url(#paint0_radial_1_290)"/>
<path d="M32.5 4.5683C32.5014 3.457 32.0972 2.3834 31.3632 1.54901C30.6293 0.714619 29.6161 0.176805 28.5138 0.0365137C27.4115 -0.103778 26.2959 0.163099 25.3764 0.787053C24.4569 1.41101 23.7967 2.34914 23.5198 3.42536H13.0722V5.71124H23.5198C23.7251 6.49672 24.1359 7.21333 24.71 7.78742C25.284 8.36151 26.0005 8.77237 26.7859 8.97775V19.4265H29.0716V8.97775C30.0504 8.72581 30.9179 8.15625 31.5384 7.3583C32.1588 6.56035 32.497 5.5791 32.5 4.5683ZM27.9287 6.85417C27.4767 6.85417 27.0348 6.72011 26.6589 6.46893C26.283 6.21776 25.9901 5.86075 25.8171 5.44307C25.6441 5.02538 25.5988 4.56576 25.687 4.12235C25.7752 3.67893 25.9929 3.27163 26.3126 2.95194C26.6322 2.63226 27.0395 2.41455 27.4828 2.32635C27.9262 2.23814 28.3858 2.28341 28.8034 2.45642C29.2211 2.62944 29.578 2.92242 29.8292 3.29833C30.0803 3.67424 30.2144 4.1162 30.2144 4.5683C30.2144 5.17455 29.9736 5.75597 29.5449 6.18466C29.1163 6.61334 28.5349 6.85417 27.9287 6.85417ZM19.929 26.2841H9.48143C9.27607 25.4986 8.86526 24.782 8.29123 24.2079C7.7172 23.6338 7.00067 23.223 6.21527 23.0176V12.5689H3.92964V23.0176C3.14979 23.2175 2.43671 23.6201 1.8628 24.1848C1.28889 24.7494 0.874591 25.4559 0.661977 26.2324C0.449363 27.009 0.446002 27.828 0.652236 28.6062C0.858471 29.3845 1.26696 30.0943 1.83621 30.6636C2.40547 31.233 3.11522 31.6415 3.89341 31.8477C4.6716 32.054 5.4905 32.0506 6.26697 31.838C7.04344 31.6254 7.74982 31.211 8.31438 30.6371C8.87895 30.0631 9.28159 29.3499 9.48143 28.57H19.929V26.2841ZM5.07246 29.7129C4.6204 29.7129 4.1785 29.5789 3.80263 29.3277C3.42676 29.0765 3.13381 28.7195 2.96081 28.3018C2.78782 27.8841 2.74256 27.4245 2.83075 26.9811C2.91894 26.5377 3.13662 26.1304 3.45627 25.8107C3.77592 25.491 4.18318 25.2733 4.62655 25.1851C5.06992 25.0969 5.52949 25.1422 5.94713 25.3152C6.36477 25.4882 6.72174 25.7812 6.97289 26.1571C7.22404 26.533 7.35809 26.9749 7.35809 27.427C7.35809 28.0333 7.11728 28.6147 6.68864 29.0434C6.26 29.4721 5.67864 29.7129 5.07246 29.7129Z" fill="url(#paint1_radial_1_290)"/>
<defs>
<radialGradient id="paint0_radial_1_290" cx="0" cy="0" r="1" gradientUnits="userSpaceOnUse" gradientTransform="translate(5.24576 1.68607) rotate(58.6692) scale(35.9859 36.7563)">
<stop offset="0.00868034" stop-color="#B3C0FF"/>
<stop offset="0.47743" stop-color="#9466FF"/>
<stop offset="1" stop-color="#334ED5"/>
</radialGradient>
<radialGradient id="paint1_radial_1_290" cx="0" cy="0" r="1" gradientUnits="userSpaceOnUse" gradientTransform="translate(5.24576 1.76271) rotate(59.7887) scale(37.1864)">
<stop offset="0.00868034" stop-color="#B3C0FF"/>
<stop offset="0.47743" stop-color="#9466FF"/>
<stop offset="1" stop-color="#334ED5"/>
</radialGradient>
</defs>
</svg>
