<svg width="36" height="36" viewBox="0 0 36 36" fill="none" xmlns="http://www.w3.org/2000/svg">
<path d="M16.2222 30.4444H26C27.6502 30.4444 29.2329 29.7889 30.3998 28.622C31.5667 27.4551 32.2222 25.8725 32.2222 24.2222C32.2222 22.572 31.5667 20.9893 30.3998 19.8224C29.2329 18.6556 27.6502 18 26 18H11.7778C10.1275 18 8.5449 17.3444 7.378 16.1776C6.21111 15.0107 5.55556 13.428 5.55556 11.7778C5.55556 10.1275 6.21111 8.5449 7.378 7.378C8.5449 6.21111 10.1275 5.55556 11.7778 5.55556H19.7778M2 30.4444C2 31.3874 2.3746 32.2918 3.0414 32.9586C3.70819 33.6254 4.61256 34 5.55556 34C6.49855 34 7.40292 33.6254 8.06971 32.9586C8.73651 32.2918 9.11111 31.3874 9.11111 30.4444C9.11111 29.5015 8.73651 28.5971 8.06971 27.9303C7.40292 27.2635 6.49855 26.8889 5.55556 26.8889C4.61256 26.8889 3.70819 27.2635 3.0414 27.9303C2.3746 28.5971 2 29.5015 2 30.4444ZM30.4444 9.11111C31.3874 9.11111 32.2918 8.73651 32.9586 8.06971C33.6254 7.40292 34 6.49855 34 5.55556C34 4.61256 33.6254 3.70819 32.9586 3.0414C32.2918 2.3746 31.3874 2 30.4444 2C29.5015 2 28.5971 2.3746 27.9303 3.0414C27.2635 3.70819 26.8889 4.61256 26.8889 5.55556C26.8889 6.49855 27.2635 7.40292 27.9303 8.06971C28.5971 8.73651 29.5015 9.11111 30.4444 9.11111Z" stroke="url(#paint0_radial_1_289)" stroke-width="3" stroke-linecap="round" stroke-linejoin="round"/>
<defs>
<radialGradient id="paint0_radial_1_289" cx="0" cy="0" r="1" gradientUnits="userSpaceOnUse" gradientTransform="translate(6.74576 3.76271) rotate(59.7887) scale(37.1864)">
<stop offset="0.00868034" stop-color="#B3C0FF"/>
<stop offset="0.47743" stop-color="#9466FF"/>
<stop offset="1" stop-color="#334ED5"/>
</radialGradient>
</defs>
</svg>
