<svg width="33" height="33" viewBox="0 0 33 33" fill="none" xmlns="http://www.w3.org/2000/svg">
<path d="M16.5 5.5C14.3244 5.5 12.1977 6.14514 10.3887 7.35383C8.57979 8.56253 7.16989 10.2805 6.33733 12.2905C5.50476 14.3005 5.28693 16.5122 5.71136 18.646C6.1358 20.7798 7.18345 22.7398 8.72183 24.2782C10.2602 25.8166 12.2202 26.8642 14.354 27.2886C16.4878 27.7131 18.6995 27.4952 20.7095 26.6627C22.7195 25.8301 24.4375 24.4202 25.6462 22.6113C26.8549 20.8023 27.5 18.6756 27.5 16.5C27.4989 13.583 26.3396 10.7857 24.277 8.72303C22.2143 6.66037 19.417 5.50109 16.5 5.5ZM8.25 16.5C8.25192 15.9948 8.30025 15.4908 8.39438 14.9944L13.2 19.8V20.9C13.2018 21.4829 13.4342 22.0414 13.8464 22.4536C14.2586 22.8658 14.8171 23.0982 15.4 23.1V24.6675C13.4223 24.4003 11.6084 23.4257 10.2939 21.9241C8.97938 20.4226 8.2533 18.4956 8.25 16.5ZM20.9 20.9H19.8V17.6C19.8 17.4555 19.7715 17.3125 19.7163 17.179C19.661 17.0456 19.58 16.9243 19.4778 16.8222C19.3757 16.72 19.2544 16.639 19.121 16.5837C18.9875 16.5285 18.8445 16.5 18.7 16.5H12.1V14.3H14.3C14.5917 14.3 14.8715 14.1841 15.0778 13.9778C15.2841 13.7715 15.4 13.4917 15.4 13.2V11H17.6C18.158 10.9976 18.6943 10.7832 19.1002 10.4003C19.5062 10.0173 19.7514 9.49445 19.7863 8.9375C20.9749 9.45135 22.0256 10.2385 22.8527 11.2349C23.6799 12.2313 24.2602 13.4088 24.5465 14.6717C24.8328 15.9347 24.8171 17.2474 24.5005 18.5031C24.1839 19.7588 23.5755 20.922 22.7246 21.8982C22.5292 21.5917 22.2594 21.3394 21.9405 21.1649C21.6215 20.9904 21.2636 20.8993 20.9 20.9ZM17.875 1.375C17.875 1.64695 17.7944 1.91279 17.6433 2.13891C17.4922 2.36503 17.2774 2.54126 17.0262 2.64533C16.7749 2.7494 16.4985 2.77663 16.2318 2.72358C15.965 2.67053 15.72 2.53957 15.5277 2.34727C15.3354 2.15497 15.2045 1.90997 15.1514 1.64325C15.0984 1.37653 15.1256 1.10006 15.2297 0.84881C15.3337 0.597562 15.51 0.382816 15.7361 0.231729C15.9622 0.0806424 16.2281 0 16.5 0C16.8647 0 17.2144 0.144866 17.4723 0.402728C17.7301 0.660591 17.875 1.01033 17.875 1.375ZM24.75 2.75C24.75 3.02195 24.6694 3.28779 24.5183 3.51391C24.3672 3.74003 24.1524 3.91626 23.9012 4.02033C23.6499 4.1244 23.3735 4.15163 23.1068 4.09858C22.84 4.04553 22.595 3.91457 22.4027 3.72227C22.2104 3.52997 22.0795 3.28497 22.0264 3.01825C21.9734 2.75153 22.0006 2.47506 22.1047 2.22381C22.2087 1.97256 22.385 1.75782 22.6111 1.60673C22.8372 1.45564 23.1031 1.375 23.375 1.375C23.7397 1.375 24.0894 1.51987 24.3473 1.77773C24.6051 2.03559 24.75 2.38533 24.75 2.75ZM30.25 8.25C30.25 8.52195 30.1694 8.78779 30.0183 9.01391C29.8672 9.24003 29.6524 9.41626 29.4012 9.52033C29.1499 9.6244 28.8735 9.65163 28.6068 9.59858C28.34 9.54553 28.095 9.41457 27.9027 9.22227C27.7104 9.02997 27.5795 8.78497 27.5264 8.51825C27.4734 8.25152 27.5006 7.97506 27.6047 7.72381C27.7087 7.47256 27.885 7.25782 28.1111 7.10673C28.3372 6.95564 28.6031 6.875 28.875 6.875C29.2397 6.875 29.5894 7.01987 29.8473 7.27773C30.1051 7.53559 30.25 7.88533 30.25 8.25ZM33 16.5C33 16.7719 32.9194 17.0378 32.7683 17.2639C32.6172 17.49 32.4024 17.6663 32.1512 17.7703C31.8999 17.8744 31.6235 17.9016 31.3568 17.8486C31.09 17.7955 30.845 17.6646 30.6527 17.4723C30.4604 17.28 30.3295 17.035 30.2764 16.7682C30.2234 16.5015 30.2506 16.2251 30.3547 15.9738C30.4587 15.7226 30.635 15.5078 30.8611 15.3567C31.0872 15.2056 31.3531 15.125 31.625 15.125C31.9897 15.125 32.3394 15.2699 32.5973 15.5277C32.8551 15.7856 33 16.1353 33 16.5ZM30.25 24.75C30.25 25.0219 30.1694 25.2878 30.0183 25.5139C29.8672 25.74 29.6524 25.9163 29.4012 26.0203C29.1499 26.1244 28.8735 26.1516 28.6068 26.0986C28.34 26.0455 28.095 25.9146 27.9027 25.7223C27.7104 25.53 27.5795 25.285 27.5264 25.0182C27.4734 24.7515 27.5006 24.4751 27.6047 24.2238C27.7087 23.9726 27.885 23.7578 28.1111 23.6067C28.3372 23.4556 28.6031 23.375 28.875 23.375C29.2397 23.375 29.5894 23.5199 29.8473 23.7777C30.1051 24.0356 30.25 24.3853 30.25 24.75ZM24.75 30.25C24.75 30.5219 24.6694 30.7878 24.5183 31.0139C24.3672 31.24 24.1524 31.4163 23.9012 31.5203C23.6499 31.6244 23.3735 31.6516 23.1068 31.5986C22.84 31.5455 22.595 31.4146 22.4027 31.2223C22.2104 31.03 22.0795 30.785 22.0264 30.5182C21.9734 30.2515 22.0006 29.9751 22.1047 29.7238C22.2087 29.4726 22.385 29.2578 22.6111 29.1067C22.8372 28.9556 23.1031 28.875 23.375 28.875C23.7397 28.875 24.0894 29.0199 24.3473 29.2777C24.6051 29.5356 24.75 29.8853 24.75 30.25ZM17.875 31.625C17.875 31.8969 17.7944 32.1628 17.6433 32.3889C17.4922 32.615 17.2774 32.7913 17.0262 32.8953C16.7749 32.9994 16.4985 33.0266 16.2318 32.9736C15.965 32.9205 15.72 32.7896 15.5277 32.5973C15.3354 32.405 15.2045 32.16 15.1514 31.8932C15.0984 31.6265 15.1256 31.3501 15.2297 31.0988C15.3337 30.8476 15.51 30.6328 15.7361 30.4817C15.9622 30.3306 16.2281 30.25 16.5 30.25C16.8647 30.25 17.2144 30.3949 17.4723 30.6527C17.7301 30.9106 17.875 31.2603 17.875 31.625ZM11 30.25C11 30.5219 10.9194 30.7878 10.7683 31.0139C10.6172 31.24 10.4024 31.4163 10.1512 31.5203C9.89994 31.6244 9.62348 31.6516 9.35675 31.5986C9.09003 31.5455 8.84503 31.4146 8.65273 31.2223C8.46043 31.03 8.32948 30.785 8.27642 30.5182C8.22337 30.2515 8.2506 29.9751 8.35467 29.7238C8.45874 29.4726 8.63497 29.2578 8.86109 29.1067C9.08721 28.9556 9.35305 28.875 9.625 28.875C9.98967 28.875 10.3394 29.0199 10.5973 29.2777C10.8551 29.5356 11 29.8853 11 30.25ZM5.5 24.75C5.5 25.0219 5.41936 25.2878 5.26827 25.5139C5.11718 25.74 4.90244 25.9163 4.65119 26.0203C4.39994 26.1244 4.12348 26.1516 3.85675 26.0986C3.59003 26.0455 3.34503 25.9146 3.15273 25.7223C2.96043 25.53 2.82948 25.285 2.77642 25.0182C2.72337 24.7515 2.7506 24.4751 2.85467 24.2238C2.95874 23.9726 3.13497 23.7578 3.36109 23.6067C3.58721 23.4556 3.85305 23.375 4.125 23.375C4.48967 23.375 4.83941 23.5199 5.09727 23.7777C5.35513 24.0356 5.5 24.3853 5.5 24.75ZM2.75 16.5C2.75 16.7719 2.66936 17.0378 2.51827 17.2639C2.36718 17.49 2.15244 17.6663 1.90119 17.7703C1.64994 17.8744 1.37348 17.9016 1.10675 17.8486C0.840028 17.7955 0.595026 17.6646 0.402729 17.4723C0.210432 17.28 0.0794755 17.035 0.0264209 16.7682C-0.0266338 16.5015 0.000595761 16.2251 0.104666 15.9738C0.208737 15.7226 0.384974 15.5078 0.611092 15.3567C0.837209 15.2056 1.10305 15.125 1.375 15.125C1.73967 15.125 2.08941 15.2699 2.34727 15.5277C2.60513 15.7856 2.75 16.1353 2.75 16.5ZM5.5 8.25C5.5 8.52195 5.41936 8.78779 5.26827 9.01391C5.11718 9.24003 4.90244 9.41626 4.65119 9.52033C4.39994 9.6244 4.12348 9.65163 3.85675 9.59858C3.59003 9.54553 3.34503 9.41457 3.15273 9.22227C2.96043 9.02997 2.82948 8.78497 2.77642 8.51825C2.72337 8.25152 2.7506 7.97506 2.85467 7.72381C2.95874 7.47256 3.13497 7.25782 3.36109 7.10673C3.58721 6.95564 3.85305 6.875 4.125 6.875C4.48967 6.875 4.83941 7.01987 5.09727 7.27773C5.35513 7.53559 5.5 7.88533 5.5 8.25ZM11 2.75C11 3.02195 10.9194 3.28779 10.7683 3.51391C10.6172 3.74003 10.4024 3.91626 10.1512 4.02033C9.89994 4.1244 9.62348 4.15163 9.35675 4.09858C9.09003 4.04553 8.84503 3.91457 8.65273 3.72227C8.46043 3.52997 8.32948 3.28497 8.27642 3.01825C8.22337 2.75153 8.2506 2.47506 8.35467 2.22381C8.45874 1.97256 8.63497 1.75782 8.86109 1.60673C9.08721 1.45564 9.35305 1.375 9.625 1.375C9.98967 1.375 10.3394 1.51987 10.5973 1.77773C10.8551 2.03559 11 2.38533 11 2.75Z" fill="url(#paint0_radial_1_300)"/>
<defs>
<radialGradient id="paint0_radial_1_300" cx="0" cy="0" r="1" gradientUnits="userSpaceOnUse" gradientTransform="translate(4.89407 1.8178) rotate(59.7887) scale(38.3485)">
<stop offset="0.00868034" stop-color="#B3C0FF"/>
<stop offset="0.47743" stop-color="#9466FF"/>
<stop offset="1" stop-color="#334ED5"/>
</radialGradient>
</defs>
</svg>
