<svg width="32" height="31" viewBox="0 0 32 31" fill="none" xmlns="http://www.w3.org/2000/svg">
<path d="M22.1538 17.8846C21.8274 17.8846 21.5144 18.0102 21.2836 18.2338C21.0527 18.4574 20.9231 18.7607 20.9231 19.0769C20.9231 19.3931 21.0527 19.6964 21.2836 19.92C21.5144 20.1436 21.8274 20.2692 22.1538 20.2692H25.8462C26.1726 20.2692 26.4856 20.1436 26.7164 19.92C26.9473 19.6964 27.0769 19.3931 27.0769 19.0769C27.0769 18.7607 26.9473 18.4574 26.7164 18.2338C26.4856 18.0102 26.1726 17.8846 25.8462 17.8846H22.1538ZM5.54707e-06 3.57692C5.54707e-06 2.62826 0.389015 1.71846 1.08146 1.04766C1.7739 0.376853 2.71305 0 3.69231 0H24.3077C25.3686 0 26.386 0.408258 27.1361 1.13496C27.8863 1.86166 28.3077 2.84729 28.3077 3.875V5.07446C30.4591 5.81131 32 7.79888 32 10.1346V25.6346C32 27.0576 31.4165 28.4223 30.3778 29.4285C29.3392 30.4347 27.9304 31 26.4615 31H5.53847C4.06957 31 2.66085 30.4347 1.62218 29.4285C0.58352 28.4223 5.54707e-06 27.0576 5.54707e-06 25.6346V3.875H0.0123132C0.00393367 3.77585 -0.000172456 3.6764 5.54707e-06 3.57692ZM26.4615 7.15385H2.46154V25.6346C2.46154 26.4252 2.78572 27.1833 3.36275 27.7423C3.93979 28.3013 4.72242 28.6154 5.53847 28.6154H26.4615C27.2776 28.6154 28.0602 28.3013 28.6373 27.7423C29.2143 27.1833 29.5385 26.4252 29.5385 25.6346V10.1346C29.5385 9.34407 29.2143 8.5859 28.6373 8.02689C28.0602 7.46789 27.2776 7.15385 26.4615 7.15385ZM25.8462 3.875C25.8462 3.05231 25.1569 2.38462 24.3077 2.38462H3.69231C3.36589 2.38462 3.05284 2.51023 2.82203 2.73383C2.59121 2.95744 2.46154 3.2607 2.46154 3.57692C2.46154 3.89314 2.59121 4.19641 2.82203 4.42001C3.05284 4.64361 3.36589 4.76923 3.69231 4.76923H25.8462V3.875Z" fill="url(#paint0_radial_1_299)"/>
<defs>
<radialGradient id="paint0_radial_1_299" cx="0" cy="0" r="1" gradientUnits="userSpaceOnUse" gradientTransform="translate(4.74576 1.70763) rotate(58.9915) scale(36.3221 36.8816)">
<stop offset="0.00868034" stop-color="#B3C0FF"/>
<stop offset="0.47743" stop-color="#9466FF"/>
<stop offset="1" stop-color="#334ED5"/>
</radialGradient>
</defs>
</svg>
